<?xml version="1.0" encoding="UTF-8" standalone="no"?>
<!-- Created with Inkscape (http://www.inkscape.org/) -->

<svg
   xmlns:dc="http://purl.org/dc/elements/1.1/"
   xmlns:cc="http://creativecommons.org/ns#"
   xmlns:rdf="http://www.w3.org/1999/02/22-rdf-syntax-ns#"
   xmlns:svg="http://www.w3.org/2000/svg"
   xmlns="http://www.w3.org/2000/svg"
   xmlns:sodipodi="http://sodipodi.sourceforge.net/DTD/sodipodi-0.dtd"
   xmlns:inkscape="http://www.inkscape.org/namespaces/inkscape"
   width="1000"
   height="1000"
   viewBox="0 0 1000 1000"
   id="svg4289"
   version="1.1"
   inkscape:version="0.91 r13725"
   sodipodi:docname="an.svg">
  <defs
     id="defs4291" />
  <sodipodi:namedview
     id="base"
     pagecolor="#ffffff"
     bordercolor="#666666"
     borderopacity="1.0"
     inkscape:pageopacity="0.0"
     inkscape:pageshadow="2"
     inkscape:zoom="0.49497474"
     inkscape:cx="74.285729"
     inkscape:cy="644.08099"
     inkscape:document-units="px"
     inkscape:current-layer="layer1"
     showgrid="true"
     units="px"
     inkscape:window-width="1280"
     inkscape:window-height="748"
     inkscape:window-x="-8"
     inkscape:window-y="-8"
     inkscape:window-maximized="1"
     showguides="true"
     inkscape:guide-bbox="true">
    <sodipodi:guide
       position="0,200"
       orientation="0,1"
       id="guide4889"
       inkscape:label="Baseline"
       inkscape:color="rgb(0,0,255)" />
    <inkscape:grid
       type="xygrid"
       id="grid4150" />
  </sodipodi:namedview>
  <metadata
     id="metadata4294">
    <rdf:RDF>
      <cc:Work
         rdf:about="">
        <dc:format>image/svg+xml</dc:format>
        <dc:type
           rdf:resource="http://purl.org/dc/dcmitype/StillImage" />
        <dc:title></dc:title>
      </cc:Work>
    </rdf:RDF>
  </metadata>
  <g
     inkscape:label="Layer 1"
     inkscape:groupmode="layer"
     id="layer1"
     transform="translate(0,-52.36222)">
    <path
       sodipodi:nodetypes="ccccsccccccccscc"
       inkscape:connector-curvature="0"
       id="path11042-6"
       d="m 386.78781,174.60681 -35.0938,16.0429 c -45.122,3.0081 -176.22307,9.0262 -219.33957,8.0235 -27.0732,0 -73.197,-3.0092 -107.2891,-9.0254 l -8.0215,16.0429 c -2.00545,4.01087 -2.0049,9.02439 2.0059,13.03519 22.0597,26.07051 24.722128,55.15041 57.811628,73.19921 20.0542,-5.0135 58.158002,-12.03239 79.214902,-13.03509 28.1628,-2.28351 60.84756,-1.64391 148.54806,-3.16381 23.9792,-1.885 33.59922,9.44243 28.54072,39.80923 -2.5468,95.53868 -41.7537,188.41578 -92.46847,261.58401 l 119.58139,-8.73538 c 54.17945,-72.64457 93.00559,-163.7035 111.82814,-247.61576 0,0 11.9667,-55.0892 9.9708,-85.6903 -0.7915,-12.1342 -2.1132,-39.0932 -15.1683,-44.4283 -19.0515,-7.019 -48.0341,-14.0375 -80.1208,-16.0429 z"
       style="font-style:normal;font-variant:normal;font-weight:900;font-stretch:normal;font-size:445.64938354px;line-height:125%;font-family:'Source Han Serif KR';-inkscape-font-specification:'Source Han Serif KR Heavy';letter-spacing:0px;word-spacing:0px;fill:#000000;fill-opacity:1;stroke:none;stroke-width:1px;stroke-linecap:butt;stroke-linejoin:miter;stroke-opacity:1" />
    <path
       inkscape:connector-curvature="0"
       id="path10977-1"
       d="m 362.54585,526.54384 -35.0937,14.88363 c -20.3185,1.25671 -87.047,3.71326 -125.1231,4.619 26.59325,-155.83112 61.07154,-274.94042 -36.60164,-313.12885 -22.7233,-7.44877 -28.11841,-3.4667 -42.2432,4.96078 -20.20819,12.05711 -6.29025,29.71188 -3.8334,70.98823 -15.8772,77.49433 -25.6222,190.88288 -57.5241,233.68832 -11.3062,15.80923 -27.8166,21.96215 -44.387,28.00373 -13.8644,80.32782 64.4717,78.23235 130.0547,82.90386 7.873,-0.59227 28.6234,-12.97631 59.9583,-14.32208 116.327,-4.99594 99.25564,-12.85106 127.60144,-6.2417 11.79957,50.12992 -21.84861,90.44701 -32.41764,129.47165 -26.2757,48.99436 -25.64238,52.40603 -17.80958,88.73302 1.9889,20.38592 14.6096,47.69052 32.0979,63.06186 44.192,32.37307 71.7486,-22.75406 91.4401,-51.87961 79.2927,-117.97181 72.88452,-204.91832 81.32262,-290.71874 0,-8.37224 -30.7277,-29.99938 -38.7494,-32.7901 -19.0515,-6.51176 -56.6055,-10.37243 -88.6923,-12.233 z"
       style="font-style:normal;font-variant:normal;font-weight:900;font-stretch:normal;font-size:445.64938354px;line-height:125%;font-family:'Source Han Serif KR';-inkscape-font-specification:'Source Han Serif KR Heavy';letter-spacing:0px;word-spacing:0px;fill:#000000;fill-opacity:1;stroke:none;stroke-width:1px;stroke-linecap:butt;stroke-linejoin:miter;stroke-opacity:1"
       sodipodi:nodetypes="ccccsccccscccccccc" />
  </g>
</svg>
