<?xml version="1.0" encoding="UTF-8" standalone="no"?>
<!-- Created with Inkscape (http://www.inkscape.org/) -->

<svg
   xmlns:dc="http://purl.org/dc/elements/1.1/"
   xmlns:cc="http://creativecommons.org/ns#"
   xmlns:rdf="http://www.w3.org/1999/02/22-rdf-syntax-ns#"
   xmlns:svg="http://www.w3.org/2000/svg"
   xmlns="http://www.w3.org/2000/svg"
   xmlns:sodipodi="http://sodipodi.sourceforge.net/DTD/sodipodi-0.dtd"
   xmlns:inkscape="http://www.inkscape.org/namespaces/inkscape"
   width="1000"
   height="1000"
   viewBox="0 0 1000 1000"
   id="svg4289"
   version="1.1"
   inkscape:version="0.91 r13725"
   sodipodi:docname="ang.svg">
  <defs
     id="defs4291" />
  <sodipodi:namedview
     id="base"
     pagecolor="#ffffff"
     bordercolor="#666666"
     borderopacity="1.0"
     inkscape:pageopacity="0.0"
     inkscape:pageshadow="2"
     inkscape:zoom="0.49497474"
     inkscape:cx="313.46641"
     inkscape:cy="644.08099"
     inkscape:document-units="px"
     inkscape:current-layer="layer1"
     showgrid="true"
     units="px"
     inkscape:window-width="1280"
     inkscape:window-height="748"
     inkscape:window-x="-8"
     inkscape:window-y="-8"
     inkscape:window-maximized="1"
     showguides="true"
     inkscape:guide-bbox="true">
    <sodipodi:guide
       position="0,200"
       orientation="0,1"
       id="guide4889"
       inkscape:label="Baseline"
       inkscape:color="rgb(0,0,255)" />
    <inkscape:grid
       type="xygrid"
       id="grid4150" />
  </sodipodi:namedview>
  <metadata
     id="metadata4294">
    <rdf:RDF>
      <cc:Work
         rdf:about="">
        <dc:format>image/svg+xml</dc:format>
        <dc:type
           rdf:resource="http://purl.org/dc/dcmitype/StillImage" />
        <dc:title></dc:title>
      </cc:Work>
    </rdf:RDF>
  </metadata>
  <g
     inkscape:label="Layer 1"
     inkscape:groupmode="layer"
     id="layer1"
     transform="translate(0,-52.36222)">
    <path
       sodipodi:nodetypes="ssccsccccss"
       style="font-style:normal;font-variant:normal;font-weight:900;font-stretch:normal;font-size:445.64938354px;line-height:125%;font-family:'Source Han Serif KR';-inkscape-font-specification:'Source Han Serif KR Heavy';letter-spacing:0px;word-spacing:0px;fill:#000000;fill-opacity:1;stroke:none;stroke-width:1px;stroke-linecap:butt;stroke-linejoin:miter;stroke-opacity:1"
       d="M 185.98915,274.17986 C 172.94767,398.06829 161.04425,504.79284 102.64421,679.98951 80.681913,745.87512 50.212918,835.21928 10.459227,876.48732 l 36.185388,31.44501 C 104.33803,883.90732 176.1585,784.83865 205.05561,699.1303 241.07201,592.30621 298.0341,430.04522 316.00637,267.55155 l 2.23038,-54.62434 c 0.55747,-13.00551 -2.2301,-21.67484 -8.36233,-26.01007 -13.30589,-9.25802 -88.81692,-18.17431 -111.2546,-23.95539 -29.67312,-7.60195 -27.83053,9.43952 -30.70261,18.01217 -5.07243,15.14045 22.304,53.00314 18.07194,93.20594 z"
       id="path11088"
       inkscape:connector-curvature="0" />
    <path
       sodipodi:nodetypes="scccsccssccccscccs"
       style="font-style:normal;font-variant:normal;font-weight:900;font-stretch:normal;font-size:445.64938354px;line-height:125%;font-family:'Source Han Serif KR';-inkscape-font-specification:'Source Han Serif KR Heavy';letter-spacing:0px;word-spacing:0px;fill:#000000;fill-opacity:1;stroke:none;stroke-width:1px;stroke-linecap:butt;stroke-linejoin:miter;stroke-opacity:1"
       d="m 227.67939,474.78261 c -5.57476,0 -8.92006,4.33539 -9.47754,8.67058 l -4.45969,29.47896 c 14.49438,8.67038 19.44495,22.54314 28.36457,35.54871 l 0,278.17995 c 0,54.62339 23.44802,82.36986 68.6036,83.2369 l 155.54734,-3.46891 c 5.01729,0 9.4765,-1.73455 12.2639,-6.06974 4.45982,-6.93631 10.03457,-27.74484 10.03457,-56.35709 0,-10.40445 -3.90151,-18.20727 -11.14867,-20.80838 -13.93692,-5.20223 -42.92584,-8.67124 -62.99499,-7.8042 l -24.52887,20.81007 -29.98167,2.60083 c -9.47709,0 -13.37909,-6.9368 -13.37909,-21.67644 l 0,-257.37158 1.1152,-49.42096 c 0,-13.00556 -3.90259,-20.80979 -11.14979,-23.4109 -20.06914,-6.9363 -82.60749,-12.1378 -108.80887,-12.1378 z"
       id="path11092"
       inkscape:connector-curvature="0" />
    <path
       sodipodi:nodetypes="ccccscccscscc"
       style="font-style:normal;font-variant:normal;font-weight:900;font-stretch:normal;font-size:445.64938354px;line-height:125%;font-family:'Source Han Serif KR';-inkscape-font-specification:'Source Han Serif KR Heavy';letter-spacing:0px;word-spacing:0px;fill:#000000;fill-opacity:1;stroke:none;stroke-width:1px;stroke-linecap:butt;stroke-linejoin:miter;stroke-opacity:1"
       d="m 375.83234,277.44467 -35.0937,16.04297 c -45.122,3.00813 -167.1257,9.02614 -210.2423,8.02343 -27.0732,0 -73.196903,-3.00913 -107.289003,-9.02538 l -8.0215,16.04296 c -2.00542,4.01083 -2.005,9.02431 2.0058,13.03515 22.0597,26.07049 15.7447,55.15042 48.8342,73.19922 20.0542,-5.01355 58.157903,-12.03244 79.214803,-13.03516 37.1003,-3.00813 182.4621,-8.02343 219.5624,-8.02343 24.0651,0 78.211,4.3e-4 96.2598,2.00586 11.02984,-7.01898 25.06844,-33.08816 25.06844,-61.16407 0,-9.0244 -5.0135,-18.05045 -13.0352,-21.05858 -19.05154,-7.01898 -65.17694,-14.03755 -97.26374,-16.04297 z"
       id="path10946"
       inkscape:connector-curvature="0" />
  </g>
</svg>
