<?xml version="1.0" encoding="UTF-8" standalone="no"?>
<!-- Created with Inkscape (http://www.inkscape.org/) -->

<svg
   xmlns:dc="http://purl.org/dc/elements/1.1/"
   xmlns:cc="http://creativecommons.org/ns#"
   xmlns:rdf="http://www.w3.org/1999/02/22-rdf-syntax-ns#"
   xmlns:svg="http://www.w3.org/2000/svg"
   xmlns="http://www.w3.org/2000/svg"
   xmlns:sodipodi="http://sodipodi.sourceforge.net/DTD/sodipodi-0.dtd"
   xmlns:inkscape="http://www.inkscape.org/namespaces/inkscape"
   width="1000"
   height="1000"
   viewBox="0 0 1000 1000"
   id="svg4289"
   version="1.1"
   inkscape:version="0.91 r13725"
   sodipodi:docname="little_Chz.svg">
  <defs
     id="defs4291" />
  <sodipodi:namedview
     id="base"
     pagecolor="#ffffff"
     bordercolor="#666666"
     borderopacity="1.0"
     inkscape:pageopacity="0.0"
     inkscape:pageshadow="2"
     inkscape:zoom="0.24748737"
     inkscape:cx="76.069414"
     inkscape:cy="735.39804"
     inkscape:document-units="px"
     inkscape:current-layer="layer1"
     showgrid="false"
     units="px"
     inkscape:window-width="1280"
     inkscape:window-height="748"
     inkscape:window-x="-8"
     inkscape:window-y="-8"
     inkscape:window-maximized="1"
     showguides="true"
     inkscape:guide-bbox="true">
    <sodipodi:guide
       position="0,200"
       orientation="0,1"
       id="guide4889"
       inkscape:label="Baseline"
       inkscape:color="rgb(0,0,255)" />
    <inkscape:grid
       type="xygrid"
       id="grid4150" />
  </sodipodi:namedview>
  <metadata
     id="metadata4294">
    <rdf:RDF>
      <cc:Work
         rdf:about="">
        <dc:format>image/svg+xml</dc:format>
        <dc:type
           rdf:resource="http://purl.org/dc/dcmitype/StillImage" />
        <dc:title></dc:title>
      </cc:Work>
    </rdf:RDF>
  </metadata>
  <g
     inkscape:label="Layer 1"
     inkscape:groupmode="layer"
     id="layer1"
     transform="translate(0,-52.36222)">
    <g
       id="g9937"
       transform="translate(-8.1856206,0)">
      <path
         inkscape:connector-curvature="0"
         id="path9856"
         d="m 351.53541,50.238991 c -10.3959,-30.190801 -3.8523,-56.1307006 -101.4156,-96.57639 -22.7233,-8.029 -34.4521,-10.2667 -42.2432,5.3472 1.86529,32.946575 8.51492,47.6113708 1.68537,82.843187 -28.53716,76.690662 -38.69692,150.514762 -107.32389,255.932032 -35.195937,40.07683 -74.650886,80.97978 -65.121392,91.83031 39.657167,9.16132 73.659572,24.2912 104.900712,-6.4727 29.46238,-22.93303 71.25918,-62.50593 93.83992,-92.3368 61.27402,-80.94761 83.9007,-167.29669 115.67808,-240.566839 z"
         style="font-style:normal;font-variant:normal;font-weight:900;font-stretch:normal;font-size:445.64938354px;line-height:125%;font-family:'Source Han Serif KR';-inkscape-font-specification:'Source Han Serif KR Heavy';letter-spacing:0px;word-spacing:0px;fill:#000000;fill-opacity:1;stroke:none;stroke-width:1px;stroke-linecap:butt;stroke-linejoin:miter;stroke-opacity:1"
         sodipodi:nodetypes="cccccccsc" />
      <path
         sodipodi:nodetypes="cccccccc"
         style="font-style:normal;font-variant:normal;font-weight:900;font-stretch:normal;font-size:445.64938354px;line-height:125%;font-family:'Source Han Serif KR';-inkscape-font-specification:'Source Han Serif KR Heavy';letter-spacing:0px;word-spacing:0px;fill:#000000;fill-opacity:1;stroke:none;stroke-width:1px;stroke-linecap:butt;stroke-linejoin:miter;stroke-opacity:1"
         d="M 489.40452,148.05572 C 489.52331,99.072126 460.60348,74.722763 421.72387,60.68132 398.69403,53.579232 386.88422,51.8184 379.7319,67.735038 381.91425,114.0555 376.26159,151.40736 357.46719,188.62916 305.1167,292.15096 218.43305,436.44355 105.43426,551.59231 60.730217,587.49935 17.72382,652.80359 28.69948,664.32416 c 39.99568,7.54763 89.37336,-5.81357 128.32624,-25.94065 169.5235,-140.38827 320.11706,-354.22927 332.3788,-490.32779 z"
         id="path9860"
         inkscape:connector-curvature="0" />
      <path
         inkscape:connector-curvature="0"
         id="path9862"
         d="m 244.98341,610.28165 -5.7143,144.43131 c -2.1009,53.10216 6.0178,118.08443 16.0449,155.18475 l 77.2071,0 c 29.0786,-64.17352 46.125,-112.06795 46.125,-194.29025 l 5.7143,-112.99131 4.0117,-63.1719 c 1.0027,-15.0406 -4.0112,-25.0665 -15.041,-30.0801 -23.9328,-10.7067 -65.2716,-21.0182 -105.6294,-27.7039 -53.3719,-8.7915 -50.0577,10.9166 -55.2236,20.8307 -9.1236,17.5096 34.3678,60.71483 32.5053,107.7907 z"
         style="font-style:normal;font-variant:normal;font-weight:900;font-stretch:normal;font-size:445.64938354px;line-height:125%;font-family:'Source Han Serif KR';-inkscape-font-specification:'Source Han Serif KR Heavy';letter-spacing:0px;word-spacing:0px;fill:#000000;fill-opacity:1;stroke:none;stroke-width:1px;stroke-linecap:butt;stroke-linejoin:miter;stroke-opacity:1"
         sodipodi:nodetypes="sscccccccss" />
    </g>
  </g>
</svg>
