<?xml version="1.0" encoding="UTF-8" standalone="no"?>
<!-- Created with Inkscape (http://www.inkscape.org/) -->

<svg
   xmlns:dc="http://purl.org/dc/elements/1.1/"
   xmlns:cc="http://creativecommons.org/ns#"
   xmlns:rdf="http://www.w3.org/1999/02/22-rdf-syntax-ns#"
   xmlns:svg="http://www.w3.org/2000/svg"
   xmlns="http://www.w3.org/2000/svg"
   xmlns:sodipodi="http://sodipodi.sourceforge.net/DTD/sodipodi-0.dtd"
   xmlns:inkscape="http://www.inkscape.org/namespaces/inkscape"
   width="1000"
   height="1000"
   viewBox="0 0 1000 1000"
   id="svg4289"
   version="1.1"
   inkscape:version="0.91 r13725"
   sodipodi:docname="little_Dz.svg">
  <defs
     id="defs4291" />
  <sodipodi:namedview
     id="base"
     pagecolor="#ffffff"
     bordercolor="#666666"
     borderopacity="1.0"
     inkscape:pageopacity="0.0"
     inkscape:pageshadow="2"
     inkscape:zoom="0.24748737"
     inkscape:cx="76.069414"
     inkscape:cy="492.96143"
     inkscape:document-units="px"
     inkscape:current-layer="layer1"
     showgrid="false"
     units="px"
     inkscape:window-width="1280"
     inkscape:window-height="748"
     inkscape:window-x="-8"
     inkscape:window-y="-8"
     inkscape:window-maximized="1"
     showguides="true"
     inkscape:guide-bbox="true">
    <sodipodi:guide
       position="0,200"
       orientation="0,1"
       id="guide4889"
       inkscape:label="Baseline"
       inkscape:color="rgb(0,0,255)" />
    <inkscape:grid
       type="xygrid"
       id="grid4150" />
  </sodipodi:namedview>
  <metadata
     id="metadata4294">
    <rdf:RDF>
      <cc:Work
         rdf:about="">
        <dc:format>image/svg+xml</dc:format>
        <dc:type
           rdf:resource="http://purl.org/dc/dcmitype/StillImage" />
        <dc:title></dc:title>
      </cc:Work>
    </rdf:RDF>
  </metadata>
  <g
     inkscape:label="Layer 1"
     inkscape:groupmode="layer"
     id="layer1"
     transform="translate(0,-52.36222)">
    <g
       id="g10096"
       transform="translate(-329.16406,48.405197)">
      <path
         sodipodi:nodetypes="ccccsccccccccccccscc"
         inkscape:connector-curvature="0"
         id="path9942"
         d="m 723.78432,-42.91708 -35.09375,16.042969 c -45.122,3.0081 -189.05208,9.026141 -232.16858,8.023441 -27.07321,0 -73.19697,-3.009194 -107.28906,-9.025394 l -8.02148,16.042974 c -2.00544,4.0108773 -2.00494,9.0243496 2.00586,13.0351496 22.05969,26.0705004 15.74462,55.1504194 48.83412,73.1992194 20.05421,-5.0135 58.15795,-12.03245 79.21485,-13.03515 28.1628,-2.28351 61.6691,-1.64417 149.3696,-3.16407 23.9792,-1.885 54.14835,20.87148 49.08985,51.238281 -1.64904,101.85487 6.05073,266.33551 -6.92969,362.74107 -5.10831,45.89049 -7.07107,45.45687 -75.12558,55.73493 -33.06808,22.88597 -49.5633,55.49249 66.08482,96.98383 34.11197,41.98177 29.22646,116.56801 89.57592,40.29296 7.62171,-12.88459 19.0592,-36.17175 31.13085,-64.96875 12.1353,-34.99636 20.64087,-67.75807 26.11524,-99.1875 15.583,-112.60105 8.52539,-278.95059 8.52539,-397.79185 6.0755,-26.728501 11.9666,-55.08835 9.9707,-85.68945 -0.7915,-12.1342004 -2.11287,-39.094591 -15.16797,-44.429691 -19.0515,-7.019 -48.03439,-14.037569 -80.12109,-16.042969 z"
         style="font-style:normal;font-variant:normal;font-weight:900;font-stretch:normal;font-size:445.64938354px;line-height:125%;font-family:'Source Han Serif KR';-inkscape-font-specification:'Source Han Serif KR Heavy';letter-spacing:0px;word-spacing:0px;fill:#000000;fill-opacity:1;stroke:none;stroke-width:1px;stroke-linecap:butt;stroke-linejoin:miter;stroke-opacity:1" />
      <path
         inkscape:connector-curvature="0"
         id="path10073"
         d="m 410.10867,156.59594 0,478.71701 c 0,53.1437 6.0178,189.51301 16.0449,226.61331 l 77.2071,0 c 29.0786,-64.1735 46.125,-183.49651 46.125,-265.71881 l 0,-447.27701 4.0117,-63.171901 c 1.0027,-15.0406 -4.0112,-25.0665 -15.041,-30.08011 -23.9328,-10.706699 -65.2716,-21.018199 -105.6294,-27.703899 -53.3719,-8.7915 -50.0577,10.9166 -55.2236,20.830699 -9.1236,17.50961 32.5053,60.678011 32.5053,107.790711 z"
         style="font-style:normal;font-variant:normal;font-weight:900;font-stretch:normal;font-size:445.64938354px;line-height:125%;font-family:'Source Han Serif KR';-inkscape-font-specification:'Source Han Serif KR Heavy';letter-spacing:0px;word-spacing:0px;fill:#000000;fill-opacity:1;stroke:none;stroke-width:1px;stroke-linecap:butt;stroke-linejoin:miter;stroke-opacity:1"
         sodipodi:nodetypes="sscccccccss" />
    </g>
  </g>
</svg>
