<?xml version="1.0" encoding="UTF-8" standalone="no"?>
<!-- Created with Inkscape (http://www.inkscape.org/) -->

<svg
   xmlns:dc="http://purl.org/dc/elements/1.1/"
   xmlns:cc="http://creativecommons.org/ns#"
   xmlns:rdf="http://www.w3.org/1999/02/22-rdf-syntax-ns#"
   xmlns:svg="http://www.w3.org/2000/svg"
   xmlns="http://www.w3.org/2000/svg"
   xmlns:sodipodi="http://sodipodi.sourceforge.net/DTD/sodipodi-0.dtd"
   xmlns:inkscape="http://www.inkscape.org/namespaces/inkscape"
   width="1000"
   height="1000"
   viewBox="0 0 1000 1000"
   id="svg4289"
   version="1.1"
   inkscape:version="0.91 r13725"
   sodipodi:docname="e.svg">
  <defs
     id="defs4291" />
  <sodipodi:namedview
     id="base"
     pagecolor="#ffffff"
     bordercolor="#666666"
     borderopacity="1.0"
     inkscape:pageopacity="0.0"
     inkscape:pageshadow="2"
     inkscape:zoom="0.24748737"
     inkscape:cx="-10.634283"
     inkscape:cy="637.1484"
     inkscape:document-units="px"
     inkscape:current-layer="layer1"
     showgrid="true"
     units="px"
     inkscape:window-width="1280"
     inkscape:window-height="748"
     inkscape:window-x="-8"
     inkscape:window-y="-8"
     inkscape:window-maximized="1"
     showguides="true"
     inkscape:guide-bbox="true">
    <sodipodi:guide
       position="0,200"
       orientation="0,1"
       id="guide4889"
       inkscape:label="Baseline"
       inkscape:color="rgb(0,0,255)" />
    <inkscape:grid
       type="xygrid"
       id="grid4150" />
  </sodipodi:namedview>
  <metadata
     id="metadata4294">
    <rdf:RDF>
      <cc:Work
         rdf:about="">
        <dc:format>image/svg+xml</dc:format>
        <dc:type
           rdf:resource="http://purl.org/dc/dcmitype/StillImage" />
        <dc:title></dc:title>
      </cc:Work>
    </rdf:RDF>
  </metadata>
  <g
     inkscape:label="Layer 1"
     inkscape:groupmode="layer"
     id="layer1"
     transform="translate(0,-52.36222)">
    <g
       id="g5325"
       transform="translate(-2.7545811,0)">
      <path
         sodipodi:nodetypes="ccccccscscc"
         style="font-style:normal;font-variant:normal;font-weight:900;font-stretch:normal;font-size:445.64938354px;line-height:125%;font-family:'Source Han Serif KR';-inkscape-font-specification:'Source Han Serif KR Heavy';letter-spacing:0px;word-spacing:0px;fill:#000000;fill-opacity:1;stroke:none;stroke-width:1px;stroke-linecap:butt;stroke-linejoin:miter;stroke-opacity:1"
         d="m 383.72078,275.48448 -35.0937,16.04297 c -45.122,3.00813 -180.04535,9.02614 -223.16195,8.02343 -27.073203,0 -73.196903,-3.00913 -107.289003,-9.02538 -19.3827179,38.58731 6.815496,86.53006 34.653174,102.27733 20.0542,-5.01355 58.157899,-12.03244 79.214799,-13.03516 37.1003,-3.00813 203.54708,-8.02343 240.64738,-8.02343 24.0651,0 78.211,4.3e-4 96.2598,2.00586 11.0298,-7.01898 25.0684,-33.08816 25.0684,-61.16407 0,-9.0244 -5.0135,-18.05045 -13.0352,-21.05858 -19.0515,-7.01898 -65.1769,-14.03755 -97.2637,-16.04297 z"
         id="path10121"
         inkscape:connector-curvature="0" />
      <path
         sodipodi:nodetypes="ccccccscscccccccccc"
         inkscape:connector-curvature="0"
         id="path10948"
         d="m 57.880545,212.05357 c -9.1236,17.50955 32.505799,60.67829 32.505799,107.791 4.7591,154.66069 3.2233,269.76576 2.0586,424.45567 -5.3866,55.72813 -17.3391,102.06723 5.3742,132.87543 10.579496,14.35 47.251396,25.3305 77.039506,32.3209 28.8781,4.8888 43.8829,-36.5338 89.8125,-35.919 59.71646,-3.63569 68.05958,-6.01395 98.71534,-6.8301 24.05658,-0.64046 78.211,4e-4 96.2598,2.0058 11.0298,-7.0189 25.0684,-33.0881 25.0684,-61.164 0,-9.0244 -5.0135,-18.05053 -13.0352,-21.05863 -19.0515,-7.019 -65.1769,-14.0375 -97.2637,-16.043 l -35.0937,16.043 c -70.32751,-1.40903 -44.30534,1.03789 -110.64697,6.97813 -17.6775,0.3763 -21.1743,-9.15933 -18.1263,-26.21163 -4.73044,-153.5146 -2.95976,-325.68255 -3.00883,-455.11859 l -8.11013,-63.17186 c 1.0027,-15.04075 -4.0112,-25.06661 -15.041,-30.08017 -23.9328,-10.70676 -30.92601,-21.01743 -71.28372,-27.70313 -20.477396,-3.26189 -42.536396,-5.23798 -55.224595,20.83018 z"
         style="font-style:normal;font-variant:normal;font-weight:900;font-stretch:normal;font-size:445.64938354px;line-height:125%;font-family:'Source Han Serif KR';-inkscape-font-specification:'Source Han Serif KR Heavy';letter-spacing:0px;word-spacing:0px;fill:#000000;fill-opacity:1;stroke:none;stroke-width:1px;stroke-linecap:butt;stroke-linejoin:miter;stroke-opacity:1" />
      <path
         inkscape:connector-curvature="0"
         id="path10950"
         d="m 285.84043,291.28842 0,161.21733 c 0,53.1437 6.0178,189.51301 16.0449,226.61331 l 59.02435,0 c 29.0786,-64.1735 46.125,-183.49651 46.125,-265.71881 l 0,-129.77733 4.0117,-63.17189 c 1.0027,-15.0406 -4.0112,-25.0665 -15.041,-30.0801 -23.9328,-10.7067 -47.08885,-21.0182 -87.44665,-27.7039 -53.3719,-8.7915 -50.0577,10.9166 -55.2236,20.8307 -9.1236,17.5096 32.5053,60.678 32.5053,107.79069 z"
         style="font-style:normal;font-variant:normal;font-weight:900;font-stretch:normal;font-size:445.64938354px;line-height:125%;font-family:'Source Han Serif KR';-inkscape-font-specification:'Source Han Serif KR Heavy';letter-spacing:0px;word-spacing:0px;fill:#000000;fill-opacity:1;stroke:none;stroke-width:1px;stroke-linecap:butt;stroke-linejoin:miter;stroke-opacity:1"
         sodipodi:nodetypes="sscccccccss" />
    </g>
  </g>
</svg>
