<?xml version="1.0" encoding="UTF-8" standalone="no"?>
<!-- Created with Inkscape (http://www.inkscape.org/) -->

<svg
   xmlns:dc="http://purl.org/dc/elements/1.1/"
   xmlns:cc="http://creativecommons.org/ns#"
   xmlns:rdf="http://www.w3.org/1999/02/22-rdf-syntax-ns#"
   xmlns:svg="http://www.w3.org/2000/svg"
   xmlns="http://www.w3.org/2000/svg"
   xmlns:sodipodi="http://sodipodi.sourceforge.net/DTD/sodipodi-0.dtd"
   xmlns:inkscape="http://www.inkscape.org/namespaces/inkscape"
   width="1000"
   height="1000"
   viewBox="0 0 1000 1000"
   id="svg4289"
   version="1.1"
   inkscape:version="0.91 r13725"
   sodipodi:docname="eo.svg">
  <defs
     id="defs4291" />
  <sodipodi:namedview
     id="base"
     pagecolor="#ffffff"
     bordercolor="#666666"
     borderopacity="1.0"
     inkscape:pageopacity="0.0"
     inkscape:pageshadow="2"
     inkscape:zoom="0.24748737"
     inkscape:cx="-10.634283"
     inkscape:cy="637.1484"
     inkscape:document-units="px"
     inkscape:current-layer="layer1"
     showgrid="true"
     units="px"
     inkscape:window-width="1280"
     inkscape:window-height="748"
     inkscape:window-x="-8"
     inkscape:window-y="-8"
     inkscape:window-maximized="1"
     showguides="true"
     inkscape:guide-bbox="true">
    <sodipodi:guide
       position="0,200"
       orientation="0,1"
       id="guide4889"
       inkscape:label="Baseline"
       inkscape:color="rgb(0,0,255)" />
    <inkscape:grid
       type="xygrid"
       id="grid4150" />
  </sodipodi:namedview>
  <metadata
     id="metadata4294">
    <rdf:RDF>
      <cc:Work
         rdf:about="">
        <dc:format>image/svg+xml</dc:format>
        <dc:type
           rdf:resource="http://purl.org/dc/dcmitype/StillImage" />
        <dc:title></dc:title>
      </cc:Work>
    </rdf:RDF>
  </metadata>
  <g
     inkscape:label="Layer 1"
     inkscape:groupmode="layer"
     id="layer1"
     transform="translate(0,-52.36222)">
    <path
       sodipodi:nodetypes="ssccccccccs"
       inkscape:connector-curvature="0"
       id="path10904"
       d="m 193.39552,160.47522 c -27.9545,0.44654 -26.5546,14.96823 -30.7519,23.02343 -9.1236,17.5096 32.5058,60.67637 32.5058,107.78907 -0.093,28.64491 -0.5044,139.60965 -0.1562,164.64187 l 7.3223,92.92187 c 34.7778,50.43696 38.4626,40.96848 86.0859,41.19141 47.7413,-101.66146 46.125,-200.05996 46.125,-306.41922 l 4.0117,-63.17187 c 1.0027,-15.0406 -4.0112,-25.06648 -15.041,-30.08008 -23.9328,-10.7067 -65.2711,-21.01938 -105.6289,-27.70508 -10.0072,-1.6484 -18.0216,-2.29445 -24.4727,-2.1914 z"
       style="font-style:normal;font-variant:normal;font-weight:900;font-stretch:normal;font-size:445.64938354px;line-height:125%;font-family:'Source Han Serif KR';-inkscape-font-specification:'Source Han Serif KR Heavy';letter-spacing:0px;word-spacing:0px;fill:#000000;fill-opacity:1;stroke:none;stroke-width:1px;stroke-linecap:butt;stroke-linejoin:miter;stroke-opacity:1" />
    <path
       sodipodi:nodetypes="ccccscccscsccc"
       style="font-style:normal;font-variant:normal;font-weight:900;font-stretch:normal;font-size:445.64938354px;line-height:125%;font-family:'Source Han Serif KR';-inkscape-font-specification:'Source Han Serif KR Heavy';letter-spacing:0px;word-spacing:0px;fill:#000000;fill-opacity:1;stroke:none;stroke-width:1px;stroke-linecap:butt;stroke-linejoin:miter;stroke-opacity:1"
       d="m 378.58786,269.56113 -35.0936,16.04297 c -45.122,3.00813 -172.63691,9.02615 -215.75351,8.02344 -27.0732,0 -73.196903,-3.00913 -107.289103,-9.02539 l -8.021399,16.04297 c -2.0054,4.01084 -2.005,9.02431 2.0058,13.03515 22.059699,26.07049 56.150799,55.15042 89.240302,73.19922 20.0542,-5.01355 58.1579,-12.03244 79.2148,-13.03516 37.1003,-3.00813 147.56721,-8.02343 184.66751,-8.02343 24.0651,0 78.211,4.3e-4 96.2598,2.00586 11.0298,-7.01898 25.0684,-33.08816 25.0684,-61.16407 0,-9.0244 -5.0135,-18.05046 -13.0352,-21.05859 -19.0515,-7.01898 -65.1769,-14.03755 -97.2637,-16.04297 z"
       id="path10906"
       inkscape:connector-curvature="0" />
    <path
       style="font-style:normal;font-variant:normal;font-weight:900;font-stretch:normal;font-size:445.64938354px;line-height:125%;font-family:'Source Han Serif KR';-inkscape-font-specification:'Source Han Serif KR Heavy';letter-spacing:0px;word-spacing:0px;fill:#000000;fill-opacity:1;stroke:none;stroke-width:1px;stroke-linecap:butt;stroke-linejoin:miter;stroke-opacity:1"
       d="M 202.96894,464.99702 C 95.646348,484.31001 14.286238,564.49348 14.286238,683.10769 c 0,139.66953 108.371962,226.79002 239.967722,226.79002 98.75725,0 184.21422,-49.90038 219.93707,-134.71488 57.67732,-152.96398 -118.86721,-112.36759 -139.61038,-30.81493 -18.26396,55.62341 -25.97551,86.67363 -80.32669,86.67363 -71.87795,0 -105.58145,-54.30491 -105.58145,-147.93384 0,-72.07901 11.75152,-120.83985 59.25181,-139.47268 z"
       id="path5279"
       inkscape:connector-curvature="0"
       sodipodi:nodetypes="cssccsscc" />
  </g>
</svg>
