<?xml version="1.0" encoding="UTF-8" standalone="no"?>
<!-- Created with Inkscape (http://www.inkscape.org/) -->

<svg
   xmlns:dc="http://purl.org/dc/elements/1.1/"
   xmlns:cc="http://creativecommons.org/ns#"
   xmlns:rdf="http://www.w3.org/1999/02/22-rdf-syntax-ns#"
   xmlns:svg="http://www.w3.org/2000/svg"
   xmlns="http://www.w3.org/2000/svg"
   xmlns:sodipodi="http://sodipodi.sourceforge.net/DTD/sodipodi-0.dtd"
   xmlns:inkscape="http://www.inkscape.org/namespaces/inkscape"
   width="1000"
   height="1000"
   viewBox="0 0 1000 1000"
   id="svg4289"
   version="1.1"
   inkscape:version="0.91 r13725"
   sodipodi:docname="eon.svg">
  <defs
     id="defs4291" />
  <sodipodi:namedview
     id="base"
     pagecolor="#ffffff"
     bordercolor="#666666"
     borderopacity="1.0"
     inkscape:pageopacity="0.0"
     inkscape:pageshadow="2"
     inkscape:zoom="0.49497474"
     inkscape:cx="313.46641"
     inkscape:cy="552.24084"
     inkscape:document-units="px"
     inkscape:current-layer="layer1"
     showgrid="true"
     units="px"
     inkscape:window-width="1280"
     inkscape:window-height="748"
     inkscape:window-x="-8"
     inkscape:window-y="-8"
     inkscape:window-maximized="1"
     showguides="true"
     inkscape:guide-bbox="true">
    <sodipodi:guide
       position="0,200"
       orientation="0,1"
       id="guide4889"
       inkscape:label="Baseline"
       inkscape:color="rgb(0,0,255)" />
    <inkscape:grid
       type="xygrid"
       id="grid4150" />
  </sodipodi:namedview>
  <metadata
     id="metadata4294">
    <rdf:RDF>
      <cc:Work
         rdf:about="">
        <dc:format>image/svg+xml</dc:format>
        <dc:type
           rdf:resource="http://purl.org/dc/dcmitype/StillImage" />
        <dc:title></dc:title>
      </cc:Work>
    </rdf:RDF>
  </metadata>
  <g
     inkscape:label="Layer 1"
     inkscape:groupmode="layer"
     id="layer1"
     transform="translate(0,-52.36222)">
    <g
       id="layer1-6"
       inkscape:label="Layer 1"
       transform="translate(-130.28416,27.046177)">
      <path
         sodipodi:nodetypes="ccccsccccscccccccc"
         style="font-style:normal;font-variant:normal;font-weight:900;font-stretch:normal;font-size:445.64938354px;line-height:125%;font-family:'Source Han Serif KR';-inkscape-font-specification:'Source Han Serif KR Heavy';letter-spacing:0px;word-spacing:0px;fill:#000000;fill-opacity:1;stroke:none;stroke-width:1px;stroke-linecap:butt;stroke-linejoin:miter;stroke-opacity:1"
         d="m 456.55868,454.45419 c -20.3185,1.3546 -74.30581,4.0025 -112.38191,4.9788 47.8457,-101.0471 75.0637,-168.49333 84.0772,-221.20923 -10.3959,-30.1908 -9.95383,-56.1307 -107.51713,-96.5764 -22.7233,-8.029 -34.4521,-10.2667 -42.2432,5.3472 -6.4849,12.9963 10.4017,32.0263 -3.8334,76.5179 -15.8772,83.5308 -55.92677,173.69843 -87.82867,219.83823 -11.3062,17.0407 -27.8166,23.6729 -44.387,30.1851 -13.8644,86.585 48.30926,104.52935 113.89226,109.56475 7.873,-0.6384 44.80254,-33.86585 76.12074,-35.64075 31.40453,-1.77979 48.47438,-4.61806 72.4966,-0.96861 15.32999,3.82486 24.0377,14.62396 17.79659,27.02227 -29.52591,58.66515 -37.20067,88.06928 -59.76936,135.0753 -10.96793,43.26271 -25.14819,135.5491 2.16649,163.61903 44.192,34.8948 89.93135,-20.48589 109.62285,-51.88019 79.2927,-127.1613 135.88524,-240.9023 144.32334,-333.3862 0,-9.0244 -30.7277,-32.3362 -38.7494,-35.3443 -60.48539,-26.17145 -76.57975,-45.89923 -123.786,2.8571 z"
         id="path10977-1-6"
         inkscape:connector-curvature="0" />
    </g>
  </g>
</svg>
