<?xml version="1.0" encoding="UTF-8" standalone="no"?>
<!-- Created with Inkscape (http://www.inkscape.org/) -->

<svg
   xmlns:dc="http://purl.org/dc/elements/1.1/"
   xmlns:cc="http://creativecommons.org/ns#"
   xmlns:rdf="http://www.w3.org/1999/02/22-rdf-syntax-ns#"
   xmlns:svg="http://www.w3.org/2000/svg"
   xmlns="http://www.w3.org/2000/svg"
   xmlns:sodipodi="http://sodipodi.sourceforge.net/DTD/sodipodi-0.dtd"
   xmlns:inkscape="http://www.inkscape.org/namespaces/inkscape"
   width="1000"
   height="1000"
   viewBox="0 0 1000 1000"
   id="svg4289"
   version="1.1"
   inkscape:version="0.91 r13725"
   sodipodi:docname="little_F.svg">
  <defs
     id="defs4291" />
  <sodipodi:namedview
     id="base"
     pagecolor="#ffffff"
     bordercolor="#666666"
     borderopacity="1.0"
     inkscape:pageopacity="0.0"
     inkscape:pageshadow="2"
     inkscape:zoom="0.35"
     inkscape:cx="-175.28159"
     inkscape:cy="617.54007"
     inkscape:document-units="px"
     inkscape:current-layer="layer1"
     showgrid="true"
     units="px"
     inkscape:window-width="1280"
     inkscape:window-height="748"
     inkscape:window-x="-8"
     inkscape:window-y="-8"
     inkscape:window-maximized="1"
     showguides="true"
     inkscape:guide-bbox="true">
    <sodipodi:guide
       position="0,200"
       orientation="0,1"
       id="guide4889"
       inkscape:label="Baseline"
       inkscape:color="rgb(0,0,255)" />
    <inkscape:grid
       type="xygrid"
       id="grid4150" />
  </sodipodi:namedview>
  <metadata
     id="metadata4294">
    <rdf:RDF>
      <cc:Work
         rdf:about="">
        <dc:format>image/svg+xml</dc:format>
        <dc:type
           rdf:resource="http://purl.org/dc/dcmitype/StillImage" />
        <dc:title />
      </cc:Work>
    </rdf:RDF>
  </metadata>
  <g
     inkscape:label="Layer 1"
     inkscape:groupmode="layer"
     id="layer1"
     transform="translate(0,-52.36222)">
    <g
       id="g8257"
       transform="translate(35.779233,379.02042)">
      <path
         sodipodi:nodetypes="csccccsscccccsccccc"
         inkscape:connector-curvature="0"
         id="path7542-2"
         d="m -20.471541,-269.9832 c -9.12361,17.50956 32.50586,60.6783 32.50586,107.79101 l 0,464.43221 c 1.73287,41.0441 0.53991,78.2108 0.51172,116.08984 0,63.1708 32.08704,95.25902 113.306641,96.26172 l 284.26004,-4.01172 c 9.0244,0 17.04504,-2.00593 22.05859,-7.01953 8.02169,-8.02173 18.04883,-32.08628 18.04883,-65.17578 0,-12.0325 -7.01749,-21.05635 -20.05274,-24.06445 -25.06776,-6.0163 -77.20904,-10.02809 -113.30664,-9.02539 l -44.11914,24.0664 c -57.15453,2.0054 -39.5992,4.01051 -94.74831,3.00781 -15.76661,0 -22.06236,-6.9062 -23.73633,-21.40429 2.209,-48.55825 -2.84571,-115.48936 -2.84571,-147.83008 l 0,-432.99275 4.01172,-63.17188 c 1.0027,-15.04066 -4.01121,-25.06652 -15.04101,-30.08008 -23.9328,-10.70676 -65.271191,-21.01742 -105.628911,-27.70312 -24.512138,-5.29873 -44.4026037,-1.40388 -55.22461,20.83008 z"
         style="font-style:normal;font-variant:normal;font-weight:900;font-stretch:normal;font-size:445.64938354px;line-height:125%;font-family:'Source Han Serif KR';-inkscape-font-specification:'Source Han Serif KR Heavy';letter-spacing:0px;word-spacing:0px;fill:#000000;fill-opacity:1;stroke:none;stroke-width:1px;stroke-linecap:butt;stroke-linejoin:miter;stroke-opacity:1" />
      <path
         inkscape:connector-curvature="0"
         id="path8237"
         d="m 339.92131,-284.38525 -35.09375,16.04297 c -45.122,3.00813 -91.20261,9.02614 -134.31917,8.02343 -27.0732,0 -73.196941,-3.00912 -107.289041,-9.02538 l -8.0215,16.04296 c -2.00542,4.01083 -2.005,9.02432 2.0058,13.03516 22.0597,26.07049 56.150801,55.15042 89.240341,73.19922 20.0542,-5.01355 58.1579,-12.03244 79.21476,-13.03516 37.10032,-3.00813 66.13295,-8.02343 103.23326,-8.02343 24.06507,0 78.21097,4.3e-4 96.25977,2.00586 11.02982,-7.01898 25.06836,-33.08816 25.06836,-61.16408 0,-9.0244 -5.01347,-18.05045 -13.03516,-21.05858 -19.05151,-7.01898 -65.17692,-14.03755 -97.26367,-16.04297 z"
         style="font-style:normal;font-variant:normal;font-weight:900;font-stretch:normal;font-size:445.64938354px;line-height:125%;font-family:'Source Han Serif KR';-inkscape-font-specification:'Source Han Serif KR Heavy';letter-spacing:0px;word-spacing:0px;fill:#000000;fill-opacity:1;stroke:none;stroke-width:1px;stroke-linecap:butt;stroke-linejoin:miter;stroke-opacity:1"
         sodipodi:nodetypes="ccccscccscscc" />
    </g>
  </g>
</svg>
