<?xml version="1.0" encoding="UTF-8" standalone="no"?>
<!-- Created with Inkscape (http://www.inkscape.org/) -->

<svg
   xmlns:dc="http://purl.org/dc/elements/1.1/"
   xmlns:cc="http://creativecommons.org/ns#"
   xmlns:rdf="http://www.w3.org/1999/02/22-rdf-syntax-ns#"
   xmlns:svg="http://www.w3.org/2000/svg"
   xmlns="http://www.w3.org/2000/svg"
   xmlns:sodipodi="http://sodipodi.sourceforge.net/DTD/sodipodi-0.dtd"
   xmlns:inkscape="http://www.inkscape.org/namespaces/inkscape"
   width="1000"
   height="1000"
   viewBox="0 0 1000 1000"
   id="svg4289"
   version="1.1"
   inkscape:version="0.91 r13725"
   sodipodi:docname="little_G.svg">
  <defs
     id="defs4291" />
  <sodipodi:namedview
     id="base"
     pagecolor="#ffffff"
     bordercolor="#666666"
     borderopacity="1.0"
     inkscape:pageopacity="0.0"
     inkscape:pageshadow="2"
     inkscape:zoom="0.24748737"
     inkscape:cx="76.069414"
     inkscape:cy="584.94293"
     inkscape:document-units="px"
     inkscape:current-layer="layer1"
     showgrid="false"
     units="px"
     inkscape:window-width="1280"
     inkscape:window-height="748"
     inkscape:window-x="-8"
     inkscape:window-y="-8"
     inkscape:window-maximized="1"
     showguides="true"
     inkscape:guide-bbox="true">
    <sodipodi:guide
       position="0,200"
       orientation="0,1"
       id="guide4889"
       inkscape:label="Baseline"
       inkscape:color="rgb(0,0,255)" />
    <inkscape:grid
       type="xygrid"
       id="grid4150" />
  </sodipodi:namedview>
  <metadata
     id="metadata4294">
    <rdf:RDF>
      <cc:Work
         rdf:about="">
        <dc:format>image/svg+xml</dc:format>
        <dc:type
           rdf:resource="http://purl.org/dc/dcmitype/StillImage" />
        <dc:title></dc:title>
      </cc:Work>
    </rdf:RDF>
  </metadata>
  <g
     inkscape:label="Layer 1"
     inkscape:groupmode="layer"
     id="layer1"
     transform="translate(0,-52.36222)">
    <g
       id="g9273"
       transform="translate(-4.2695634,-2.1833102e-7)">
      <path
         sodipodi:nodetypes="sccccccccccs"
         inkscape:connector-curvature="0"
         id="path4765-4-9"
         d="m 137.76283,-36.390453 c -7.41971,0.0267 -12.67152,3.28324 -16.81054,11.57812 -32.981835,128.685063 14.06975,311.998303 -53.597111,425.878913 -11.3062,17.0407 -27.81631,23.67335 -44.3867,30.18555 -6.04501,37.75185 5.43693,58.61335 25.74803,70.55468 88.180601,166.5766 82.614071,248.7113 109.391191,360.70703 48.85956,81.45272 153.17593,23.26788 126.90849,-74.86718 -11.552,-87.14226 -84.67443,-207.44724 -124.09767,-294.52669 -17.1164,-25.68418 -13.6159,-32.59718 10.32658,-59.6059 78.0006,-128.38487 74.54022,-216.82628 93.36734,-367.097883 -10.3959,-30.1908 -3.85271,-56.13048 -101.41601,-96.57618 -10.65155,-3.76359 -18.88679,-6.25405 -25.4336,-6.23046 z"
         style="font-style:normal;font-variant:normal;font-weight:900;font-stretch:normal;font-size:445.64938354px;line-height:125%;font-family:'Source Han Serif KR';-inkscape-font-specification:'Source Han Serif KR Heavy';letter-spacing:0px;word-spacing:0px;fill:#000000;fill-opacity:1;stroke:none;stroke-width:1px;stroke-linecap:butt;stroke-linejoin:miter;stroke-opacity:1" />
      <path
         style="font-style:normal;font-variant:normal;font-weight:900;font-stretch:normal;font-size:445.64938354px;line-height:125%;font-family:'Source Han Serif KR';-inkscape-font-specification:'Source Han Serif KR Heavy';letter-spacing:0px;word-spacing:0px;fill:#000000;fill-opacity:1;stroke:none;stroke-width:1px;stroke-linecap:butt;stroke-linejoin:miter;stroke-opacity:1"
         d="m 335.75273,-36.390453 c -7.41971,0.0267 -12.67152,3.28324 -16.81054,11.57812 -32.98183,128.685063 14.06975,311.998303 -53.59711,425.878913 -11.3062,17.0407 -27.81631,23.67335 -44.3867,30.18555 -6.04501,37.75185 5.43693,58.61335 25.74803,70.55468 88.1806,166.5766 82.61407,248.7113 109.39119,360.70703 48.85956,81.45272 153.17593,23.26788 126.90849,-74.86718 -11.552,-87.14226 -84.67443,-207.44724 -124.09767,-294.52669 -17.1164,-25.68418 -13.6159,-32.59718 10.32658,-59.6059 78.0006,-128.38487 74.54022,-216.82628 93.36734,-367.097883 -10.3959,-30.1908 -3.85271,-56.13048 -101.41601,-96.57618 -10.65155,-3.76359 -18.88679,-6.25405 -25.4336,-6.23046 z"
         id="path9271"
         inkscape:connector-curvature="0"
         sodipodi:nodetypes="sccccccccccs" />
    </g>
  </g>
</svg>
