<?xml version="1.0" encoding="UTF-8" standalone="no"?>
<!-- Created with Inkscape (http://www.inkscape.org/) -->

<svg
   xmlns:dc="http://purl.org/dc/elements/1.1/"
   xmlns:cc="http://creativecommons.org/ns#"
   xmlns:rdf="http://www.w3.org/1999/02/22-rdf-syntax-ns#"
   xmlns:svg="http://www.w3.org/2000/svg"
   xmlns="http://www.w3.org/2000/svg"
   xmlns:sodipodi="http://sodipodi.sourceforge.net/DTD/sodipodi-0.dtd"
   xmlns:inkscape="http://www.inkscape.org/namespaces/inkscape"
   width="1000"
   height="1000"
   viewBox="0 0 1000 1000"
   id="svg4289"
   version="1.1"
   inkscape:version="0.91 r13725"
   sodipodi:docname="little_Jz.svg">
  <defs
     id="defs4291" />
  <sodipodi:namedview
     id="base"
     pagecolor="#ffffff"
     bordercolor="#666666"
     borderopacity="1.0"
     inkscape:pageopacity="0.0"
     inkscape:pageshadow="2"
     inkscape:zoom="0.24748737"
     inkscape:cx="76.069414"
     inkscape:cy="906.82662"
     inkscape:document-units="px"
     inkscape:current-layer="layer1"
     showgrid="false"
     units="px"
     inkscape:window-width="1280"
     inkscape:window-height="748"
     inkscape:window-x="-8"
     inkscape:window-y="-8"
     inkscape:window-maximized="1"
     showguides="true"
     inkscape:guide-bbox="true">
    <sodipodi:guide
       position="0,200"
       orientation="0,1"
       id="guide4889"
       inkscape:label="Baseline"
       inkscape:color="rgb(0,0,255)" />
    <inkscape:grid
       type="xygrid"
       id="grid4150" />
  </sodipodi:namedview>
  <metadata
     id="metadata4294">
    <rdf:RDF>
      <cc:Work
         rdf:about="">
        <dc:format>image/svg+xml</dc:format>
        <dc:type
           rdf:resource="http://purl.org/dc/dcmitype/StillImage" />
        <dc:title></dc:title>
      </cc:Work>
    </rdf:RDF>
  </metadata>
  <g
     inkscape:label="Layer 1"
     inkscape:groupmode="layer"
     id="layer1"
     transform="translate(0,-52.36222)">
    <path
       inkscape:connector-curvature="0"
       id="path9601-8"
       d="m 374.98837,776.65231 -35.09375,16.04297 c -45.122,3.00813 -165.43762,9.02615 -208.55418,8.02344 -27.0732,0 -73.196936,-3.00913 -107.289036,-9.02539 l -8.0215,16.04297 c -2.0054,4.01084 -2.005,9.02431 2.0058,13.03515 22.0597,26.07049 16.1508,55.15042 49.24034,73.19922 20.0542,-5.01355 58.157896,-12.03244 79.214756,-13.03516 37.10032,-3.00813 180.36796,-8.02343 217.46827,-8.02343 24.06507,0 78.21097,4.3e-4 96.25977,2.00586 11.02982,-7.01898 25.06836,-33.08816 25.06836,-61.16407 0,-9.0244 -5.01347,-18.05046 -13.03516,-21.05859 -19.05151,-7.01898 -65.17692,-14.03755 -97.26367,-16.04297 z"
       style="font-style:normal;font-variant:normal;font-weight:900;font-stretch:normal;font-size:445.64938354px;line-height:125%;font-family:'Source Han Serif KR';-inkscape-font-specification:'Source Han Serif KR Heavy';letter-spacing:0px;word-spacing:0px;fill:#000000;fill-opacity:1;stroke:none;stroke-width:1px;stroke-linecap:butt;stroke-linejoin:miter;stroke-opacity:1"
       sodipodi:nodetypes="ccccscccscscc" />
    <g
       id="g9782"
       transform="translate(5.7140673,0)">
      <path
         sodipodi:nodetypes="ccccccccccc"
         inkscape:connector-curvature="0"
         id="path9471-2-7"
         d="m 158.34899,22.357799 c -8.46472,17.50956 30.15842,60.678306 30.15842,107.791011 4.41541,154.66069 2.99052,426.08169 1.90993,580.77158 2.37225,58.32129 6.86392,125.48918 12.97625,149.86523 l 71.63133,0 c 24.21968,-57.61057 39.44246,-159.66732 42.30272,-239.4271 1.83487,-127.09523 0.49126,-367.81939 0.49126,-498.87573 l 3.72208,-63.171861 c 0.93029,-15.04066 -3.72162,-25.06652 -13.95488,-30.08008 -22.20444,-10.70676 -60.55749,-21.01743 -98.00067,-27.7031304 -22.9675,-5.3699502 -42.33749,1.005892 -51.23644,20.8300804 z"
         style="font-style:normal;font-variant:normal;font-weight:900;font-stretch:normal;font-size:445.64938354px;line-height:125%;font-family:'Source Han Serif KR';-inkscape-font-specification:'Source Han Serif KR Heavy';letter-spacing:0px;word-spacing:0px;fill:#000000;fill-opacity:1;stroke:none;stroke-width:1px;stroke-linecap:butt;stroke-linejoin:miter;stroke-opacity:1" />
      <path
         style="font-style:normal;font-variant:normal;font-weight:900;font-stretch:normal;font-size:445.64938354px;line-height:125%;font-family:'Source Han Serif KR';-inkscape-font-specification:'Source Han Serif KR Heavy';letter-spacing:0px;word-spacing:0px;fill:#000000;fill-opacity:1;stroke:none;stroke-width:1px;stroke-linecap:butt;stroke-linejoin:miter;stroke-opacity:1"
         d="m 333.85275,132.9249 c 4.66726,36.70246 15.8727,52.10687 15.8727,99.21958 4.41541,154.66069 2.99052,142.25856 1.90994,296.94845 2.37224,58.32129 6.86392,125.48918 12.97624,149.86523 l 71.63133,0 c 24.21968,-57.61057 39.44246,-159.66732 42.30272,-239.4271 1.83488,-127.09523 0.49126,-83.99626 0.49126,-215.0526 l 3.72208,-63.17186 c 0.93029,-15.04066 -3.72161,-25.06652 -13.95487,-30.08008 -22.20444,-10.70676 -60.5575,-21.01743 -98.00068,-27.70313 -32.53005,-8.999718 -29.98673,6.81023 -36.95072,29.40151 z"
         id="path9701"
         inkscape:connector-curvature="0"
         sodipodi:nodetypes="ccccccccccc" />
      <path
         sodipodi:nodetypes="ccccccscsccccccccccc"
         inkscape:connector-curvature="0"
         id="path9705"
         d="m 6.9092395,124.3526 c -8.464723,17.50956 30.1583785,60.6783 30.1583785,107.79101 4.415411,154.66069 2.990522,118.01519 1.909934,272.70508 -4.997577,55.72815 -16.086975,102.06725 4.98609,132.87549 9.815497,14.34999 43.839055,25.33049 71.475908,32.32084 26.79262,4.88883 40.71378,-36.53376 83.32646,-35.91899 80.77047,-2.97739 102.54044,-6.83008 132.71293,-6.83008 22.32719,0 72.56279,4.3e-4 89.30815,2.00586 10.23326,-7.01898 23.258,-33.08815 23.258,-61.16406 0,-9.0244 -4.6514,-18.05047 -12.09379,-21.0586 -17.67566,-7.01898 -60.46999,-14.03754 -90.23957,-16.04296 l -32.55938,16.04296 c -43.0496,2.32603 -83.00357,4.65206 -132.53635,6.97809 -16.40092,0.37632 -19.64518,-9.15932 -16.81728,-26.21161 2.96427,-41.92648 4.68818,-73.48453 6.08937,-112.55749 1.83487,-127.09523 0.49107,-59.75421 0.49107,-190.81055 l 3.72201,-63.17187 c 0.93029,-15.04065 -3.72154,-25.06651 -13.9548,-30.08007 C 133.94193,120.51889 95.588862,110.20822 58.145684,103.52252 38.755075,100.10966 18.483831,98.721311 6.9092395,124.3526 Z"
         style="font-style:normal;font-variant:normal;font-weight:900;font-stretch:normal;font-size:445.64938354px;line-height:125%;font-family:'Source Han Serif KR';-inkscape-font-specification:'Source Han Serif KR Heavy';letter-spacing:0px;word-spacing:0px;fill:#000000;fill-opacity:1;stroke:none;stroke-width:1px;stroke-linecap:butt;stroke-linejoin:miter;stroke-opacity:1" />
    </g>
  </g>
</svg>
