<?xml version="1.0" encoding="UTF-8" standalone="no"?>
<!-- Created with Inkscape (http://www.inkscape.org/) -->

<svg
   xmlns:dc="http://purl.org/dc/elements/1.1/"
   xmlns:cc="http://creativecommons.org/ns#"
   xmlns:rdf="http://www.w3.org/1999/02/22-rdf-syntax-ns#"
   xmlns:svg="http://www.w3.org/2000/svg"
   xmlns="http://www.w3.org/2000/svg"
   xmlns:sodipodi="http://sodipodi.sourceforge.net/DTD/sodipodi-0.dtd"
   xmlns:inkscape="http://www.inkscape.org/namespaces/inkscape"
   width="1000"
   height="1000"
   viewBox="0 0 1000 1000"
   id="svg4289"
   version="1.1"
   inkscape:version="0.91 r13725"
   sodipodi:docname="little_K.svg">
  <defs
     id="defs4291" />
  <sodipodi:namedview
     id="base"
     pagecolor="#ffffff"
     bordercolor="#666666"
     borderopacity="1.0"
     inkscape:pageopacity="0.0"
     inkscape:pageshadow="2"
     inkscape:zoom="0.35"
     inkscape:cx="76.069414"
     inkscape:cy="746.56734"
     inkscape:document-units="px"
     inkscape:current-layer="layer1"
     showgrid="false"
     units="px"
     inkscape:window-width="1280"
     inkscape:window-height="748"
     inkscape:window-x="-8"
     inkscape:window-y="-8"
     inkscape:window-maximized="1"
     showguides="true"
     inkscape:guide-bbox="true">
    <sodipodi:guide
       position="0,200"
       orientation="0,1"
       id="guide4889"
       inkscape:label="Baseline"
       inkscape:color="rgb(0,0,255)" />
    <inkscape:grid
       type="xygrid"
       id="grid4150" />
  </sodipodi:namedview>
  <metadata
     id="metadata4294">
    <rdf:RDF>
      <cc:Work
         rdf:about="">
        <dc:format>image/svg+xml</dc:format>
        <dc:type
           rdf:resource="http://purl.org/dc/dcmitype/StillImage" />
        <dc:title></dc:title>
      </cc:Work>
    </rdf:RDF>
  </metadata>
  <g
     inkscape:label="Layer 1"
     inkscape:groupmode="layer"
     id="layer1"
     transform="translate(0,-52.36222)">
    <g
       id="g9360"
       transform="translate(1.5024613,0)">
      <path
         sodipodi:nodetypes="ccccscccacscc"
         style="font-style:normal;font-variant:normal;font-weight:900;font-stretch:normal;font-size:445.64938354px;line-height:125%;font-family:'Source Han Serif KR';-inkscape-font-specification:'Source Han Serif KR Heavy';letter-spacing:0px;word-spacing:0px;fill:#000000;fill-opacity:1;stroke:none;stroke-width:1px;stroke-linecap:butt;stroke-linejoin:miter;stroke-opacity:1"
         d="m 381.0653,7.186243 -35.09375,16.04297 c -45.122,3.00813 -180.59639,9.02615 -223.71289,8.02344 -27.0732,0 -73.196998,-3.00913 -107.289098,-9.02539 l -8.0215,16.04297 c -2.005419,4.01083 -2.005,9.02431 2.0058,13.03515 22.0597,26.07049 15.744698,55.150417 48.834296,73.199217 20.0542,-5.01355 58.157902,-12.03244 79.214702,-13.03516 37.1004,-3.00813 155.31119,-7.49562 233.03314,-8.02343 32.09282,-0.21794 78.21097,4.3e-4 96.25977,2.00586 11.02982,-7.018977 25.06836,-33.088157 25.06836,-61.164067 0,-9.0244 -5.01347,-18.05046 -13.03516,-21.05859 -19.05151,-7.01898 -65.17692,-14.03755 -97.26367,-16.04297 z"
         id="path8235"
         inkscape:connector-curvature="0" />
      <path
         sodipodi:nodetypes="ccccccccccsccccccc"
         inkscape:connector-curvature="0"
         id="path8564"
         d="m 139.71586,140.61097 c -16.72222,88.08527 -27.34784,127.35396 -57.43238,170.86531 -11.3062,17.0407 -7.615219,23.67335 -24.185619,30.18555 -13.1863,43.0854 7.04063,52.45066 36.69922,82.19336 l 79.214839,-13.03516 c 37.1004,-3.0081 117.37974,-11.00424 153.361,-1.96094 -11.39449,115.67524 -40.36592,200.91025 -77.01441,291.91406 -26.1146,32.7804 -30.0449,45.46679 -122.53246,44.1582 -38.5158,18.0651 -26.47952,53.27693 74.70507,75.95313 50.0626,9.4657 30.06121,129.46585 109.03711,74.80274 32.94286,-30.3825 68.86697,-152.35568 101.45117,-240.41798 32.5842,-88.06229 52.50519,-220.02825 51.84571,-311.63085 0,-9.0244 -5.01347,-18.05049 -13.03516,-21.05859 -19.05151,-7.019 -65.17692,-14.03747 -97.26367,-16.04297 l -35.09375,16.04297 -81.8649,4.98047 c 36.0561,-76.13228 38.4372,-99.33697 45.72932,-181.63485 C 186.3623,68.98837 87.66061,69.934417 139.71586,140.61097 Z"
         style="font-style:normal;font-variant:normal;font-weight:900;font-stretch:normal;font-size:445.64938354px;line-height:125%;font-family:'Source Han Serif KR';-inkscape-font-specification:'Source Han Serif KR Heavy';letter-spacing:0px;word-spacing:0px;fill:#000000;fill-opacity:1;stroke:none;stroke-width:1px;stroke-linecap:butt;stroke-linejoin:miter;stroke-opacity:1" />
    </g>
  </g>
</svg>
