<?xml version="1.0" encoding="UTF-8" standalone="no"?>
<!-- Created with Inkscape (http://www.inkscape.org/) -->

<svg
   xmlns:dc="http://purl.org/dc/elements/1.1/"
   xmlns:cc="http://creativecommons.org/ns#"
   xmlns:rdf="http://www.w3.org/1999/02/22-rdf-syntax-ns#"
   xmlns:svg="http://www.w3.org/2000/svg"
   xmlns="http://www.w3.org/2000/svg"
   xmlns:sodipodi="http://sodipodi.sourceforge.net/DTD/sodipodi-0.dtd"
   xmlns:inkscape="http://www.inkscape.org/namespaces/inkscape"
   width="1000"
   height="1000"
   viewBox="0 0 1000 1000"
   id="svg4289"
   version="1.1"
   inkscape:version="0.91 r13725"
   sodipodi:docname="little_L.svg">
  <defs
     id="defs4291" />
  <sodipodi:namedview
     id="base"
     pagecolor="#ffffff"
     bordercolor="#666666"
     borderopacity="1.0"
     inkscape:pageopacity="0.0"
     inkscape:pageshadow="2"
     inkscape:zoom="0.35"
     inkscape:cx="76.069414"
     inkscape:cy="603.71019"
     inkscape:document-units="px"
     inkscape:current-layer="layer1"
     showgrid="false"
     units="px"
     inkscape:window-width="1280"
     inkscape:window-height="748"
     inkscape:window-x="-8"
     inkscape:window-y="-8"
     inkscape:window-maximized="1"
     showguides="true"
     inkscape:guide-bbox="true">
    <sodipodi:guide
       position="0,200"
       orientation="0,1"
       id="guide4889"
       inkscape:label="Baseline"
       inkscape:color="rgb(0,0,255)" />
    <inkscape:grid
       type="xygrid"
       id="grid4150" />
  </sodipodi:namedview>
  <metadata
     id="metadata4294">
    <rdf:RDF>
      <cc:Work
         rdf:about="">
        <dc:format>image/svg+xml</dc:format>
        <dc:type
           rdf:resource="http://purl.org/dc/dcmitype/StillImage" />
        <dc:title></dc:title>
      </cc:Work>
    </rdf:RDF>
  </metadata>
  <g
     inkscape:label="Layer 1"
     inkscape:groupmode="layer"
     id="layer1"
     transform="translate(0,-52.36222)">
    <g
       id="g8360"
       transform="translate(0.0560564,-8.5003567)">
      <path
         sodipodi:nodetypes="cccccccccccccccsccc"
         style="font-style:normal;font-variant:normal;font-weight:900;font-stretch:normal;font-size:445.64938354px;line-height:125%;font-family:'Source Han Serif KR';-inkscape-font-specification:'Source Han Serif KR Heavy';letter-spacing:0px;word-spacing:0px;fill:#000000;fill-opacity:1;stroke:none;stroke-width:1px;stroke-linecap:butt;stroke-linejoin:miter;stroke-opacity:1"
         d="m 360.78634,320.82257 -35.09375,16.043 c -20.31847,1.3546 -107.37896,4.0025 -145.4551,4.9788 11.59927,-80.63343 33.39797,-190.73742 9.46092,-249.796204 C 180.83573,76.256796 160.9575,59.180257 110.35088,38.200857 87.62754,30.171857 90.184454,33.648443 82.393354,49.262343 58.236651,122.49865 85.950807,232.85869 59.401342,325.76207 c -11.3062,17.0407 -9.8166,23.6729 -26.387,30.1851 -13.1863,43.0854 7.0393,52.4511 36.6979,82.1938 l 79.214698,-13.0352 c 37.1004,-3.0081 162.6864,-11.0058 198.66766,-1.9625 1.53035,124.2918 9.37793,187.62594 -28.7715,277.62914 -26.11458,32.7804 -38.8231,31.58981 -58.77626,44.1583 -38.5158,18.0651 -82.4801,53.2777 18.70448,75.9539 50.06256,9.4657 40.06256,129.46571 119.03848,74.8026 17.62222,-37.09935 39.46669,-102.22737 49.91618,-142.38698 42.72101,-164.18582 24.69669,-244.36299 23.37919,-395.37606 0,-9.0244 -5.01347,-18.0505 -13.03516,-21.0586 -19.05151,-7.019 -65.17692,-14.0375 -97.26367,-16.043 z"
         id="path4181-7"
         inkscape:connector-curvature="0" />
      <path
         sodipodi:nodetypes="cccscccsc"
         style="font-style:normal;font-variant:normal;font-weight:900;font-stretch:normal;font-size:445.64938354px;line-height:125%;font-family:'Source Han Serif KR';-inkscape-font-specification:'Source Han Serif KR Heavy';letter-spacing:0px;word-spacing:0px;fill:#000000;fill-opacity:1;stroke:none;stroke-width:1px;stroke-linecap:butt;stroke-linejoin:miter;stroke-opacity:1"
         d="m 402.6996,80.349394 c -10.3959,-30.1908 10.43341,-61.844986 -87.12989,-102.290686 -22.7233,-8.029 -34.4521,-10.2667 -42.2432,5.3472 -9.3066,92.830118 -42.6701,289.659482 -91.61842,470.745712 C 140.06103,608.22655 71.759231,732.973 51.04791,798.15631 32.59352,836.81179 14.52189,871.6221 29.42375,887.39509 68.73661,903.66666 112.29388,857.59254 144.52208,829.71843 187.1028,780.38794 249.84206,612.82081 276.80932,526.55798 319.47105,390.09174 383.41564,165.94629 402.6996,80.349394 Z"
         id="path8301"
         inkscape:connector-curvature="0" />
    </g>
  </g>
</svg>
