<?xml version="1.0" encoding="UTF-8" standalone="no"?>
<!-- Created with Inkscape (http://www.inkscape.org/) -->

<svg
   xmlns:dc="http://purl.org/dc/elements/1.1/"
   xmlns:cc="http://creativecommons.org/ns#"
   xmlns:rdf="http://www.w3.org/1999/02/22-rdf-syntax-ns#"
   xmlns:svg="http://www.w3.org/2000/svg"
   xmlns="http://www.w3.org/2000/svg"
   xmlns:sodipodi="http://sodipodi.sourceforge.net/DTD/sodipodi-0.dtd"
   xmlns:inkscape="http://www.inkscape.org/namespaces/inkscape"
   width="1000"
   height="1000"
   viewBox="0 0 1000 1000"
   id="svg4289"
   version="1.1"
   inkscape:version="0.91 r13725"
   sodipodi:docname="little_N.svg">
  <defs
     id="defs4291" />
  <sodipodi:namedview
     id="base"
     pagecolor="#ffffff"
     bordercolor="#666666"
     borderopacity="1.0"
     inkscape:pageopacity="0.0"
     inkscape:pageshadow="2"
     inkscape:zoom="0.35"
     inkscape:cx="76.069414"
     inkscape:cy="603.71019"
     inkscape:document-units="px"
     inkscape:current-layer="layer1"
     showgrid="false"
     units="px"
     inkscape:window-width="1280"
     inkscape:window-height="748"
     inkscape:window-x="-8"
     inkscape:window-y="-8"
     inkscape:window-maximized="1"
     showguides="true"
     inkscape:guide-bbox="true">
    <sodipodi:guide
       position="0,200"
       orientation="0,1"
       id="guide4889"
       inkscape:label="Baseline"
       inkscape:color="rgb(0,0,255)" />
    <inkscape:grid
       type="xygrid"
       id="grid4150" />
  </sodipodi:namedview>
  <metadata
     id="metadata4294">
    <rdf:RDF>
      <cc:Work
         rdf:about="">
        <dc:format>image/svg+xml</dc:format>
        <dc:type
           rdf:resource="http://purl.org/dc/dcmitype/StillImage" />
        <dc:title></dc:title>
      </cc:Work>
    </rdf:RDF>
  </metadata>
  <g
     inkscape:label="Layer 1"
     inkscape:groupmode="layer"
     id="layer1"
     transform="translate(0,-52.36222)">
    <path
       style="font-style:normal;font-variant:normal;font-weight:900;font-stretch:normal;font-size:445.64938354px;line-height:125%;font-family:'Source Han Serif KR';-inkscape-font-specification:'Source Han Serif KR Heavy';letter-spacing:0px;word-spacing:0px;fill:#000000;fill-opacity:1;stroke:none;stroke-width:1px;stroke-linecap:butt;stroke-linejoin:miter;stroke-opacity:1"
       d="m 313.7362,20.614173 -15.09375,16.042969 c -45.122,3.00813 -123.77402,9.026147 -166.89062,8.023437 -27.0732,0 -73.196965,-3.00913 -107.289065,-9.02539 L 16.44128,51.698157 c -2.005413,4.010828 -2.00494,9.024317 2.00586,13.035157 22.0597,26.070489 18.150742,55.150416 51.240227,73.199216 20.0542,-5.01355 96.157973,-12.03243 117.214853,-13.03515 21.12982,-1.71323 -4.13007,-4.05346 54.7207,-5.77149 l 8.01172,1.28125 c -40.96588,80.00405 -71.22601,147.55701 -101.31055,191.06836 -11.3062,17.0407 -27.81827,23.67335 -44.38867,30.18555 -13.186299,43.0854 7.04063,52.45066 36.69922,82.19336 l 79.21484,-13.03516 c 37.1004,-3.0081 91.54218,-11.00424 127.52344,-1.96094 1.53035,124.2918 -36.74318,201.91087 -74.89258,291.91407 -26.1146,32.7804 -26.00429,47.4871 -134.65429,44.1582 -38.515799,18.0651 -26.47952,53.27692 74.70507,75.95312 50.0626,9.4657 30.06121,129.46585 109.03711,74.80274 32.94286,-30.3825 68.86697,-152.35567 101.45117,-240.41797 32.5842,-88.0623 62.50519,-220.02826 61.84571,-311.63086 0,-9.0244 -5.01347,-18.05049 -13.03516,-21.05859 -19.05151,-7.019 -65.17692,-14.03747 -97.26367,-16.04297 l -35.09375,16.04297 -56.02734,4.98047 c 51.45767,-77.73277 91.12845,-157.00843 109.81054,-201.8379 24.77412,-15.37806 41.53179,-35.974616 42.7793,-68.005854 0,-9.024404 -5.01347,-18.050464 -13.03516,-21.058594 C 403.94836,29.638162 345.82295,22.619593 313.7362,20.614173 Z"
       id="path8564"
       inkscape:connector-curvature="0"
       sodipodi:nodetypes="ccccsccccccccccccccsccccccccc" />
  </g>
</svg>
