<?xml version="1.0" encoding="UTF-8" standalone="no"?>
<!-- Created with Inkscape (http://www.inkscape.org/) -->

<svg
   xmlns:dc="http://purl.org/dc/elements/1.1/"
   xmlns:cc="http://creativecommons.org/ns#"
   xmlns:rdf="http://www.w3.org/1999/02/22-rdf-syntax-ns#"
   xmlns:svg="http://www.w3.org/2000/svg"
   xmlns="http://www.w3.org/2000/svg"
   xmlns:sodipodi="http://sodipodi.sourceforge.net/DTD/sodipodi-0.dtd"
   xmlns:inkscape="http://www.inkscape.org/namespaces/inkscape"
   width="1000"
   height="1000"
   viewBox="0 0 1000 1000"
   id="svg4289"
   version="1.1"
   inkscape:version="0.91 r13725"
   sodipodi:docname="u.svg">
  <defs
     id="defs4291" />
  <sodipodi:namedview
     id="base"
     pagecolor="#ffffff"
     bordercolor="#666666"
     borderopacity="1.0"
     inkscape:pageopacity="0.0"
     inkscape:pageshadow="2"
     inkscape:zoom="0.24748737"
     inkscape:cx="95.41508"
     inkscape:cy="522.86268"
     inkscape:document-units="px"
     inkscape:current-layer="layer1"
     showgrid="true"
     units="px"
     inkscape:window-width="1280"
     inkscape:window-height="748"
     inkscape:window-x="-8"
     inkscape:window-y="-8"
     inkscape:window-maximized="1"
     showguides="true"
     inkscape:guide-bbox="true">
    <sodipodi:guide
       position="0,200"
       orientation="0,1"
       id="guide4889"
       inkscape:label="Baseline"
       inkscape:color="rgb(0,0,255)" />
    <inkscape:grid
       type="xygrid"
       id="grid4150" />
  </sodipodi:namedview>
  <metadata
     id="metadata4294">
    <rdf:RDF>
      <cc:Work
         rdf:about="">
        <dc:format>image/svg+xml</dc:format>
        <dc:type
           rdf:resource="http://purl.org/dc/dcmitype/StillImage" />
        <dc:title></dc:title>
      </cc:Work>
    </rdf:RDF>
  </metadata>
  <g
     inkscape:label="Layer 1"
     inkscape:groupmode="layer"
     id="layer1"
     transform="translate(0,-52.36222)">
    <g
       id="layer1-4"
       inkscape:label="Layer 1"
       transform="matrix(0.65360965,0,0,0.84559484,-70.813191,138.96702)">
      <path
         inkscape:connector-curvature="0"
         id="path10128"
         d="M 819.49372,112.96718 C 810.4236,83.347061 756.9562,67.754866 671.83512,28.073707 c -19.82539,-7.87722 -30.05842,-10.07262 -36.85593,5.24613 -5.65788,12.750627 9.07517,31.420902 -3.34452,75.071483 -36.53058,97.86267 -108.87003,223.30742 -181.33331,356.40947 -68.33056,112.1142 -128.73476,189.0703 -242.98466,305.70526 -15.09164,25.62047 -91.60666,98.98379 -75.14734,115.55364 29.03865,13.51543 105.38623,3.28014 140.86043,-16.77283 186.37653,-119.33111 351.254,-314.28059 452.05939,-496.79175 58.4755,-102.42592 116.2913,-197.76809 94.40454,-259.52793 z"
         style="font-style:normal;font-variant:normal;font-weight:900;font-stretch:normal;font-size:445.64938354px;line-height:125%;font-family:'Source Han Serif KR';-inkscape-font-specification:'Source Han Serif KR Heavy';letter-spacing:0px;word-spacing:0px;fill:#000000;fill-opacity:1;stroke:none;stroke-width:1px;stroke-linecap:butt;stroke-linejoin:miter;stroke-opacity:1"
         sodipodi:nodetypes="ccsccccccc" />
      <path
         style="font-style:normal;font-variant:normal;font-weight:900;font-stretch:normal;font-size:445.64938354px;line-height:125%;font-family:'Source Han Serif KR';-inkscape-font-specification:'Source Han Serif KR Heavy';letter-spacing:0px;word-spacing:0px;fill:#000000;fill-opacity:1;stroke:none;stroke-width:1px;stroke-linecap:butt;stroke-linejoin:miter;stroke-opacity:1"
         d="m 184.44839,134.2501 c 17.80491,52.5983 77.38443,174.26859 243.06613,436.15348 82.4391,130.30742 136.9398,249.57374 212.37335,306.22727 86.97296,82.73282 240.81431,21.15475 207.38447,-94.52972 C 822.64132,740.74987 667.48571,538.43097 568.05783,429.76979 391.64294,236.97229 353.13614,181.40508 277.08905,110.0782 169.54032,39.493145 174.49538,97.924357 184.44839,134.2501 Z"
         id="path10840"
         inkscape:connector-curvature="0"
         sodipodi:nodetypes="csccscc" />
    </g>
  </g>
</svg>
