<?xml version="1.0" encoding="UTF-8" standalone="no"?>
<!-- Created with Inkscape (http://www.inkscape.org/) -->

<svg
   xmlns:dc="http://purl.org/dc/elements/1.1/"
   xmlns:cc="http://creativecommons.org/ns#"
   xmlns:rdf="http://www.w3.org/1999/02/22-rdf-syntax-ns#"
   xmlns:svg="http://www.w3.org/2000/svg"
   xmlns="http://www.w3.org/2000/svg"
   xmlns:sodipodi="http://sodipodi.sourceforge.net/DTD/sodipodi-0.dtd"
   xmlns:inkscape="http://www.inkscape.org/namespaces/inkscape"
   width="1000"
   height="1000"
   viewBox="0 0 1000 1000"
   id="svg4289"
   version="1.1"
   inkscape:version="0.91 r13725"
   sodipodi:docname="ui.svg">
  <defs
     id="defs4291" />
  <sodipodi:namedview
     id="base"
     pagecolor="#ffffff"
     bordercolor="#666666"
     borderopacity="1.0"
     inkscape:pageopacity="0.0"
     inkscape:pageshadow="2"
     inkscape:zoom="0.24748737"
     inkscape:cx="703.52692"
     inkscape:cy="522.86268"
     inkscape:document-units="px"
     inkscape:current-layer="layer1"
     showgrid="true"
     units="px"
     inkscape:window-width="1280"
     inkscape:window-height="748"
     inkscape:window-x="-8"
     inkscape:window-y="-8"
     inkscape:window-maximized="1"
     showguides="true"
     inkscape:guide-bbox="true">
    <sodipodi:guide
       position="0,200"
       orientation="0,1"
       id="guide4889"
       inkscape:label="Baseline"
       inkscape:color="rgb(0,0,255)" />
    <inkscape:grid
       type="xygrid"
       id="grid4150" />
  </sodipodi:namedview>
  <metadata
     id="metadata4294">
    <rdf:RDF>
      <cc:Work
         rdf:about="">
        <dc:format>image/svg+xml</dc:format>
        <dc:type
           rdf:resource="http://purl.org/dc/dcmitype/StillImage" />
        <dc:title></dc:title>
      </cc:Work>
    </rdf:RDF>
  </metadata>
  <g
     inkscape:label="Layer 1"
     inkscape:groupmode="layer"
     id="layer1"
     transform="translate(0,-52.36222)">
    <g
       id="layer1-2"
       inkscape:label="Layer 1"
       transform="translate(-140.90353,2.5170284)">
      <g
         transform="translate(69.628595,7.9714727)"
         id="g4159">
        <path
           style="font-style:normal;font-variant:normal;font-weight:900;font-stretch:normal;font-size:445.64938354px;line-height:125%;font-family:'Source Han Serif KR';-inkscape-font-specification:'Source Han Serif KR Heavy';letter-spacing:0px;word-spacing:0px;fill:#000000;fill-opacity:1;stroke:none;stroke-width:1px;stroke-linecap:butt;stroke-linejoin:miter;stroke-opacity:1"
           d="m 86.501185,170.95479 c -9.1236,17.50955 32.505805,60.67829 32.505805,107.791 4.7591,154.66069 3.2233,286.95789 2.0586,441.64778 -5.3866,55.72815 -17.3391,102.06724 5.3742,132.87544 10.5795,14.35 47.2514,25.3305 77.03949,32.3209 28.8781,4.8888 43.8829,-36.5338 89.8125,-35.919 87.0575,-2.9774 79.7171,-6.8301 112.2381,-6.8301 24.0651,0 78.211,4e-4 96.2598,2.0058 11.0298,-7.0189 25.0684,-33.08806 25.0684,-61.16398 0,-9.0244 -5.0135,-18.05047 -13.0352,-21.0586 -19.0515,-7.01898 -65.1769,-14.03754 -97.2637,-16.04296 l -35.0937,16.04296 c -29.6771,1.97848 4.8451,5.25051 -112.0479,6.97809 -17.6775,0.37632 -21.1743,-9.15932 -18.1263,-26.21161 3.195,-41.92648 5.0531,-73.48453 6.5634,-112.55749 1.9777,-127.09523 0.5293,-228.69691 0.5293,-359.75325 l 4.0117,-63.17186 c 1.0027,-15.04075 -4.0112,-25.06661 -15.041,-30.08017 -23.9328,-10.70676 -65.27119,-21.01743 -105.62889,-27.70313 -20.4774,-3.26189 -42.536405,-5.23798 -55.224605,20.83018 z"
           id="path9705-3"
           inkscape:connector-curvature="0"
           sodipodi:nodetypes="ccccccscsccccccccccc" />
        <path
           sodipodi:nodetypes="sscccccccss"
           style="font-style:normal;font-variant:normal;font-weight:900;font-stretch:normal;font-size:445.64938354px;line-height:125%;font-family:'Source Han Serif KR';-inkscape-font-specification:'Source Han Serif KR Heavy';letter-spacing:0px;word-spacing:0px;fill:#000000;fill-opacity:1;stroke:none;stroke-width:1px;stroke-linecap:butt;stroke-linejoin:miter;stroke-opacity:1"
           d="m 413.84171,279.08179 0,413.374 c 0,53.1437 6.0178,172.37015 16.0449,209.47045 l 77.2071,0 c 29.0786,-64.1735 46.125,-166.35365 46.125,-248.57595 l 0,-381.934 4.0117,-63.17191 c 1.0027,-15.0406 -4.0112,-25.0665 -15.041,-30.0801 -23.9328,-10.7067 -65.2716,-21.0182 -105.6294,-27.7039 -53.3719,-8.79149 -50.0577,10.9166 -55.2236,20.8307 -9.1236,17.5096 32.5053,60.678 32.5053,107.79071 z"
           id="path10854"
           inkscape:connector-curvature="0" />
      </g>
    </g>
  </g>
</svg>
