<?xml version="1.0" encoding="UTF-8" standalone="no"?>
<!-- Created with Inkscape (http://www.inkscape.org/) -->

<svg
   xmlns:dc="http://purl.org/dc/elements/1.1/"
   xmlns:cc="http://creativecommons.org/ns#"
   xmlns:rdf="http://www.w3.org/1999/02/22-rdf-syntax-ns#"
   xmlns:svg="http://www.w3.org/2000/svg"
   xmlns="http://www.w3.org/2000/svg"
   xmlns:sodipodi="http://sodipodi.sourceforge.net/DTD/sodipodi-0.dtd"
   xmlns:inkscape="http://www.inkscape.org/namespaces/inkscape"
   width="1024"
   height="1024"
   viewBox="0 0 270.93333 270.93334"
   version="1.1"
   id="svg8"
   inkscape:version="0.92.3 (2405546, 2018-03-11)"
   sodipodi:docname="JWEON.svg">
  <defs
     id="defs2" />
  <sodipodi:namedview
     id="base"
     pagecolor="#ffffff"
     bordercolor="#666666"
     borderopacity="1.0"
     inkscape:pageopacity="0.0"
     inkscape:pageshadow="2"
     inkscape:zoom="0.49497475"
     inkscape:cx="281.80375"
     inkscape:cy="496.42232"
     inkscape:document-units="px"
     inkscape:current-layer="layer2"
     showgrid="false"
     units="px"
     showguides="false"
     inkscape:window-width="1280"
     inkscape:window-height="747"
     inkscape:window-x="-8"
     inkscape:window-y="-8"
     inkscape:window-maximized="1" />
  <metadata
     id="metadata5">
    <rdf:RDF>
      <cc:Work
         rdf:about="">
        <dc:format>image/svg+xml</dc:format>
        <dc:type
           rdf:resource="http://purl.org/dc/dcmitype/StillImage" />
        <dc:title></dc:title>
      </cc:Work>
    </rdf:RDF>
  </metadata>
  <g
     inkscape:groupmode="layer"
     id="layer2"
     inkscape:label="圖層 2">
    <path
       style="fill:#000000;stroke-width:0.99999994"
       d="m 272.9668,30.703125 c -24.3109,-0.360993 -18.6322,20.743415 -27.5,34.662109 L 57.578125,350.22852 c -17.219691,26.80532 -81.741744,33.35404 14.316406,86.09179 96.058159,52.73775 105.010439,23.03853 124.074219,-4.26953 l 30.30469,-53.63672 v 164.75391 c -29.24164,34.09916 -26.5419,67.24372 1.19922,99.71289 27.74111,32.46918 84.4341,14.5565 127.09179,12.41211 l 104.24024,-13.13086 h 33.83789 c -12.8513,9.01871 -15.41588,24.81859 2.35351,49.69531 v 21.55469 H 391.96289 C 291.8351,720.70063 184.35877,705.94538 91.634766,735.44531 104.53828,782.25865 87.343201,838.82741 136.9707,856 227.82225,822.38957 300.10158,824.81717 390.95312,816.44922 h 104.04297 v 120.49219 c -0.49035,39.93112 131.33971,56.72987 128.28907,0 V 816.44922 h 169.70898 c 61.42178,-2.01619 81.45697,19.67521 111.07422,18.18555 67.62508,-3.40139 76.35049,-25.3065 82.625,-71.74219 10.19021,-75.41443 -13.13326,-49.62232 -89.6543,-49.48047 h -273.7539 v -39.2793 c 7.41353,-12.35233 -7.1712,-24.09567 -29.41211,-31.9707 h 116.26367 c 61.42178,-2.01619 81.45697,19.67521 111.07422,18.18555 67.62508,-3.40139 76.35049,-25.30455 82.625,-71.74024 10.19021,-75.41442 -13.13131,-49.62231 -89.65235,-49.48047 h -161.625 v -26.26367 h 124.24805 c 70.24324,0.0265 80.5087,19.70522 90.66406,-53.55469 11.21904,-80.93317 -13.13326,-49.62231 -89.65429,-49.48047 H 652.55859 v -26.26367 h 122.22852 c 70.24324,0.0265 80.50675,19.7033 90.66211,-53.55664 11.21903,-80.93316 -13.13131,-49.62036 -89.65234,-49.47851 H 652.55859 v -26.26563 h 141.42188 c 70.24324,0.0276 80.50674,19.70525 90.66211,-53.55469 11.21903,-80.93315 -13.13128,-49.62231 -89.65235,-49.48046 H 677.25195 l 28.54493,-37.23243 C 726.0721,87.552173 695.42026,78.095165 656.59766,63.345703 590.53974,38.249014 550.05071,34.393545 554.57422,89.607422 L 519.85938,151.22852 H 354.63086 l 27.15039,-48.05274 C 398.35311,61.842919 366.18738,59.035913 305.00195,37.892578 290.66162,32.937109 280.40891,30.813633 272.9668,30.703125 Z M 354.56445,254.26367 H 524.26953 V 280.5293 H 354.56445 Z m 0,129.30078 h 169.70508 v 26.26367 H 354.56445 Z m 0,129.29883 h 169.70508 v 26.26367 H 354.56445 Z"
       transform="scale(0.26458333)"
       id="rect22"
       inkscape:connector-curvature="0" />
  </g>
</svg>
