<?xml version="1.0" encoding="UTF-8" standalone="no"?>
<!-- Created with Inkscape (http://www.inkscape.org/) -->

<svg
   xmlns:dc="http://purl.org/dc/elements/1.1/"
   xmlns:cc="http://creativecommons.org/ns#"
   xmlns:rdf="http://www.w3.org/1999/02/22-rdf-syntax-ns#"
   xmlns:svg="http://www.w3.org/2000/svg"
   xmlns="http://www.w3.org/2000/svg"
   xmlns:sodipodi="http://sodipodi.sourceforge.net/DTD/sodipodi-0.dtd"
   xmlns:inkscape="http://www.inkscape.org/namespaces/inkscape"
   width="1024"
   height="1024"
   viewBox="0 0 270.93333 270.93334"
   version="1.1"
   id="svg8"
   inkscape:version="0.92.3 (2405546, 2018-03-11)"
   sodipodi:docname="YOU.svg">
  <defs
     id="defs2" />
  <sodipodi:namedview
     id="base"
     pagecolor="#ffffff"
     bordercolor="#666666"
     borderopacity="1.0"
     inkscape:pageopacity="0.0"
     inkscape:pageshadow="2"
     inkscape:zoom="0.35"
     inkscape:cx="649.10299"
     inkscape:cy="734.6669"
     inkscape:document-units="px"
     inkscape:current-layer="layer3"
     showgrid="false"
     units="px"
     showguides="true"
     inkscape:window-width="1280"
     inkscape:window-height="747"
     inkscape:window-x="-8"
     inkscape:window-y="-8"
     inkscape:window-maximized="1" />
  <metadata
     id="metadata5">
    <rdf:RDF>
      <cc:Work
         rdf:about="">
        <dc:format>image/svg+xml</dc:format>
        <dc:type
           rdf:resource="http://purl.org/dc/dcmitype/StillImage" />
        <dc:title></dc:title>
      </cc:Work>
    </rdf:RDF>
  </metadata>
  <g
     inkscape:groupmode="layer"
     id="layer3"
     inkscape:label="圖層 3">
    <path
       style="fill:#000000;stroke-width:0.99999994"
       d="M 677.93359 39.466797 C 663.5105 46.955734 613.8796 82.556292 649.70117 100.98047 C 684.52648 130.53553 663.48261 215.70303 650.62109 256.87109 C 635.65106 257.80923 613.58413 262.71932 583.33398 262.77539 L 571.46484 262.77539 C 573.57134 262.624 575.6629 262.41416 577.73242 262.12695 C 620.4994 263.83524 662.08984 175.23633 662.08984 175.23633 C 662.08984 175.23633 511.11161 133.53639 505.27148 72.693359 C 510.61237 32.767031 456.91325 57.603976 442.52734 65.164062 C 368.60232 104.10321 325.34384 143.43848 371.89648 175.53711 C 442.60365 221.02906 504.59927 259.24667 556.43164 262.77539 L 391.42773 262.77539 C 305.48383 229.80797 351.92622 324.55347 358.07617 365.81055 L 389.16016 365.81055 L 389.16016 506.61328 C 387.29108 579.85907 368.20201 667.51171 332.06836 727.56055 C 325.67901 722.11123 320.07484 717.13695 315.36328 712.8418 C 318.5901 704.02723 321.77292 695.41678 324.88281 687.23047 C 348.86159 626.69812 339.84314 556.05292 309.16016 528.35938 C 295.02946 528.93447 280.82727 529.17952 266.61523 529.32227 C 292.93845 498.03663 314.76818 463.33813 324.88281 436.71289 C 348.86159 376.18053 339.84314 305.53534 309.16016 277.8418 C 224.9807 281.26775 138.29873 273.36191 61.734375 297.7207 C 74.637871 344.53404 57.442773 401.1028 107.07031 418.27539 C 147.41081 403.35147 183.90468 393.82861 220.35938 390.7207 C 204.28513 448.84318 166.17516 499.63891 125.36523 534.76562 C 103.58972 537.49789 82.295046 541.6989 61.734375 548.24023 C 74.637871 595.05358 57.442773 651.62234 107.07031 668.79492 C 147.41081 653.871 183.90468 644.34619 220.35938 641.23828 C 192.41583 742.27866 122.17514 801.79562 50.933594 873.70117 C 82.235437 927.16467 83.640731 985.21992 156.89258 989.45703 C 203.07264 992.12824 243.90945 904.42221 279.27344 811.42188 C 307.72831 855.31055 382.31216 944.89096 520.6543 952.49219 L 674.20117 958.55273 C 735.62295 956.53655 840.50971 968.12638 870.12695 966.63672 C 937.752 963.23533 949.4314 941.49306 964.875 858.5293 C 980.31864 775.56557 824.46094 825.06989 762.08203 833.29297 L 555 837.33398 C 503.109 834.82314 450.18644 810.25431 405.98242 782.33984 C 416.88335 767.44446 426.60366 752.20492 435.26562 736.72461 C 435.94362 744.77508 437.61781 751.36148 440.0293 756.11914 C 487.61158 770.05804 526.31315 808.1872 567.16406 810.67383 C 610.78136 812.63805 659.70446 775.68195 645.94531 707.03125 L 645.94531 634.38281 L 776.22852 634.38281 L 776.22852 682.25391 L 686.22852 671.14258 C 672.11606 709.9293 672.64501 741.55057 680.0293 756.11914 C 727.61158 770.05804 766.31315 808.1872 807.16406 810.67383 C 850.78136 812.63805 899.70446 775.68195 885.94531 707.03125 L 885.94531 634.54688 C 946.49242 636.26083 956.23519 650.1575 965.8457 580.82812 C 976.9795 500.50982 953.05241 530.72166 877.89844 531.32422 C 874.22777 522.466 869.8354 513.43681 864.91602 503.73242 L 909.31445 445.53711 C 979.22597 356.33109 848.16267 295.62602 821.95898 332.77539 L 707.14258 332.77539 C 690.41514 326.35887 678.72061 324.79727 670.75 326.7207 C 671.51062 322.34182 672.25167 317.56972 672.98828 312.25586 C 673.66748 307.3562 674.21023 302.88607 674.625 298.77734 C 699.04318 311.06828 730.76581 321.23575 744.07617 300.38281 C 749.02156 295.03075 753.34585 289.74726 757.17188 284.38281 L 862.32422 284.38281 C 932.56746 284.40927 942.83292 304.08803 952.98828 230.82812 C 964.20732 149.89495 939.85502 181.20581 863.33398 181.34766 L 789.18945 181.34766 C 791.70674 163.1632 794.2396 142.23074 797.44531 117.40039 C 810.54973 63.711903 780.69494 56.749023 677.93359 39.466797 z M 193.42969 50.597656 C 177.75664 50.095293 155.35414 60.675261 146.8125 65.164062 C 72.887485 104.10321 29.628995 143.43848 76.181641 175.53711 C 156.85137 227.43883 226.18284 269.87582 282.01758 262.12695 C 324.7846 263.83524 366.375 175.23633 366.375 175.23633 C 366.375 175.23633 215.39674 133.53639 209.55664 72.693359 C 211.72638 56.473288 204.15335 50.941379 193.42969 50.597656 z M 656.59961 363.02734 C 659.75786 386.93022 670.98025 416.95451 673.79102 435.81055 L 784.94531 435.81055 L 741.42773 489.2168 C 747.81024 503.60736 767.0505 509.87254 773.84766 531.34766 L 645.94531 531.34766 L 645.94531 449.39648 C 682.18854 420.35312 557.81525 383.92418 532.58984 409.91797 L 498.87695 409.91797 L 498.87695 365.81055 L 582.32422 365.81055 C 624.09819 365.82628 644.65869 372.792 656.59961 363.02734 z M 498.87695 512.95312 L 536.22852 512.95312 L 536.22852 682.25391 L 464.63867 673.41602 C 484.72449 620.23694 494.72799 565.90969 498.87695 514.24805 L 498.87695 512.95312 z "
       transform="scale(0.26458333)"
       id="path51" />
  </g>
</svg>
