<?xml version="1.0" encoding="UTF-8" standalone="no"?>
<!-- Created with Inkscape (http://www.inkscape.org/) -->

<svg
   xmlns:dc="http://purl.org/dc/elements/1.1/"
   xmlns:cc="http://creativecommons.org/ns#"
   xmlns:rdf="http://www.w3.org/1999/02/22-rdf-syntax-ns#"
   xmlns:svg="http://www.w3.org/2000/svg"
   xmlns="http://www.w3.org/2000/svg"
   xmlns:sodipodi="http://sodipodi.sourceforge.net/DTD/sodipodi-0.dtd"
   xmlns:inkscape="http://www.inkscape.org/namespaces/inkscape"
   width="1024"
   height="1024"
   viewBox="0 0 270.93333 270.93334"
   version="1.1"
   id="svg8"
   inkscape:version="0.92.3 (2405546, 2018-03-11)"
   sodipodi:docname="YUIJZEON.svg">
  <defs
     id="defs2" />
  <sodipodi:namedview
     id="base"
     pagecolor="#ffffff"
     bordercolor="#666666"
     borderopacity="1.0"
     inkscape:pageopacity="0.0"
     inkscape:pageshadow="2"
     inkscape:zoom="0.175"
     inkscape:cx="19.428591"
     inkscape:cy="577.2003"
     inkscape:document-units="px"
     inkscape:current-layer="layer2"
     showgrid="false"
     units="px"
     showguides="false"
     inkscape:window-width="1280"
     inkscape:window-height="747"
     inkscape:window-x="-8"
     inkscape:window-y="-8"
     inkscape:window-maximized="1" />
  <metadata
     id="metadata5">
    <rdf:RDF>
      <cc:Work
         rdf:about="">
        <dc:format>image/svg+xml</dc:format>
        <dc:type
           rdf:resource="http://purl.org/dc/dcmitype/StillImage" />
        <dc:title />
      </cc:Work>
    </rdf:RDF>
  </metadata>
  <g
     inkscape:groupmode="layer"
     id="layer2"
     inkscape:label="圖層 2">
    <rect
       style="fill:#d35fbc;fill-opacity:1;stroke-width:0.43784472"
       id="rect3857"
       width="529.16669"
       height="529.16669"
       x="-142.17816"
       y="-154.0231"
       inkscape:export-xdpi="96"
       inkscape:export-ydpi="96" />
    <g
       id="g3867"
       transform="matrix(1.4767933,0,0,1.4767933,-96.406364,-98.105743)"
       inkscape:export-xdpi="96"
       inkscape:export-ydpi="96">
      <path
         inkscape:connector-curvature="0"
         id="path80"
         d="m 189.50223,27.817028 c -13.04976,0.209583 -5.00022,12.710336 -5.00022,12.710336 v 5.355746 c -20.94078,-0.582261 -39.64732,-0.822439 -57.78872,3.971332 3.41405,12.386029 -1.13546,20.404251 11.99514,24.947832 17.96511,-2.438868 32.25184,-3.589904 45.79358,-3.894336 v 17.274397 h -6.19755 c -9.80674,-0.01818 -30.22477,-3.902953 -39.89111,2.510439 2.56312,13.151356 1.32139,24.646336 2.27893,43.219536 v 71.53413 c -6.10274,0.23198 -12.13799,0.53715 -18.13532,0.93586 -7.73685,9.02207 -7.02254,17.79157 0.31729,26.38237 6.50628,7.61518 19.03007,4.75759 29.65246,3.61477 -7.59193,9.43162 -27.22005,10.73991 -27.22005,10.73991 0,0 7.56926,26.08043 20.68143,26.51879 13.11216,0.43836 29.16963,-1.34516 39.44048,-14.58567 8.71081,-11.22943 8.65054,-15.68824 -4.86585,-26.17049 11.89661,-0.94715 21.2629,-0.56126 35.86758,-0.38086 -14.00333,10.75464 -14.17719,15.18797 -5.36247,26.55135 10.27085,13.24051 26.32832,15.02403 39.44049,14.58567 13.11217,-0.43836 20.68142,-26.51879 20.68142,-26.51879 0,0 -22.71392,-1.51412 -28.72331,-13.0266 5.92062,1.50658 9.75165,3.53297 14.51591,3.29334 17.89247,-0.89995 20.20107,-6.69516 21.8612,-18.98127 2.65258,-19.63087 -3.28727,-13.34721 -22.75985,-13.10307 v -92.17836 c 7.08158,-12.13926 -6.27057,-27.567216 -14.72985,-27.722281 -5.88658,0.0122 -13.07558,2.763047 -22.88232,2.781226 h -6.75515 V 71.313081 c 5.70478,0.263994 11.61336,0.620676 17.93689,1.042832 16.25117,-0.53345 14.00077,3.070974 21.82916,2.543513 13.35676,-0.899951 16.04318,-4.427598 17.70331,-16.71371 2.69616,-19.953398 -3.47484,-13.129236 -23.72103,-13.091705 -11.98212,1.083808 -23.17384,1.382861 -33.74833,1.351338 v -5.917985 c 0,0 10.14332,-6.507697 -13.98519,-11.717114 -3.39307,-0.732575 -6.09354,-1.027517 -8.22895,-0.993222 z M 117.46321,42.298315 C 94.198523,46.729231 63.74961,41.47145 48.284,45.80456 c 3.414049,12.38603 -1.135488,30.377286 11.995132,34.920867 8.1271,-1.835422 12.226864,-2.742023 15.782498,-3.183268 v 44.583271 c -14.18455,-0.61092 -27.754381,-0.61902 -38.928371,2.67632 3.41405,12.38603 -1.135486,29.62074 11.995133,34.16432 8.986765,-2.2609 17.912376,-3.21477 26.933238,-3.57291 v 82.19085 l -27.970384,-2.93987 c -3.73392,10.26232 -3.59397,18.62878 -1.64021,22.48338 12.589475,3.688 26.987155,13.77634 37.795625,14.43426 11.540403,0.5197 26.374419,-9.25827 22.733979,-27.4221 v -88.70776 c 1.53275,0.0137 3.07062,0.0238 4.61833,0.0238 18.58519,0.007 22.81331,-0.078 25.50025,-19.46134 1.66971,-12.04513 0.36146,-14.69409 -4.70617,-14.69936 -7.91788,1.66282 -16.53652,2.13001 -25.41241,2.07687 V 76.907572 c 10.05721,-0.952643 13.09256,-4.788199 15.18875,-19.909896 1.6697,-12.04513 0.36145,-14.694091 -4.70618,-14.699361 z m 52.25831,73.145355 h 57.33293 v 7.10447 h -57.33293 z m 0,26.38133 h 57.33293 v 8.50439 h -57.33293 z m 0,27.78125 h 57.33293 v 8.50439 h -57.33293 z m 0,27.78125 h 57.33293 v 7.7339 c -20.46988,-0.18793 -39.41209,-0.41311 -57.33293,-0.28474 z"
         style="fill:#1a1a1a;stroke-width:0.26458332" />
      <path
         style="fill:#f2f2f2;stroke-width:0.26458332"
         d="m 179.38195,8.8998577 c -13.04976,0.209583 -5.00022,12.7103363 -5.00022,12.7103363 v 5.355745 c -20.94078,-0.582261 -39.64732,-0.822439 -57.78872,3.971332 3.41406,12.386029 -1.13546,20.404251 11.99515,24.947832 17.9651,-2.438868 32.25183,-3.589904 45.79357,-3.894336 v 17.274397 h -6.19755 c -9.80674,-0.01818 -30.22477,-3.902953 -39.8911,2.510441 2.56311,13.151408 1.32139,24.646387 2.27892,43.219585 v 71.53413 c -6.10273,0.23198 -12.13799,0.53715 -18.13532,0.93586 -7.73685,9.02207 -7.02253,17.79157 0.31729,26.38237 6.50628,7.61518 19.03007,4.75759 29.65246,3.61477 -7.59193,9.43162 -27.22005,10.73991 -27.22005,10.73991 0,0 7.56927,26.08043 20.68143,26.51879 13.11216,0.43836 29.16963,-1.34516 39.44048,-14.58567 8.71081,-11.22943 8.65054,-15.68824 -4.86585,-26.17049 11.89661,-0.94715 21.2629,-0.56126 35.86758,-0.38086 -14.00333,10.75464 -14.17719,15.18797 -5.36247,26.55135 10.27085,13.24051 26.32832,15.02403 39.44049,14.58567 13.11217,-0.43836 20.68142,-26.51879 20.68142,-26.51879 0,0 -22.71392,-1.51412 -28.72331,-13.0266 5.92062,1.50658 9.75165,3.53297 14.51591,3.29334 17.89247,-0.89995 20.20107,-6.69516 21.8612,-18.98127 2.65258,-19.63087 -3.28727,-13.34721 -22.75985,-13.10307 V 94.206278 c 7.08158,-12.139263 -6.27057,-27.567275 -14.72985,-27.72234 -5.88658,0.0122 -13.07558,2.763047 -22.88232,2.781226 h -6.75515 V 52.39591 c 5.70478,0.263994 11.61336,0.620676 17.93689,1.042832 16.25117,-0.53345 14.00077,3.070974 21.82916,2.543513 13.35676,-0.899951 16.04318,-4.427598 17.70331,-16.71371 2.69616,-19.953397 -3.47484,-13.129236 -23.72103,-13.091705 -11.98212,1.083808 -23.17384,1.382861 -33.74833,1.351338 v -5.917984 c 0,0 10.14332,-6.507697 -13.98519,-11.7171143 -3.39307,-0.732575 -6.09354,-1.027517 -8.22895,-0.993222 z M 107.34293,23.381145 C 84.078214,27.81206 53.629305,22.55428 38.163695,26.887389 c 3.414049,12.38603 -1.135488,30.377286 11.995132,34.920867 8.1271,-1.835422 12.226864,-2.742023 15.782498,-3.183268 v 44.583322 c -14.18455,-0.61092 -27.754381,-0.61902 -38.928371,2.67632 3.41405,12.38603 -1.135486,29.62074 11.995133,34.16432 8.986765,-2.2609 17.912376,-3.21477 26.933238,-3.57291 v 82.19085 l -27.970384,-2.93987 c -3.73392,10.26232 -3.59397,18.62878 -1.64021,22.48338 12.589475,3.688 26.987155,13.77634 37.795625,14.43426 11.540411,0.5197 26.374454,-9.25827 22.734013,-27.4221 V 136.5148 c 1.532745,0.0137 3.070614,0.0238 4.618321,0.0238 18.5852,0.007 22.81332,-0.078 25.50026,-19.46134 1.66971,-12.04513 0.36146,-14.69409 -4.70617,-14.69936 -7.91789,1.66282 -16.53653,2.13001 -25.412411,2.07687 V 57.990401 c 10.057201,-0.952643 13.092551,-4.788199 15.188741,-19.909896 1.6697,-12.04513 0.36145,-14.69409 -4.70618,-14.69936 z m 52.25831,73.145407 h 57.33293 v 7.104468 h -57.33293 z m 0,26.381328 h 57.33293 v 8.50439 h -57.33293 z m 0,27.78125 h 57.33293 v 8.50439 h -57.33293 z m 0,27.78125 h 57.33293 v 7.7339 c -20.46988,-0.18793 -39.41209,-0.41311 -57.33293,-0.28474 z"
         id="path3855"
         inkscape:connector-curvature="0" />
    </g>
  </g>
</svg>
