<?xml version="1.0" encoding="UTF-8" standalone="no"?>
<svg
   xmlns:dc="http://purl.org/dc/elements/1.1/"
   xmlns:cc="http://creativecommons.org/ns#"
   xmlns:rdf="http://www.w3.org/1999/02/22-rdf-syntax-ns#"
   xmlns:svg="http://www.w3.org/2000/svg"
   xmlns="http://www.w3.org/2000/svg"
   xmlns:sodipodi="http://sodipodi.sourceforge.net/DTD/sodipodi-0.dtd"
   xmlns:inkscape="http://www.inkscape.org/namespaces/inkscape"
   version="1.1"
   viewBox="0 -200 1000 1000"
   id="svg2"
   inkscape:version="0.91 r13725"
   sodipodi:docname="uni31$A1.hw_JzuyinSans-Regular.svg">
  <metadata
     id="metadata12">
    <rdf:RDF>
      <cc:Work
         rdf:about="">
        <dc:format>image/svg+xml</dc:format>
        <dc:type
           rdf:resource="http://purl.org/dc/dcmitype/StillImage" />
      </cc:Work>
    </rdf:RDF>
  </metadata>
  <defs
     id="defs10" />
  <sodipodi:namedview
     pagecolor="#ffffff"
     bordercolor="#666666"
     borderopacity="1"
     objecttolerance="10"
     gridtolerance="10"
     guidetolerance="10"
     inkscape:pageopacity="0"
     inkscape:pageshadow="2"
     inkscape:window-width="1280"
     inkscape:window-height="748"
     id="namedview8"
     showgrid="false"
     inkscape:zoom="0.944"
     inkscape:cx="503.98982"
     inkscape:cy="447.01738"
     inkscape:window-x="-8"
     inkscape:window-y="-8"
     inkscape:window-maximized="1"
     inkscape:current-layer="svg2" />
  <g
     transform="matrix(1 0 0 -1 0 800)"
     id="g4"
     style="fill:#ff0000">
    <path
       d="m 187.7,86 c 0,14 -2.80078,25.75 -8.40039,35.25 -5.59961,9.5 -12.5,14.25 -20.7002,14.25 -8.2002,0 -14.9502,-4.66699 -20.25,-14 -5.2998,-9.33301 -7.94922,-20.667 -7.94922,-34 0,-14 2.7998,-25.667 8.39941,-35 5.59961,-9.33301 12.5,-14 20.7002,-14 7.60059,0 14.2002,4.75 19.7998,14.25 5.59961,9.5 8.40039,20.583 8.40039,33.25 z m 278.9,589.5 c -0.39941,-69 -2.25,-154.417 -5.5498,-256.25 C 457.7504,317.417 453.65079,259.667 448.7504,246 433.07692,205.51728 393.67039,193.24858 358.7006,193 l -48.6006,1.5 -8.09961,55 c 20.4004,-2.33301 36.4004,-3.5 48,-3.5 23.4004,0 38.0996,3.25 44.0996,9.75 6,6.5 10.1006,15.25 12.3008,26.25 2.2002,11 4.59961,54.583 7.19922,130.75 2.60059,76.167 3.90039,145.417 3.90039,207.75 l -164.1,0 0,-654.5 -51,0 0,38 c -15.37817,-10.1924237 -26.6006,-14 -43.2002,-14 -57.69464,4.9879738 -78.684829,50.541614 -79.1006,99 0.538538,50.90309 25.76776,96.81972 81.5,98 20.79122,-1.71292 31.32537,-8.30874 40.8008,-19.5 l 0,453 -104.4,0 0,55 368.6,0 z"
       id="path6"
       style="fill:#000000"
       inkscape:connector-curvature="0"
       sodipodi:nodetypes="cssssssscccsccccsssccccccccccccccc" />
  </g>
</svg>
