<?xml version="1.0" encoding="UTF-8" standalone="no"?>
<svg
   xmlns:dc="http://purl.org/dc/elements/1.1/"
   xmlns:cc="http://creativecommons.org/ns#"
   xmlns:rdf="http://www.w3.org/1999/02/22-rdf-syntax-ns#"
   xmlns:svg="http://www.w3.org/2000/svg"
   xmlns="http://www.w3.org/2000/svg"
   xmlns:sodipodi="http://sodipodi.sourceforge.net/DTD/sodipodi-0.dtd"
   xmlns:inkscape="http://www.inkscape.org/namespaces/inkscape"
   version="1.1"
   viewBox="0 -200 1000 1000"
   id="svg2"
   inkscape:version="0.91 r13725"
   sodipodi:docname="uni312$B.hw_JzuyinSans-Regular.svg">
  <metadata
     id="metadata12">
    <rdf:RDF>
      <cc:Work
         rdf:about="">
        <dc:format>image/svg+xml</dc:format>
        <dc:type
           rdf:resource="http://purl.org/dc/dcmitype/StillImage" />
      </cc:Work>
    </rdf:RDF>
  </metadata>
  <defs
     id="defs10" />
  <sodipodi:namedview
     pagecolor="#ffffff"
     bordercolor="#666666"
     borderopacity="1"
     objecttolerance="10"
     gridtolerance="10"
     guidetolerance="10"
     inkscape:pageopacity="0"
     inkscape:pageshadow="2"
     inkscape:window-width="1280"
     inkscape:window-height="748"
     id="namedview8"
     showgrid="false"
     inkscape:zoom="0.6675088"
     inkscape:cx="205.69327"
     inkscape:cy="380.15139"
     inkscape:window-x="-8"
     inkscape:window-y="-8"
     inkscape:window-maximized="1"
     inkscape:current-layer="svg2" />
  <g
     transform="matrix(1 0 0 -1 0 800)"
     id="g4"
     style="fill:#000000">
    <path
       d="m 488.3,18 -107.7,0 c -36,0 -54,26 -54,78 l 0,529.5 -92.6992,0 C 232.7006,476.167 228.75041,370.583 222.0502,308.75 215.35,246.917 200.7006,189.25 178.1,135.75 155.5004,82.25 124.3002,34.5 84.5004,-7.5 L 43.1,31.5 c 33,32.667 60.7002,73.5 83.1006,122.5 22.3994,49 37.2002,101.083 44.3994,156.25 7.2002,55.167 11.4004,161.583 12.6006,315.25 l -109.8,0 0,51 407.399,0 0,-51 -103.5,0 0,-526.5 c 0,-19.667 6.5,-29.5 19.5,-29.5 l 91.5,-2 0,-49.5 z"
       id="path6"
       style="fill:#000000"
       inkscape:connector-curvature="0"
       sodipodi:nodetypes="cssccscccccccccccssccc" />
  </g>
</svg>
