<?xml version="1.0" standalone="no"?>
<!DOCTYPE svg PUBLIC "-//W3C//DTD SVG 1.1//EN" "http://www.w3.org/Graphics/SVG/1.1/DTD/svg11.dtd" >
<svg xmlns="http://www.w3.org/2000/svg" xmlns:xlink="http://www.w3.org/1999/xlink" version="1.1" viewBox="0 0 1024 1024">
  <g transform="matrix(1 0 0 -1 0 1024)">
   <path fill="currentColor"
d="M899 172q-35 44 -62.5 89t-47 96t-32.5 90.5t-24 100t-16 96t-14 104.5l-3 21q-26 -15 -70 -23.5t-78 -9.5q-19 2 -27.5 18.5t-4 35t19.5 26.5q80 -3 156 40q26 16 45.5 18t28.5 -7.5t13 -23t2 -27.5t-7 -22q7 -62 10 -91.5t12 -85t17.5 -88t23.5 -81t33.5 -83.5t45 -76
t60.5 -78q12 -17 11 -35t-14 -28q-22 -11 -42 -3t-36 27z" />
  </g>

</svg>
