<?xml version="1.0" standalone="no"?>
<!DOCTYPE svg PUBLIC "-//W3C//DTD SVG 1.1//EN" "http://www.w3.org/Graphics/SVG/1.1/DTD/svg11.dtd" >
<svg xmlns="http://www.w3.org/2000/svg" xmlns:xlink="http://www.w3.org/1999/xlink" version="1.1" viewBox="0 0 1024 1000">
  <g transform="matrix(1 0 0 -1 0 1000)">
   <path fill="currentColor"
d="M609 80q-44 14 -81 44t-73 60q-14 16 -12 38l10 20q14 13 36 11q30 -21 58 -45t60 -42q26 30 56 80.5t53 137.5t31 177l-432 4q-19 1 -30 14.5t-2 52.5t26.5 94.5t41.5 109.5l-115 2q-38 -2 -66 16q-12 14 -10 36l10 20q18 14 42 10l648 -8l20 -10q12 -14 10 -36l-10 -20
q-16 -12 -36 -14l-403 4q-22 -44 -41 -90.5t-31 -96.5l384 -10q34 2 59 -5.5t16 -64.5q-8 -122 -47.5 -238.5t-77.5 -167t-53 -71.5t-41 -12z" />
  </g>

</svg>
