<?xml version="1.0" standalone="no"?>
<!DOCTYPE svg PUBLIC "-//W3C//DTD SVG 1.1//EN" "http://www.w3.org/Graphics/SVG/1.1/DTD/svg11.dtd" >
<svg xmlns="http://www.w3.org/2000/svg" xmlns:xlink="http://www.w3.org/1999/xlink" version="1.1" viewBox="0 0 1024 1000">
  <g transform="matrix(1 0 0 -1 0 1000)">
   <path fill="currentColor"
d="M468.682 932.828l21.4141 -6.43555q17.2114 -17.314 17.7109 -43.6152q-44.5501 -185.568 -132.08 -379.688q54.1183 -76.0558 160.27 -250.852q9.87939 -21.4336 1.12109 -44.1328l-13.8281 -17.5723q-16.1323 -8.93018 -37.2773 -2.5332l-19.127 16.1914
q-111.098 181.463 -132.006 213.285q-33.0658 -65.4479 -65.8926 -118.834q-78.6404 -127.895 -124.645 -172.244q-13.0317 -18.498 -35.3516 -24.3984q-16.1064 -0.762207 -29.6387 7.04102q-14.5571 13.7144 -16.3457 35.7324l6.4375 21.4141
q117.844 135.613 213.201 327.17q-106.516 146.829 -235.932 249.869q-10.4844 18.4956 -3.88672 40.6191l13.8301 17.5703q18.0908 8.52783 39.2344 2.13086q24.2568 -11.1221 42.2891 -30.1504q100.439 -92.6649 183.135 -197.564q76.8578 174.399 112.619 340.822
q11.7441 14.2153 34.748 16.1738z" />
  </g>

</svg>
