<?xml version="1.0" standalone="no"?>
<!DOCTYPE svg PUBLIC "-//W3C//DTD SVG 1.1//EN" "http://www.w3.org/Graphics/SVG/1.1/DTD/svg11.dtd" >
<svg xmlns="http://www.w3.org/2000/svg" xmlns:xlink="http://www.w3.org/1999/xlink" version="1.1" viewBox="0 0 1024 1024">
  <g transform="matrix(1 0 0 -1 0 1024)">
   <path fill="currentColor"
d="M734 976q3 0 5 -1l21 -10q14 -31 18 -65q6 -27 13 -68q37 -2 72 -5q52 -3 99 -18q12 -15 10 -38l-10 -20q-18 -12 -43 -12q-41 4 -82 7q-4 0 -33 1q11 -66 20 -104q11 -43 14 -90q-3 -37 -49 -32q-85 36 -144.5 -3t-58.5 -128q0 -29 2.5 -51t9.5 -51t18.5 -49t33.5 -37.5
t52 -25.5q55 -14 116 46q12 12 25.5 15t22.5 -1.5t14.5 -14t2.5 -24t-16 -29.5q-32 -39 -81 -57.5t-93 -10.5q-51 9 -87.5 37t-56 68.5t-28.5 85.5t-9 98q1 111 68 178.5t168 49.5q-8 37 -12 67q-5 27 -11 67q-125 4 -221 -4l-20 10q-12 16 -11 39l11 22q41 14 87 14
q108 2 138 2q-12 66 -19 108l11 21q14 13 33 13z" />
  </g>

</svg>
