<?xml version="1.0" standalone="no"?>
<!DOCTYPE svg PUBLIC "-//W3C//DTD SVG 1.1//EN" "http://www.w3.org/Graphics/SVG/1.1/DTD/svg11.dtd" >
<svg xmlns="http://www.w3.org/2000/svg" xmlns:xlink="http://www.w3.org/1999/xlink" version="1.1" viewBox="0 0 1024 1024">
  <g transform="matrix(1 0 0 -1 0 1024)">
   <path fill="currentColor"
d="M858 926h5l21 -11q14 -18 12 -45q-1 -21 -1 -171h27q23 0 41 -12q14 -16 12 -39l-10 -20q-20 -14 -49 -11q-5 0 -12.5 0.5t-10.5 0.5q-4 -61 -15 -115q-2 -7 -7.5 -27.5t-10 -32t-15 -29.5t-24.5 -34q-26 -18 -45.5 -14.5t-25.5 25.5t7 46q15 15 25.5 36t15.5 36t12 43
q3 31 4 66h-184q-4 -158 -2 -224q0 -28 4 -54t12 -53.5t24.5 -47.5t39.5 -28q33 -11 66.5 -14t56 -0.5t59 8.5t57.5 8q16 -6 22.5 -18.5t5 -25t-7.5 -24.5q-51 -20 -107.5 -26.5t-103.5 -1.5t-83 19t-61.5 42t-38 64.5t-18 68.5t-7.5 70q0 46 2.5 125t3.5 112q-37 0 -45 -1
l-20 11q-12 16 -11 39l11 20l20 10h45q-1 99 -13 190l11 20q16 12 39 11l21 -11q16 -47 18 -102q2 -47 1 -108q43 0 92.5 1t92.5 1q0 23 -1 87.5t-1 100.5q2 16 12 28q13 11 32 11z" />
  </g>

</svg>
