<?xml version="1.0" standalone="no"?>
<!DOCTYPE svg PUBLIC "-//W3C//DTD SVG 1.1//EN" "http://www.w3.org/Graphics/SVG/1.1/DTD/svg11.dtd" >
<svg xmlns="http://www.w3.org/2000/svg" xmlns:xlink="http://www.w3.org/1999/xlink" version="1.1" viewBox="0 0 1024 1000">
  <g transform="matrix(1 0 0 -1 0 1000)">
   <path fill="currentColor"
d="M649 74q-30 10 -54 31t-48 45q-14 16 -12 38l10 20q14 12 36 10q34 -24 66 -52q72 82 108 182.5t57 202.5l-259 10q-26 1 -34.5 11.5t-3.5 38.5q22 56 90 223l-405 -4q-16 2 -28 12q-12 14 -10 36l10 20l20 10l485 4q41 -9 30 -46q-26 -54 -92 -225q70 -2 138.5 -7
t114.5 -12t28 -59q-24 -106 -56 -212.5t-153 -264.5q-16 -12 -38 -12z" />
  </g>

</svg>
