<?xml version="1.0" standalone="no"?>
<!DOCTYPE svg PUBLIC "-//W3C//DTD SVG 1.1//EN" "http://www.w3.org/Graphics/SVG/1.1/DTD/svg11.dtd" >
<svg xmlns="http://www.w3.org/2000/svg" xmlns:xlink="http://www.w3.org/1999/xlink" version="1.1" viewBox="0 0 1024 1024">
  <g transform="matrix(1 0 0 -1 0 1024)">
   <path fill="currentColor"
d="M822 924h43h35h16q29 0 53 -13q12 -14 10 -37l-10 -20q-27 -16 -64 -12q-50 3 -135 2q-2 -56 -9 -109q-9 -72 -20 -136q15 0 73 1.5t126 2.5q33 -2 35 -24.5t-7 -95t-34 -172.5t-91 -184q-16 -12 -37 -14q-16 2 -29 12q-12 14 -10 37l10 20q35 37 55.5 91t37.5 118.5
t21 129.5q-96 4 -164 0q-43 -209 -115 -325q-24 -23 -48.5 -12t-25.5 42q68 139 105 291q-42 0 -105 4q-30 2 -42.5 14.5t-2.5 46t24.5 82t28.5 95.5q14 12 37 10l21 -10q15 -18 11 -45q-7 -29 -15.5 -56.5t-16.5 -56.5q45 -1 78 -1q22 115 29 242q-101 -3 -116 -2
q-39 -4 -72 12q-12 16 -10 39l10 20q33 16 74 11q62 2 246 2z" />
  </g>

</svg>
