<?xml version="1.0" standalone="no"?>
<!DOCTYPE svg PUBLIC "-//W3C//DTD SVG 1.1//EN" "http://www.w3.org/Graphics/SVG/1.1/DTD/svg11.dtd" >
<svg xmlns="http://www.w3.org/2000/svg" xmlns:xlink="http://www.w3.org/1999/xlink" version="1.1" viewBox="0 0 1024 1024">
  <g transform="matrix(1 0 0 -1 0 1024)">
   <path fill="currentColor"
d="M692 944h6l20 -10q12 -14 11 -37q-17 -66 -59.5 -179t-59.5 -176l117 -4q41 111 79 259q8 12 21.5 19.5t25.5 6.5l20 -10q14 -16 10 -41q-13 -37 -42 -124.5t-40.5 -119.5t-35.5 -94t-48 -114.5t-56 -114.5l212 2q-18 73 -22 135q-2 19 7 31.5t22 11.5q18 -1 37 -39
q13 -43 31.5 -122.5t29.5 -118.5q6 -19 1 -43t-22 -28q-38 -10 -52 49q-5 20 -11 45l-293 -3q-23 -1 -47 2t-29 13q-8 16 -8.5 27t6.5 17t15 9.5t20.5 7.5t19.5 8q74 144 117 249q-145 -1 -162 4q-16 5 -20 28t7 40q19 53 51.5 136.5t52 142t35.5 125.5q14 10 33 10z" />
  </g>

</svg>
