<?xml version="1.0" standalone="no"?>
<!DOCTYPE svg PUBLIC "-//W3C//DTD SVG 1.1//EN" "http://www.w3.org/Graphics/SVG/1.1/DTD/svg11.dtd" >
<svg xmlns="http://www.w3.org/2000/svg" xmlns:xlink="http://www.w3.org/1999/xlink" version="1.1" viewBox="0 0 1024 1000">
  <g transform="matrix(1 0 0 -1 0 1000)">
   <path fill="currentColor"
d="M661 66l-20 10q-10 12 -12 28l-4 339q-104 -16 -200.5 -39t-190.5 -49l-20 10q-14 16 -12 38l10 20q38 22 108 40q-6 270 -4 292l10 21q16 12 38 10l20 -10v-4q13 -47 11 -295q60 16 228 48l4 395l12 26q14 12 36 10l20 -10l10 -20l2 -830l-10 -20q-14 -12 -36 -10z" />
  </g>

</svg>
