<?xml version="1.0" standalone="no"?>
<!DOCTYPE svg PUBLIC "-//W3C//DTD SVG 1.1//EN" "http://www.w3.org/Graphics/SVG/1.1/DTD/svg11.dtd" >
<svg xmlns="http://www.w3.org/2000/svg" xmlns:xlink="http://www.w3.org/1999/xlink" version="1.1" viewBox="0 0 1024 1000">
  <g transform="matrix(1 0 0 -1 0 1000)">
   <path fill="currentColor"
d="M557 126q-70 4 -137 19t-108.5 53t-52.5 77.5t-14.5 109t-0.5 230.5h-100l-20 10q-12 16 -10 38l10 20l20 10h104q-6 155 -10 185l10 20q16 12 38 10l21 -10q16 -46 17 -99.5t3 -105.5h322l2 185q2 16 12 28q14 12 36 10l20 -10q14 -18 12 -44l-4 -167h161q22 0 40 -12
q14 -16 12 -38l-10 -20q-20 -14 -48 -10l-163 2q-2 -60 -20 -114t-80 -120q-18 -18 -44 -16l-20 10q-14 16 -10 40l12 22q19 17 43.5 49.5t31.5 62.5t9 64h-318q-3 -155 -0.5 -218.5t10.5 -90.5t39 -51.5t82 -36.5t109.5 -13.5t105 2t88.5 6.5t85 7l20 -10q12 -14 10 -36
l-10 -20q-40 -18 -89.5 -19t-107 -6t-108.5 -3z" />
  </g>

</svg>
