<?xml version="1.0" encoding="UTF-8" standalone="no"?>
<svg
   xmlns:dc="http://purl.org/dc/elements/1.1/"
   xmlns:cc="http://creativecommons.org/ns#"
   xmlns:rdf="http://www.w3.org/1999/02/22-rdf-syntax-ns#"
   xmlns:svg="http://www.w3.org/2000/svg"
   xmlns="http://www.w3.org/2000/svg"
   xmlns:sodipodi="http://sodipodi.sourceforge.net/DTD/sodipodi-0.dtd"
   xmlns:inkscape="http://www.inkscape.org/namespaces/inkscape"
   version="1.1"
   viewBox="0 0 1024 1024"
   id="svg14"
   sodipodi:docname="uni9F77_Untitled.svg"
   inkscape:version="0.92.3 (2405546, 2018-03-11)">
  <metadata
     id="metadata20">
    <rdf:RDF>
      <cc:Work
         rdf:about="">
        <dc:format>image/svg+xml</dc:format>
        <dc:type
           rdf:resource="http://purl.org/dc/dcmitype/StillImage" />
      </cc:Work>
    </rdf:RDF>
  </metadata>
  <defs
     id="defs18" />
  <sodipodi:namedview
     pagecolor="#ffffff"
     bordercolor="#666666"
     borderopacity="1"
     objecttolerance="10"
     gridtolerance="10"
     guidetolerance="10"
     inkscape:pageopacity="0"
     inkscape:pageshadow="2"
     inkscape:window-width="1280"
     inkscape:window-height="747"
     id="namedview16"
     showgrid="false"
     inkscape:zoom="0.53320312"
     inkscape:cx="525.06663"
     inkscape:cy="455.33167"
     inkscape:window-x="-8"
     inkscape:window-y="-8"
     inkscape:window-maximized="1"
     inkscape:current-layer="svg14"
     showguides="false" />
  <g
     transform="matrix(1,0,0,-1,7.501835,1024)"
     id="g36"
     style="fill:#000000" />
  <g
     transform="matrix(1,0,0,-1,-9.9609375e-6,1112.0968)"
     id="g564"
     style="fill:#00ff00" />
  <g
     transform="matrix(1,0,0,-1,4.8852539e-7,1048.5266)"
     id="g661"
     style="fill:#00ff00" />
  <g
     transform="matrix(1,0,0,-1,-2.2680664e-6,1055.8828)"
     id="g720"
     style="fill:#ff00ff" />
  <g
     id="g849"
     transform="matrix(1,0,0,-0.6119403,3.9892578e-6,1023.9552)"
     style="fill:#0000ff" />
  <g
     transform="matrix(1,0,0,-1,1.9750976e-7,1136.5275)"
     id="g901"
     style="fill:#ff00ff" />
  <g
     id="g1075"
     transform="matrix(1,0,0,-1,7.0263672e-6,575.76557)" />
  <g
     transform="matrix(1,0,0,-1,-5.2978516e-6,1059.5489)"
     id="g1841"
     style="fill:#ff00ff" />
  <g
     id="g2214"
     transform="matrix(1,0,0,-0.63829641,-2.4672852e-6,1009.2329)"
     style="fill:#0000ff" />
  <g
     id="g2501"
     transform="matrix(1,0,0,-0.59237924,2.3498535e-6,1008.0931)"
     style="fill:#0000ff" />
  <g
     style="fill:#000000"
     id="g2691"
     transform="matrix(1,0,0,-1,7.0263672e-6,1127.1502)">
    <path
       sodipodi:nodetypes="sccccccccccccccccccccs"
       inkscape:connector-curvature="0"
       id="path2689"
       transform="matrix(1,0,0,-1,-7.0263672e-6,575.76557)"
       d="m 918.39062,-77.207738 c -12.76041,-0.14583 -23.22396,3.28125 -31.39062,10.28125 -10.66667,25.333328 -16,52.666668 -16,81.999999 2.08888,189.391579 5.09185,159.711519 5.83984,297.548769 L 615,299.38791 626,-5.5495392 c 0,-17.9999978 -3.66667,-36.3333268 -11,-54.9999978 l -20,-11.000001 c -14.66667,-0.66667 -27.66667,3 -39,11.000001 -9.33333,12 -14,42.666671 -14,91.999998 l -6,302.937449 c -0.66667,11.33333 4,21.66667 14,31 9.33333,9.33333 19,14.33333 29,15 l 299.18359,13.38086 c 2.13199,8.42262 5.72857,16.3792 10.81641,23.86132 l 21,11 c 14.66667,1.33334 27,-2.33332 37,-11 l 10,-20 -2,-406.5565802 C 959,-30.92649 955.66667,-50.25982 945,-66.926488 l -21,-10 c -1.91667,-0.16667 -3.78646,-0.26042 -5.60938,-0.28125 z"
       style="fill:#000000" />
  </g>
</svg>
