<?xml version="1.0" encoding="UTF-8" standalone="no"?>
<svg
   xmlns:dc="http://purl.org/dc/elements/1.1/"
   xmlns:cc="http://creativecommons.org/ns#"
   xmlns:rdf="http://www.w3.org/1999/02/22-rdf-syntax-ns#"
   xmlns:svg="http://www.w3.org/2000/svg"
   xmlns="http://www.w3.org/2000/svg"
   xmlns:sodipodi="http://sodipodi.sourceforge.net/DTD/sodipodi-0.dtd"
   xmlns:inkscape="http://www.inkscape.org/namespaces/inkscape"
   version="1.1"
   viewBox="0 0 1024 1000"
   id="svg26"
   sodipodi:docname="uni9F6A_Untitled.svg"
   inkscape:version="0.92.3 (2405546, 2018-03-11)">
  <metadata
     id="metadata32">
    <rdf:RDF>
      <cc:Work
         rdf:about="">
        <dc:format>image/svg+xml</dc:format>
        <dc:type
           rdf:resource="http://purl.org/dc/dcmitype/StillImage" />
      </cc:Work>
    </rdf:RDF>
  </metadata>
  <defs
     id="defs30" />
  <sodipodi:namedview
     pagecolor="#ffffff"
     bordercolor="#666666"
     borderopacity="1"
     objecttolerance="10"
     gridtolerance="10"
     guidetolerance="10"
     inkscape:pageopacity="0"
     inkscape:pageshadow="2"
     inkscape:window-width="1280"
     inkscape:window-height="747"
     id="namedview28"
     showgrid="false"
     inkscape:zoom="0.546"
     inkscape:cx="715.09323"
     inkscape:cy="515.58592"
     inkscape:window-x="-8"
     inkscape:window-y="-8"
     inkscape:window-maximized="1"
     inkscape:current-layer="layer2"
     showguides="false" />
  <g
     inkscape:groupmode="layer"
     id="layer2"
     inkscape:label="Layer 2"
     style="display:inline">
    <g
       transform="matrix(1,0,0,-1,-144.7216,992.60898)"
       id="g3873" />
    <g
       id="g4079"
       transform="matrix(0.60543624,0,0,-1,-29.946974,988)"
       style="fill:#0000ff" />
    <g
       id="g4163"
       transform="matrix(0.6699392,0,0,-1,424.69426,974)"
       style="fill:#0000ff" />
    <g
       transform="matrix(1,0,0,-1,-361,994)"
       id="g4207"
       style="fill:#0000ff" />
    <g
       id="g4360"
       transform="matrix(0.69653165,0,0,-1,-74.580838,996)"
       style="fill:#0000ff" />
    <g
       transform="matrix(1,0,0,-1,-290.95604,998)"
       id="g4377" />
    <g
       transform="matrix(1,0,0,-1,-215,1000)"
       id="g4551" />
    <g
       transform="matrix(1,0,0,-1,-401,999.97802)"
       id="g4593"
       style="fill:#0000ff" />
    <g
       id="g4784"
       transform="matrix(1,0,0,-1,-96,1004)" />
    <g
       id="g4810"
       transform="matrix(1,0,0,-1,-348.68004,992.42008)"
       style="fill:#0000ff" />
    <g
       id="g4860"
       transform="matrix(1,0,0,-1,-225.80339,983.9102)"
       style="fill:#0000ff" />
    <g
       transform="matrix(0.70369312,0,0,-1,-88.613307,983.9102)"
       id="g4874"
       style="fill:#00ff00" />
    <g
       transform="matrix(0.67085847,0,0,-1,-51.399136,1000)"
       id="g5110"
       style="fill:#00ff00" />
    <g
       id="g5433"
       transform="matrix(1,0,0,-1,309,994)"
       style="fill:#0000ff" />
    <g
       transform="matrix(0.64432204,0,0,-1,428.21763,1012)"
       id="g5568"
       style="fill:#ff00ff" />
    <g
       id="g5654"
       transform="matrix(1,0,0,-1,288.88033,1018)" />
    <g
       transform="matrix(0.94467055,0.32802067,0.32802067,-0.94467055,52.218769,700.11305)"
       id="g5672"
       inkscape:transform-center-x="273.17019"
       inkscape:transform-center-y="-417.94009" />
    <g
       transform="matrix(1,0,0,-1,48.079586,1021.663)"
       id="g5676"
       style="fill:#ff00ff" />
    <g
       transform="matrix(0.65399698,0,0,-1,424.23952,987.34766)"
       id="g5878"
       style="fill:#0000ff" />
    <g
       id="g5911"
       transform="matrix(1,0,0,-1,361.62227,1008)"
       style="fill:#ff00ff" />
    <g
       id="g170"
       transform="matrix(1,0,0,-1,407,1010)"
       style="fill:#ff00ff" />
    <g
       transform="matrix(0.56229527,0,0,-1,463.90162,1010)"
       id="g184"
       style="fill:#00ff00" />
    <path
       style="fill:currentColor"
       inkscape:connector-curvature="0"
       d="m 841.26214,864 c -89.84432,-39.6689 -81.61087,-154.64129 -84.72896,-228 -2,-43.33333 0.33333,-208 7,-494 1.33333,-10.66667 5.33333,-20 12,-28 9.33333,-8 21.33333,-11.33333 36,-10 l 20,10 12,22 c -6,288.66667 -8.83333,451.66667 -8.5,489 -0.5616,40.7592 -6.68119,153.43834 41.22896,166 68.69074,11.22562 71.38685,6.28228 92.31464,5 l 20,10 c 8,9.33333 11.33333,21.33333 10,36 l -10,20 c -46.40967,26.04792 -106.76706,19.90295 -147.31464,2 z m -291.94388,4 -20,-10 c -8,-10.66667 -11.33333,-23.33333 -10,-38 62.0031,-126.46819 75.52037,-211.97168 90.26803,-395 8.94937,-111.06765 6.01282,-221 12.67949,-331 10.66667,-8 23.33333,-11.333333 38,-10 l 20,10 c 10.66667,25.33333 14,53.33333 10,84 -4,110 -2.59175,217.36435 -14.67949,323.5 -15.20566,133.51238 -26.33452,266.19464 -90.26803,356.5 -9.33333,8 -21.33333,11.33333 -36,10 z"
       id="path222"
       sodipodi:nodetypes="sccccccccccccscccsccccscc" />
  </g>
</svg>
