<?xml version="1.0" encoding="UTF-8" standalone="no"?>
<!-- Created with Inkscape (http://www.inkscape.org/) -->

<svg
   xmlns:dc="http://purl.org/dc/elements/1.1/"
   xmlns:cc="http://creativecommons.org/ns#"
   xmlns:rdf="http://www.w3.org/1999/02/22-rdf-syntax-ns#"
   xmlns:svg="http://www.w3.org/2000/svg"
   xmlns="http://www.w3.org/2000/svg"
   xmlns:sodipodi="http://sodipodi.sourceforge.net/DTD/sodipodi-0.dtd"
   xmlns:inkscape="http://www.inkscape.org/namespaces/inkscape"
   width="1000"
   height="1000"
   viewBox="0 0 1000 1000"
   id="svg4289"
   version="1.1"
   inkscape:version="0.91 r13725"
   sodipodi:docname="An.svg">
  <defs
     id="defs4291" />
  <sodipodi:namedview
     id="base"
     pagecolor="#ffffff"
     bordercolor="#666666"
     borderopacity="1.0"
     inkscape:pageopacity="0.0"
     inkscape:pageshadow="2"
     inkscape:zoom="0.35"
     inkscape:cx="-338.57143"
     inkscape:cy="616.94534"
     inkscape:document-units="px"
     inkscape:current-layer="layer1"
     showgrid="true"
     units="px"
     inkscape:window-width="1280"
     inkscape:window-height="748"
     inkscape:window-x="-8"
     inkscape:window-y="-8"
     inkscape:window-maximized="1"
     showguides="true"
     inkscape:guide-bbox="true">
    <sodipodi:guide
       position="0,200"
       orientation="0,1"
       id="guide4889"
       inkscape:label="Baseline"
       inkscape:color="rgb(0,0,255)" />
    <inkscape:grid
       type="xygrid"
       id="grid4150" />
  </sodipodi:namedview>
  <metadata
     id="metadata4294">
    <rdf:RDF>
      <cc:Work
         rdf:about="">
        <dc:format>image/svg+xml</dc:format>
        <dc:type
           rdf:resource="http://purl.org/dc/dcmitype/StillImage" />
        <dc:title />
      </cc:Work>
    </rdf:RDF>
  </metadata>
  <g
     inkscape:label="Layer 1"
     inkscape:groupmode="layer"
     id="layer1"
     transform="translate(0,-52.36222)">
    <g
       id="g4292"
       transform="translate(1055.4117,28.196089)">
      <path
         style="font-style:normal;font-variant:normal;font-weight:900;font-stretch:normal;font-size:445.64938354px;line-height:125%;font-family:'Source Han Serif KR';-inkscape-font-specification:'Source Han Serif KR Heavy';letter-spacing:0px;word-spacing:0px;fill:#000000;fill-opacity:1;stroke:none;stroke-width:1px;stroke-linecap:butt;stroke-linejoin:miter;stroke-opacity:1"
         d="m -308.62389,-14.34508 -35.0938,16.0429 c -45.122,3.0081 -436.22307,9.0262 -479.33957,8.0235 -27.0732,0 -73.197,-3.0092 -107.2891,-9.0254 l -8.0215,16.0429 c -2.00545,4.010877 -2.0049,9.024397 2.0059,13.035197 22.0597,26.070503 56.1507,55.150403 89.2402,73.199203 20.0542,-5.0135 58.158,-12.03239 79.2149,-13.03509 28.1628,-2.28351 268.20579,-1.64391 355.90629,-3.16381 23.9792,-1.885 33.59922,9.44243 28.54072,39.80923 -2.5468,95.53868 -54.79648,188.41578 -105.51125,261.58401 l 153.83737,-8.73538 c 54.17945,-72.64457 93.00559,-163.7035 111.82814,-247.61576 0,0 11.9667,-55.0892 9.9708,-85.6903 -0.7915,-12.1342 -2.1132,-39.0932 -15.1683,-44.4283 -19.0515,-7.019 -48.0341,-14.0375 -80.1208,-16.0429 z"
         id="path11042-6"
         inkscape:connector-curvature="0"
         sodipodi:nodetypes="ccccsccccccccscc" />
      <path
         sodipodi:nodetypes="cccccsccccscccccccc"
         style="font-style:normal;font-variant:normal;font-weight:900;font-stretch:normal;font-size:445.64938354px;line-height:125%;font-family:'Source Han Serif KR';-inkscape-font-specification:'Source Han Serif KR Heavy';letter-spacing:0px;word-spacing:0px;fill:#000000;fill-opacity:1;stroke:none;stroke-width:1px;stroke-linecap:butt;stroke-linejoin:miter;stroke-opacity:1"
         d="m -298.58013,360.34141 -35.0937,16.043 c -20.3185,1.3546 -347.047,4.0025 -385.1231,4.9788 47.8457,-101.0471 38.6576,-154.3512 47.6711,-207.0671 -10.3959,-30.1908 -3.8523,-56.1307 -101.4156,-96.5764 -22.7233,-8.029 -34.4521,-10.2667 -42.2432,5.3472 -6.4849,12.9963 10.4017,32.0263 -3.8334,76.5179 -15.8772,83.5308 -25.6222,159.5563 -57.5241,205.6961 -11.3062,17.0407 -27.8166,23.6729 -44.387,30.1851 -13.8644,86.585 64.4717,84.3263 130.0547,89.3617 7.873,-0.6384 28.6234,-13.9871 59.9583,-15.4377 116.327,-5.3851 376.3985,-13.8521 404.7443,-6.7279 -24.5096,117.6331 -71.05343,133.05485 -98.13193,185.75245 -26.2757,52.8108 -25.64238,56.48823 -17.80958,95.64493 1.9889,21.9739 14.6096,51.4054 32.0979,67.9741 44.192,34.8948 71.7486,-24.5265 91.4401,-55.9208 79.2927,-127.1613 138.59881,-254.75728 147.03691,-347.24118 0,-9.0244 -30.7277,-32.3362 -38.7494,-35.3443 -19.0515,-7.019 -56.6055,-11.1804 -88.6923,-13.1859 z"
         id="path10977-1"
         inkscape:connector-curvature="0" />
    </g>
  </g>
</svg>
