<?xml version="1.0" encoding="UTF-8" standalone="no"?>
<!-- Created with Inkscape (http://www.inkscape.org/) -->

<svg
   xmlns:dc="http://purl.org/dc/elements/1.1/"
   xmlns:cc="http://creativecommons.org/ns#"
   xmlns:rdf="http://www.w3.org/1999/02/22-rdf-syntax-ns#"
   xmlns:svg="http://www.w3.org/2000/svg"
   xmlns="http://www.w3.org/2000/svg"
   xmlns:sodipodi="http://sodipodi.sourceforge.net/DTD/sodipodi-0.dtd"
   xmlns:inkscape="http://www.inkscape.org/namespaces/inkscape"
   width="1000"
   height="1000"
   viewBox="0 0 1000 1000"
   id="svg4289"
   version="1.1"
   inkscape:version="0.91 r13725"
   sodipodi:docname="Au.svg">
  <defs
     id="defs4291" />
  <sodipodi:namedview
     id="base"
     pagecolor="#ffffff"
     bordercolor="#666666"
     borderopacity="1.0"
     inkscape:pageopacity="0.0"
     inkscape:pageshadow="2"
     inkscape:zoom="0.35"
     inkscape:cx="82.857143"
     inkscape:cy="616.94534"
     inkscape:document-units="px"
     inkscape:current-layer="layer1"
     showgrid="true"
     units="px"
     inkscape:window-width="1280"
     inkscape:window-height="748"
     inkscape:window-x="-8"
     inkscape:window-y="-8"
     inkscape:window-maximized="1"
     showguides="true"
     inkscape:guide-bbox="true">
    <sodipodi:guide
       position="0,200"
       orientation="0,1"
       id="guide4889"
       inkscape:label="Baseline"
       inkscape:color="rgb(0,0,255)" />
    <inkscape:grid
       type="xygrid"
       id="grid4150" />
  </sodipodi:namedview>
  <metadata
     id="metadata4294">
    <rdf:RDF>
      <cc:Work
         rdf:about="">
        <dc:format>image/svg+xml</dc:format>
        <dc:type
           rdf:resource="http://purl.org/dc/dcmitype/StillImage" />
        <dc:title></dc:title>
      </cc:Work>
    </rdf:RDF>
  </metadata>
  <g
     inkscape:label="Layer 1"
     inkscape:groupmode="layer"
     id="layer1"
     transform="translate(0,-52.36222)">
    <g
       id="g4267"
       transform="translate(33.620071,35.524819)">
      <path
         sodipodi:nodetypes="sscsccsccscsccccccccs"
         inkscape:connector-curvature="0"
         id="path9705-4"
         d="m 605.79983,-7.33843 c -9.7483,-0.015 -15.7544,3.5551 -19.3555,13.8496 -4.7958,13.7098 14.3539,30.46 5.8379,76.39061 -41.22624,77.71628 -108.96139,173.51734 -141.73379,248.90179 -18.9929,43.68821 -226.17983,307.33944 -266.16993,376.19615 l -51.54073,24.18108 c -5.3866,55.72815 -3.05259,53.49537 19.66071,84.30357 10.5795,14.35 47.25089,25.32993 77.03899,32.32033 28.8781,4.8888 43.8829,-36.53278 89.8125,-35.91798 87.0575,-2.9774 321.95006,-52.54437 354.47106,-52.54437 24.0651,0 78.2109,4.6e-4 96.2597,2.00586 11.0298,-7.0189 25.0684,-33.08815 25.0684,-61.16407 0,-9.0244 -5.0135,-18.05046 -13.0352,-21.05859 -19.0515,-7.01898 -65.1768,-14.03755 -97.2636,-16.04297 l -35.0938,16.04297 c -29.6771,1.97848 -120.24569,22.39184 -237.13869,24.11942 -15.0136,0.31961 -19.7759,-6.53253 -19.0097,-19.04492 C 464.56771,572.65479 535.1142,464.98132 604.55807,361.12561 651.17048,266.18241 754.79146,186.45 760.45213,78.91349 c -14.1169,-28.6404 -30.8936,-55.19832 -132.7754,-83.02932 -8.8327,-1.9132 -16.028,-3.2134 -21.8769,-3.2226 z"
         style="font-style:normal;font-variant:normal;font-weight:900;font-stretch:normal;font-size:445.64938354px;line-height:125%;font-family:'Source Han Serif KR';-inkscape-font-specification:'Source Han Serif KR Heavy';letter-spacing:0px;word-spacing:0px;fill:#000000;fill-opacity:1;stroke:none;stroke-width:1px;stroke-linecap:butt;stroke-linejoin:miter;stroke-opacity:1" />
      <path
         style="font-style:normal;font-variant:normal;font-weight:900;font-stretch:normal;font-size:445.64938354px;line-height:125%;font-family:'Source Han Serif KR';-inkscape-font-specification:'Source Han Serif KR Heavy';letter-spacing:0px;word-spacing:0px;fill:#000000;fill-opacity:1;stroke:none;stroke-width:1px;stroke-linecap:butt;stroke-linejoin:miter;stroke-opacity:1"
         d="m 640.08535,466.08551 c 5.6502,125.71696 23.1722,281.55512 52.226,347.37497 69.2724,98.95192 164.423,28.61612 167.1849,-75.41383 -43.2589,-133.92509 -112.3332,-241.12667 -178.8203,-311.33042 -35.6795,-17.46912 -41.4091,0.63471 -40.5906,39.36928 z"
         id="path11015"
         inkscape:connector-curvature="0"
         sodipodi:nodetypes="ccccc" />
      <path
         style="font-style:normal;font-variant:normal;font-weight:900;font-stretch:normal;font-size:445.64938354px;line-height:125%;font-family:'Source Han Serif KR';-inkscape-font-specification:'Source Han Serif KR Heavy';letter-spacing:0px;word-spacing:0px;fill:#000000;fill-opacity:1;stroke:none;stroke-width:1px;stroke-linecap:butt;stroke-linejoin:miter;stroke-opacity:1"
         d="m 288.65697,-67.338433 c -9.7483,-0.015 -15.7544,3.5551 -19.3555,13.849603 -4.7958,13.7098 14.3539,30.46 5.8379,76.39061 2.66554,0 -32.71517,84.94591 -56.0195,140.33036 -18.47591,43.90935 -51.89411,107.33944 -91.88421,176.19615 l -51.540747,24.18108 c -5.3866,55.72815 -3.05259,53.49537 19.66072,84.30357 10.579497,14.35 47.250897,25.32991 77.038997,32.32031 28.87809,4.8888 43.88289,-36.53276 89.81249,-35.91796 87.0575,-2.9774 159.09292,-32.54437 191.61392,-32.54437 24.0651,0 78.2109,4.6e-4 96.2597,2.00586 11.0298,-7.0189 25.0684,-33.08815 25.0684,-61.16407 0,-9.0244 -5.0135,-18.05046 -13.0352,-21.05859 -19.0515,-7.01898 -65.1768,-14.03755 -97.2636,-16.04297 l -35.0938,16.04297 c -29.6771,1.97848 -42.42641,1.01015 -74.28155,4.11942 -15.0136,0.31961 -19.7759,-6.53253 -19.0097,-19.04492 L 393.1295,192.55418 c 46.61241,-94.9432 44.5191,-66.10418 50.17977,-173.64069 -14.1169,-28.6404 -30.8936,-55.19832 -132.7754,-83.029323 -8.8327,-1.9132 -16.028,-3.2134 -21.8769,-3.2226 z"
         id="path11017"
         inkscape:connector-curvature="0"
         sodipodi:nodetypes="sscsccsccscsccccccccs" />
    </g>
  </g>
</svg>
