<?xml version="1.0" encoding="UTF-8" standalone="no"?>
<!-- Created with Inkscape (http://www.inkscape.org/) -->

<svg
   xmlns:dc="http://purl.org/dc/elements/1.1/"
   xmlns:cc="http://creativecommons.org/ns#"
   xmlns:rdf="http://www.w3.org/1999/02/22-rdf-syntax-ns#"
   xmlns:svg="http://www.w3.org/2000/svg"
   xmlns="http://www.w3.org/2000/svg"
   xmlns:sodipodi="http://sodipodi.sourceforge.net/DTD/sodipodi-0.dtd"
   xmlns:inkscape="http://www.inkscape.org/namespaces/inkscape"
   width="1000"
   height="1000"
   viewBox="0 0 1000 1000"
   id="svg4289"
   version="1.1"
   inkscape:version="0.91 r13725"
   sodipodi:docname="Er.svg">
  <defs
     id="defs4291" />
  <sodipodi:namedview
     id="base"
     pagecolor="#ffffff"
     bordercolor="#666666"
     borderopacity="1.0"
     inkscape:pageopacity="0.0"
     inkscape:pageshadow="2"
     inkscape:zoom="0.35"
     inkscape:cx="115.50302"
     inkscape:cy="502.65963"
     inkscape:document-units="px"
     inkscape:current-layer="layer1"
     showgrid="true"
     units="px"
     inkscape:window-width="1280"
     inkscape:window-height="748"
     inkscape:window-x="-8"
     inkscape:window-y="-8"
     inkscape:window-maximized="1"
     showguides="true"
     inkscape:guide-bbox="true">
    <sodipodi:guide
       position="0,200"
       orientation="0,1"
       id="guide4889"
       inkscape:label="Baseline"
       inkscape:color="rgb(0,0,255)" />
    <inkscape:grid
       type="xygrid"
       id="grid4150" />
  </sodipodi:namedview>
  <metadata
     id="metadata4294">
    <rdf:RDF>
      <cc:Work
         rdf:about="">
        <dc:format>image/svg+xml</dc:format>
        <dc:type
           rdf:resource="http://purl.org/dc/dcmitype/StillImage" />
        <dc:title />
      </cc:Work>
    </rdf:RDF>
  </metadata>
  <g
     inkscape:label="Layer 1"
     inkscape:groupmode="layer"
     id="layer1"
     transform="translate(0,-52.36222)">
    <path
       sodipodi:nodetypes="cccccsccccsccccccccc"
       style="font-style:normal;font-variant:normal;font-weight:900;font-stretch:normal;font-size:445.64938354px;line-height:125%;font-family:'Source Han Serif KR';-inkscape-font-specification:'Source Han Serif KR Heavy';letter-spacing:0px;word-spacing:0px;fill:#000000;fill-opacity:1;stroke:none;stroke-width:1px;stroke-linecap:butt;stroke-linejoin:miter;stroke-opacity:1"
       d="m 745.02304,243.67971 -35.09375,16.043 c -20.31847,1.3546 -321.33258,4.0025 -359.40872,4.9788 47.84567,-101.0471 84.3719,-154.3512 93.38545,-207.067108 -10.39596,-30.1908 -3.8523,-56.1307016 -101.41564,-96.576403 -22.72334,-8.029 -34.45214,-10.2667 -42.24324,5.3472 -6.4849,12.996299 10.4017,32.0263014 -3.8334,76.517903 -15.8772,83.530808 -71.33649,159.556308 -103.23839,205.696108 -11.3062,17.0407 -27.8166,23.6729 -44.387,30.1851 -13.8644,86.58494 64.47176,84.32625 130.05474,89.36165 7.87296,-0.63834 28.62334,-13.98711 59.95824,-15.43768 116.32706,-5.38507 350.68419,-13.85212 379.02997,-6.72787 -12.75322,123.1015 -76.68529,259.73499 -145.60401,358.81261 -26.11458,32.7804 -56.309,43.44659 -164.959,40.11769 -38.5158,18.0651 -26.4801,53.2777 74.70448,75.9539 50.06256,9.4657 30.06256,129.46571 109.03848,74.8026 11.00445,-10.14917 28.65388,-29.16613 48.49545,-53.2764 112.92199,-156.37661 211.64246,-367.34155 215.81517,-561.6295 0,-9.0244 -5.01347,-18.0505 -13.03516,-21.0586 -19.05151,-7.019 -65.17692,-14.0375 -97.26367,-16.043 z"
       id="path4765-4"
       inkscape:connector-curvature="0" />
  </g>
</svg>
