<?xml version="1.0" encoding="UTF-8" standalone="no"?>
<!-- Created with Inkscape (http://www.inkscape.org/) -->

<svg
   xmlns:dc="http://purl.org/dc/elements/1.1/"
   xmlns:cc="http://creativecommons.org/ns#"
   xmlns:rdf="http://www.w3.org/1999/02/22-rdf-syntax-ns#"
   xmlns:svg="http://www.w3.org/2000/svg"
   xmlns="http://www.w3.org/2000/svg"
   xmlns:sodipodi="http://sodipodi.sourceforge.net/DTD/sodipodi-0.dtd"
   xmlns:inkscape="http://www.inkscape.org/namespaces/inkscape"
   width="1000"
   height="1000"
   viewBox="0 0 1000 1000"
   id="svg4289"
   version="1.1"
   inkscape:version="0.91 r13725"
   sodipodi:docname="E.svg">
  <defs
     id="defs4291" />
  <sodipodi:namedview
     id="base"
     pagecolor="#ffffff"
     bordercolor="#666666"
     borderopacity="1.0"
     inkscape:pageopacity="0.0"
     inkscape:pageshadow="2"
     inkscape:zoom="0.35"
     inkscape:cx="82.857143"
     inkscape:cy="616.94534"
     inkscape:document-units="px"
     inkscape:current-layer="layer1"
     showgrid="true"
     units="px"
     inkscape:window-width="1280"
     inkscape:window-height="748"
     inkscape:window-x="-8"
     inkscape:window-y="-8"
     inkscape:window-maximized="1"
     showguides="true"
     inkscape:guide-bbox="true">
    <sodipodi:guide
       position="0,200"
       orientation="0,1"
       id="guide4889"
       inkscape:label="Baseline"
       inkscape:color="rgb(0,0,255)" />
    <inkscape:grid
       type="xygrid"
       id="grid4150" />
  </sodipodi:namedview>
  <metadata
     id="metadata4294">
    <rdf:RDF>
      <cc:Work
         rdf:about="">
        <dc:format>image/svg+xml</dc:format>
        <dc:type
           rdf:resource="http://purl.org/dc/dcmitype/StillImage" />
        <dc:title></dc:title>
      </cc:Work>
    </rdf:RDF>
  </metadata>
  <g
     inkscape:label="Layer 1"
     inkscape:groupmode="layer"
     id="layer1"
     transform="translate(0,-52.36222)">
    <g
       id="g4223"
       transform="translate(19.536237,19.024936)">
      <path
         sodipodi:nodetypes="ccccscccscscc"
         style="font-style:normal;font-variant:normal;font-weight:900;font-stretch:normal;font-size:445.64938354px;line-height:125%;font-family:'Source Han Serif KR';-inkscape-font-specification:'Source Han Serif KR Heavy';letter-spacing:0px;word-spacing:0px;fill:#000000;fill-opacity:1;stroke:none;stroke-width:1px;stroke-linecap:butt;stroke-linejoin:miter;stroke-opacity:1"
         d="m 807.04164,196.44119 -35.0937,16.04297 c -45.122,3.00813 -568.61674,9.02614 -611.73334,8.02343 -27.0732,0 -73.196899,-3.00913 -107.288999,-9.02538 l -8.0215,16.04296 c -2.00542,4.01083 -2.005,9.02431 2.0058,13.03515 22.0597,26.07049 56.150799,55.15042 89.240299,73.19922 20.0542,-5.01355 58.1579,-12.03244 79.2148,-13.03516 37.1003,-3.00813 543.54704,-8.02343 580.64734,-8.02343 24.0651,0 78.211,4.3e-4 96.2598,2.00586 11.0298,-7.01898 25.0684,-33.08816 25.0684,-61.16407 0,-9.0244 -5.0135,-18.05045 -13.0352,-21.05858 -19.0515,-7.01898 -65.1769,-14.03755 -97.2637,-16.04297 z"
         id="path10121"
         inkscape:connector-curvature="0" />
      <path
         sodipodi:nodetypes="ccccccscsccccccccccc"
         inkscape:connector-curvature="0"
         id="path10948"
         d="m 164.05859,78.724564 c -9.1236,17.50955 32.5058,60.678286 32.5058,107.790996 4.7591,154.66069 3.2233,338.33719 2.0586,493.0271 -5.3866,55.72813 -17.3391,102.06723 5.3742,132.87543 10.5795,14.35 47.2514,25.3305 77.0395,32.3209 28.8781,4.8888 43.8829,-36.5338 89.8125,-35.919 87.0575,-2.9774 349.05146,-6.8301 381.57246,-6.8301 24.0651,0 78.211,4e-4 96.2598,2.0058 11.0298,-7.0189 25.0684,-33.0881 25.0684,-61.164 0,-9.0244 -5.0135,-18.05053 -13.0352,-21.05863 -19.0515,-7.019 -65.1769,-14.0375 -97.2637,-16.043 l -35.0937,16.043 c -29.6771,1.9785 -264.48926,5.2505 -381.38226,6.97813 -17.6775,0.3763 -21.1743,-9.15933 -18.1263,-26.21163 3.195,-41.9265 5.0531,-73.48451 6.5634,-112.55747 1.9777,-127.09523 0.5293,-280.07621 0.5293,-411.13255 l 4.0117,-63.17186 c 1.0027,-15.04075 -4.0112,-25.066606 -15.041,-30.080166 -23.9328,-10.70676 -65.2712,-21.01743 -105.6289,-27.70313 -20.4774,-3.26189 -42.5364,-5.23798 -55.2246,20.83018 z"
         style="font-style:normal;font-variant:normal;font-weight:900;font-stretch:normal;font-size:445.64938354px;line-height:125%;font-family:'Source Han Serif KR';-inkscape-font-specification:'Source Han Serif KR Heavy';letter-spacing:0px;word-spacing:0px;fill:#000000;fill-opacity:1;stroke:none;stroke-width:1px;stroke-linecap:butt;stroke-linejoin:miter;stroke-opacity:1" />
      <path
         inkscape:connector-curvature="0"
         id="path10950"
         d="m 604.28384,112.3582 0,284.07447 c 0,53.1437 6.0178,189.51301 16.0449,226.61331 l 77.2071,0 c 29.0786,-64.1735 46.125,-183.49651 46.125,-265.71881 l 0,-252.63447 4.0117,-63.171896 c 1.0027,-15.0406 -4.0112,-25.0665 -15.041,-30.0801 -23.9328,-10.70669931 -65.2716,-21.0181993 -105.6294,-27.7039 -53.3719,-8.7915 -50.0577,10.9166007 -55.2236,20.8307003 -9.1236,17.5095997 32.5053,60.6779997 32.5053,107.7906957 z"
         style="font-style:normal;font-variant:normal;font-weight:900;font-stretch:normal;font-size:445.64938354px;line-height:125%;font-family:'Source Han Serif KR';-inkscape-font-specification:'Source Han Serif KR Heavy';letter-spacing:0px;word-spacing:0px;fill:#000000;fill-opacity:1;stroke:none;stroke-width:1px;stroke-linecap:butt;stroke-linejoin:miter;stroke-opacity:1"
         sodipodi:nodetypes="sscccccccss" />
    </g>
  </g>
</svg>
