<?xml version="1.0" encoding="UTF-8" standalone="no"?>
<!-- Created with Inkscape (http://www.inkscape.org/) -->

<svg
   xmlns:dc="http://purl.org/dc/elements/1.1/"
   xmlns:cc="http://creativecommons.org/ns#"
   xmlns:rdf="http://www.w3.org/1999/02/22-rdf-syntax-ns#"
   xmlns:svg="http://www.w3.org/2000/svg"
   xmlns="http://www.w3.org/2000/svg"
   xmlns:sodipodi="http://sodipodi.sourceforge.net/DTD/sodipodi-0.dtd"
   xmlns:inkscape="http://www.inkscape.org/namespaces/inkscape"
   width="1000"
   height="1000"
   viewBox="0 0 1000 1000"
   id="svg4289"
   version="1.1"
   inkscape:version="0.91 r13725"
   sodipodi:docname="Eon.svg">
  <defs
     id="defs4291" />
  <sodipodi:namedview
     id="base"
     pagecolor="#ffffff"
     bordercolor="#666666"
     borderopacity="1.0"
     inkscape:pageopacity="0.0"
     inkscape:pageshadow="2"
     inkscape:zoom="0.35"
     inkscape:cx="82.857143"
     inkscape:cy="616.94534"
     inkscape:document-units="px"
     inkscape:current-layer="layer1"
     showgrid="true"
     units="px"
     inkscape:window-width="1280"
     inkscape:window-height="748"
     inkscape:window-x="-8"
     inkscape:window-y="-8"
     inkscape:window-maximized="1"
     showguides="true"
     inkscape:guide-bbox="true">
    <sodipodi:guide
       position="0,200"
       orientation="0,1"
       id="guide4889"
       inkscape:label="Baseline"
       inkscape:color="rgb(0,0,255)" />
    <inkscape:grid
       type="xygrid"
       id="grid4150" />
  </sodipodi:namedview>
  <metadata
     id="metadata4294">
    <rdf:RDF>
      <cc:Work
         rdf:about="">
        <dc:format>image/svg+xml</dc:format>
        <dc:type
           rdf:resource="http://purl.org/dc/dcmitype/StillImage" />
        <dc:title></dc:title>
      </cc:Work>
    </rdf:RDF>
  </metadata>
  <g
     inkscape:label="Layer 1"
     inkscape:groupmode="layer"
     id="layer1"
     transform="translate(0,-52.36222)">
    <path
       inkscape:connector-curvature="0"
       id="path10977-1-6"
       d="m 732.06869,331.33502 -35.0937,36.24605 c -20.3185,1.3546 -314.72212,4.0025 -352.79822,4.9788 47.8457,-101.0471 95.22614,-235.1634 104.23964,-287.879299 -10.3959,-30.190796 -3.8523,-56.130697 -101.4156,-96.5764 -22.7233,-8.029 -34.4521,-10.2667 -42.2432,5.3471999 -6.4849,12.9963027 10.4017,32.0263031 -3.8334,76.5179001 -15.8772,83.530799 -82.19074,240.368499 -114.09264,286.508299 -11.3062,17.0407 -27.8166,23.6729 -44.387,30.1851 -13.8644,86.585 48.30926,104.52935 113.89226,109.56475 7.873,-0.6384 44.78584,-34.19015 76.12074,-35.64075 116.327,-5.3851 311.74874,-13.8521 340.09454,-6.7279 -24.5096,117.6331 -54.19773,202.03238 -81.27623,254.72998 -10.96793,43.26271 -13.02636,135.5491 14.28832,163.61903 44.192,34.8948 71.7486,-24.5265 91.4401,-55.9208 79.2927,-127.1613 154.06799,-323.73481 162.50609,-416.21871 0,-9.0244 -30.7277,-32.3362 -38.7494,-35.3443 -19.0515,-7.019 -56.6055,-31.38345 -88.6923,-33.38895 z"
       style="font-style:normal;font-variant:normal;font-weight:900;font-stretch:normal;font-size:445.64938354px;line-height:125%;font-family:'Source Han Serif KR';-inkscape-font-specification:'Source Han Serif KR Heavy';letter-spacing:0px;word-spacing:0px;fill:#000000;fill-opacity:1;stroke:none;stroke-width:1px;stroke-linecap:butt;stroke-linejoin:miter;stroke-opacity:1"
       sodipodi:nodetypes="cccccsccccsccccccc" />
  </g>
</svg>
