<?xml version="1.0" encoding="UTF-8" standalone="no"?>
<!-- Created with Inkscape (http://www.inkscape.org/) -->

<svg
   xmlns:dc="http://purl.org/dc/elements/1.1/"
   xmlns:cc="http://creativecommons.org/ns#"
   xmlns:rdf="http://www.w3.org/1999/02/22-rdf-syntax-ns#"
   xmlns:svg="http://www.w3.org/2000/svg"
   xmlns="http://www.w3.org/2000/svg"
   xmlns:sodipodi="http://sodipodi.sourceforge.net/DTD/sodipodi-0.dtd"
   xmlns:inkscape="http://www.inkscape.org/namespaces/inkscape"
   width="1000"
   height="1000"
   viewBox="0 0 1000 1000"
   id="svg4289"
   version="1.1"
   inkscape:version="0.91 r13725"
   sodipodi:docname="Eong.svg">
  <defs
     id="defs4291" />
  <sodipodi:namedview
     id="base"
     pagecolor="#ffffff"
     bordercolor="#666666"
     borderopacity="1.0"
     inkscape:pageopacity="0.0"
     inkscape:pageshadow="2"
     inkscape:zoom="0.35"
     inkscape:cx="82.857143"
     inkscape:cy="616.94534"
     inkscape:document-units="px"
     inkscape:current-layer="layer1"
     showgrid="true"
     units="px"
     inkscape:window-width="1280"
     inkscape:window-height="748"
     inkscape:window-x="-8"
     inkscape:window-y="-8"
     inkscape:window-maximized="1"
     showguides="true"
     inkscape:guide-bbox="true">
    <sodipodi:guide
       position="0,200"
       orientation="0,1"
       id="guide4889"
       inkscape:label="Baseline"
       inkscape:color="rgb(0,0,255)" />
    <inkscape:grid
       type="xygrid"
       id="grid4150" />
  </sodipodi:namedview>
  <metadata
     id="metadata4294">
    <rdf:RDF>
      <cc:Work
         rdf:about="">
        <dc:format>image/svg+xml</dc:format>
        <dc:type
           rdf:resource="http://purl.org/dc/dcmitype/StillImage" />
        <dc:title></dc:title>
      </cc:Work>
    </rdf:RDF>
  </metadata>
  <g
     inkscape:label="Layer 1"
     inkscape:groupmode="layer"
     id="layer1"
     transform="translate(0,-52.36222)">
    <path
       style="font-style:normal;font-variant:normal;font-weight:900;font-stretch:normal;font-size:445.64938354px;line-height:125%;font-family:'Source Han Serif KR';-inkscape-font-specification:'Source Han Serif KR Heavy';letter-spacing:0px;word-spacing:0px;fill:#000000;fill-opacity:1;stroke:none;stroke-width:1px;stroke-linecap:butt;stroke-linejoin:miter;stroke-opacity:1"
       d="m 410.62081,15.150148 c -9.7483,-0.015 -15.75437,3.555109 -19.35547,13.849609 -4.7958,13.7098 14.35389,30.460015 5.83789,76.390623 -32.04621,203.82063 -114.85188,386.53192 -204.52149,564.68555 -23.51881,23.98644 -50.83559,42.32184 -62.87695,53.97656 -32.257886,75.80343 29.12971,110.48283 89.58594,124.8711 28.8781,4.8888 43.8829,-19.39215 89.8125,-18.77735 87.0575,-2.9774 416.23681,-6.83007 448.75781,-6.83007 24.0651,0 78.21097,4.5e-4 96.25977,2.00586 11.0298,-7.01891 25.06836,-33.08817 25.06836,-61.16407 0,-9.0244 -5.01346,-18.05049 -13.03516,-21.05859 -19.0515,-7.019 -65.17687,-14.03747 -97.26367,-16.04297 l -35.09375,16.04297 c -29.6771,1.9785 -200.24567,5.25088 -317.13867,6.97851 -41.61137,0.88578 -57.23687,-23.01453 -60.97461,-50.33203 C 436.32633,495.22009 551.36896,328.20262 565.27315,101.4021 551.15625,72.761701 534.37956,46.203805 432.49776,18.372804 c -8.8327,-1.9132 -16.02805,-3.213456 -21.87695,-3.222656 z"
       id="path9705"
       inkscape:connector-curvature="0"
       sodipodi:nodetypes="cscccccscscccccccc" />
  </g>
</svg>
