<?xml version="1.0" encoding="UTF-8" standalone="no"?>
<!-- Created with Inkscape (http://www.inkscape.org/) -->

<svg
   xmlns:dc="http://purl.org/dc/elements/1.1/"
   xmlns:cc="http://creativecommons.org/ns#"
   xmlns:rdf="http://www.w3.org/1999/02/22-rdf-syntax-ns#"
   xmlns:svg="http://www.w3.org/2000/svg"
   xmlns="http://www.w3.org/2000/svg"
   xmlns:sodipodi="http://sodipodi.sourceforge.net/DTD/sodipodi-0.dtd"
   xmlns:inkscape="http://www.inkscape.org/namespaces/inkscape"
   width="1000"
   height="1000"
   viewBox="0 0 1000 1000"
   id="svg4289"
   version="1.1"
   inkscape:version="0.91 r13725"
   sodipodi:docname="H.svg">
  <defs
     id="defs4291" />
  <sodipodi:namedview
     id="base"
     pagecolor="#ffffff"
     bordercolor="#666666"
     borderopacity="1.0"
     inkscape:pageopacity="0.0"
     inkscape:pageshadow="2"
     inkscape:zoom="0.35"
     inkscape:cx="180.9579"
     inkscape:cy="731.23106"
     inkscape:document-units="px"
     inkscape:current-layer="layer1"
     showgrid="true"
     units="px"
     inkscape:window-width="1280"
     inkscape:window-height="748"
     inkscape:window-x="-8"
     inkscape:window-y="-8"
     inkscape:window-maximized="1"
     showguides="true"
     inkscape:guide-bbox="true">
    <sodipodi:guide
       position="0,200"
       orientation="0,1"
       id="guide4889"
       inkscape:label="Baseline"
       inkscape:color="rgb(0,0,255)" />
    <inkscape:grid
       type="xygrid"
       id="grid4150" />
  </sodipodi:namedview>
  <metadata
     id="metadata4294">
    <rdf:RDF>
      <cc:Work
         rdf:about="">
        <dc:format>image/svg+xml</dc:format>
        <dc:type
           rdf:resource="http://purl.org/dc/dcmitype/StillImage" />
        <dc:title></dc:title>
      </cc:Work>
    </rdf:RDF>
  </metadata>
  <g
     inkscape:label="Layer 1"
     inkscape:groupmode="layer"
     id="layer1"
     transform="translate(0,-52.36222)">
    <g
       id="g9444"
       transform="translate(42.610138,20.721458)">
      <path
         sodipodi:nodetypes="ccccscccscscc"
         style="font-style:normal;font-variant:normal;font-weight:900;font-stretch:normal;font-size:445.64938354px;line-height:125%;font-family:'Source Han Serif KR';-inkscape-font-specification:'Source Han Serif KR Heavy';letter-spacing:0px;word-spacing:0px;fill:#000000;fill-opacity:1;stroke:none;stroke-width:1px;stroke-linecap:butt;stroke-linejoin:miter;stroke-opacity:1"
         d="m 717.6952,7.231934 -35.09375,16.04297 c -45.122,3.00813 -396.09894,9.02615 -439.2155,8.02344 -27.0732,0 -73.19694,-3.00913 -107.28904,-9.02539 l -8.0215,16.04297 c -2.00542,4.010828 -2.005,9.024306 2.0058,13.035146 22.0597,26.07049 58.1508,55.15042 91.24034,73.19922 20.0542,-5.01355 58.1579,-12.03244 79.21476,-13.03516 37.10032,-3.00813 369.02928,-8.02343 406.12959,-8.02343 24.06507,0 78.21097,4.3e-4 96.25977,2.00586 11.02982,-7.01898 25.06836,-33.08816 25.06836,-61.16407 0,-9.024396 -5.01347,-18.050456 -13.03516,-21.058586 -19.05151,-7.01898 -65.17692,-14.03755 -97.26367,-16.04297 z"
         id="path8235-3"
         inkscape:connector-curvature="0" />
      <path
         sodipodi:nodetypes="ccsccccc"
         style="font-style:normal;font-variant:normal;font-weight:900;font-stretch:normal;font-size:445.64938354px;line-height:125%;font-family:'Source Han Serif KR';-inkscape-font-specification:'Source Han Serif KR Heavy';letter-spacing:0px;word-spacing:0px;fill:#000000;fill-opacity:1;stroke:none;stroke-width:1px;stroke-linecap:butt;stroke-linejoin:miter;stroke-opacity:1"
         d="m 364.12434,195.69081 c -10.3959,-30.1908 -3.8523,-56.1307 -101.4156,-96.5764 -22.7233,-8.029 -34.4521,-10.2667 -42.2432,5.3472 -6.4849,12.9963 16.11599,52.0263 1.88089,96.5179 -19.24228,170.66125 -24.95657,294.66125 -88.20655,538.34009 -17.29764,26.11414 -61.634409,119.96501 -42.76917,136.85411 39.31285,16.2716 97.44162,-37.5966 129.66981,-65.4707 78.22697,-87.71319 116.38631,-311.80767 143.08382,-615.0122 z"
         id="path8301"
         inkscape:connector-curvature="0" />
    </g>
  </g>
</svg>
