<?xml version="1.0" encoding="UTF-8" standalone="no"?>
<!-- Created with Inkscape (http://www.inkscape.org/) -->

<svg
   xmlns:dc="http://purl.org/dc/elements/1.1/"
   xmlns:cc="http://creativecommons.org/ns#"
   xmlns:rdf="http://www.w3.org/1999/02/22-rdf-syntax-ns#"
   xmlns:svg="http://www.w3.org/2000/svg"
   xmlns="http://www.w3.org/2000/svg"
   xmlns:sodipodi="http://sodipodi.sourceforge.net/DTD/sodipodi-0.dtd"
   xmlns:inkscape="http://www.inkscape.org/namespaces/inkscape"
   width="1000"
   height="1000"
   viewBox="0 0 1000 1000"
   id="svg4289"
   version="1.1"
   inkscape:version="0.91 r13725"
   sodipodi:docname="Jz.svg">
  <defs
     id="defs4291" />
  <sodipodi:namedview
     id="base"
     pagecolor="#ffffff"
     bordercolor="#666666"
     borderopacity="1.0"
     inkscape:pageopacity="0.0"
     inkscape:pageshadow="2"
     inkscape:zoom="0.35"
     inkscape:cx="474.12119"
     inkscape:cy="859.38196"
     inkscape:document-units="px"
     inkscape:current-layer="layer1"
     showgrid="true"
     units="px"
     inkscape:window-width="1280"
     inkscape:window-height="748"
     inkscape:window-x="-8"
     inkscape:window-y="-8"
     inkscape:window-maximized="1"
     showguides="true"
     inkscape:guide-bbox="true">
    <sodipodi:guide
       position="0,200"
       orientation="0,1"
       id="guide4889"
       inkscape:label="Baseline"
       inkscape:color="rgb(0,0,255)" />
    <inkscape:grid
       type="xygrid"
       id="grid4150" />
  </sodipodi:namedview>
  <metadata
     id="metadata4294">
    <rdf:RDF>
      <cc:Work
         rdf:about="">
        <dc:format>image/svg+xml</dc:format>
        <dc:type
           rdf:resource="http://purl.org/dc/dcmitype/StillImage" />
        <dc:title></dc:title>
      </cc:Work>
    </rdf:RDF>
  </metadata>
  <g
     inkscape:label="Layer 1"
     inkscape:groupmode="layer"
     id="layer1"
     transform="translate(0,-52.36222)">
    <g
       transform="translate(2.8571389,-17.184093)"
       id="g9718">
      <path
         sodipodi:nodetypes="ccccscccscscc"
         style="font-style:normal;font-variant:normal;font-weight:900;font-stretch:normal;font-size:445.64938354px;line-height:125%;font-family:'Source Han Serif KR';-inkscape-font-specification:'Source Han Serif KR Heavy';letter-spacing:0px;word-spacing:0px;fill:#000000;fill-opacity:1;stroke:none;stroke-width:1px;stroke-linecap:butt;stroke-linejoin:miter;stroke-opacity:1"
         d="m 782.13123,779.5507 -35.09375,16.04297 c -45.122,3.00813 -479.72334,9.02615 -522.8399,8.02344 -27.0732,0 -73.19694,-3.00913 -107.28904,-9.02539 l -8.0215,16.04297 c -2.0054,4.01084 -2.005,9.02431 2.0058,13.03515 22.0597,26.07049 56.1508,55.15042 89.24034,73.19922 20.0542,-5.01355 58.1579,-12.03244 79.21476,-13.03516 37.10032,-3.00813 454.65368,-8.02343 491.75399,-8.02343 24.06507,0 78.21097,4.3e-4 96.25977,2.00586 11.02982,-7.01898 25.06836,-33.08816 25.06836,-61.16407 0,-9.0244 -5.01347,-18.05046 -13.03516,-21.05859 -19.05151,-7.01898 -65.17692,-14.03755 -97.26367,-16.04297 z"
         id="path9601-8"
         inkscape:connector-curvature="0" />
      <path
         sodipodi:nodetypes="ccccccccccc"
         inkscape:connector-curvature="0"
         id="path9471-2-7"
         d="m 412.64357,25.256187 c -9.1236,17.50956 32.5059,60.678306 32.5059,107.791013 4.7591,154.66069 3.2233,426.08169 2.0586,580.77158 2.5569,58.32129 7.3982,125.48918 13.9863,149.86523 l 77.207,0 c 26.1049,-57.61057 42.5126,-159.66732 45.5955,-239.4271 1.9777,-127.09523 0.5295,-367.81939 0.5295,-498.87573 l 4.0118,-63.171863 c 1.0027,-15.04066 -4.0113,-25.06652 -15.0411,-30.08008 -23.9328,-10.70676 -65.2712,-21.01743 -105.6289,-27.7031304 -20.47839,-3.263192 -42.53675,-5.23739964 -55.2246,20.8300804 z"
         style="font-style:normal;font-variant:normal;font-weight:900;font-stretch:normal;font-size:445.64938354px;line-height:125%;font-family:'Source Han Serif KR';-inkscape-font-specification:'Source Han Serif KR Heavy';letter-spacing:0px;word-spacing:0px;fill:#000000;fill-opacity:1;stroke:none;stroke-width:1px;stroke-linecap:butt;stroke-linejoin:miter;stroke-opacity:1" />
      <path
         style="font-style:normal;font-variant:normal;font-weight:900;font-stretch:normal;font-size:445.64938354px;line-height:125%;font-family:'Source Han Serif KR';-inkscape-font-specification:'Source Han Serif KR Heavy';letter-spacing:0px;word-spacing:0px;fill:#000000;fill-opacity:1;stroke:none;stroke-width:1px;stroke-linecap:butt;stroke-linejoin:miter;stroke-opacity:1"
         d="m 661.14109,127.25186 c -9.1236,17.50956 32.5059,60.6783 32.5059,107.79101 4.7591,154.66069 3.2233,142.25856 2.0586,296.94845 2.5569,58.32129 7.3982,125.48918 13.9863,149.86523 l 77.207,0 c 26.1049,-57.61057 42.5126,-159.66732 45.5955,-239.4271 1.9777,-127.09523 0.5295,-83.99626 0.5295,-215.0526 l 4.0118,-63.17186 c 1.0027,-15.04066 -4.0113,-25.06652 -15.0411,-30.08008 -23.9328,-10.70676 -65.2712,-21.01743 -105.6289,-27.70313 -20.47839,-3.26319 -42.53675,-5.2374 -55.2246,20.83008 z"
         id="path9701"
         inkscape:connector-curvature="0"
         sodipodi:nodetypes="ccccccccccc" />
      <path
         sodipodi:nodetypes="ccccccscsccccccccccc"
         inkscape:connector-curvature="0"
         id="path9705"
         transform="translate(0,52.36222)"
         d="m 164.14648,74.888665 c -9.1236,17.50956 32.50586,60.678305 32.50586,107.791015 4.7591,154.66069 3.2233,118.01519 2.0586,272.70508 -5.38658,55.72815 -17.33916,102.06725 5.3742,132.87549 10.57952,14.34999 47.25142,25.33049 77.03948,32.32084 28.87812,4.88883 43.88288,-36.53376 89.81247,-35.91899 87.05752,-2.97739 267.66489,-6.83008 300.18596,-6.83008 24.0651,0 78.21096,4.3e-4 96.25976,2.00586 11.0298,-7.01898 25.06836,-33.08815 25.06836,-61.16406 0,-9.0244 -5.01345,-18.05047 -13.03515,-21.0586 -19.0515,-7.01898 -65.17688,-14.03754 -97.26368,-16.04296 l -35.09375,16.04296 c -29.67707,1.97848 -183.10266,5.25051 -299.99564,6.97809 -17.67754,0.37632 -21.17432,-9.15932 -18.12631,-26.21161 3.19501,-41.92648 5.0531,-73.48453 6.56336,-112.55749 1.9777,-127.09523 0.5293,-59.75421 0.5293,-190.81055 l 4.01172,-63.17187 C 341.04372,96.801137 336.0298,86.775279 325,81.761719 301.0672,71.054959 259.72879,60.744294 219.37109,54.058594 198.89365,50.796722 176.83467,48.82048 164.14648,74.888665 Z"
         style="font-style:normal;font-variant:normal;font-weight:900;font-stretch:normal;font-size:445.64938354px;line-height:125%;font-family:'Source Han Serif KR';-inkscape-font-specification:'Source Han Serif KR Heavy';letter-spacing:0px;word-spacing:0px;fill:#000000;fill-opacity:1;stroke:none;stroke-width:1px;stroke-linecap:butt;stroke-linejoin:miter;stroke-opacity:1" />
    </g>
  </g>
</svg>
