<?xml version="1.0" encoding="UTF-8" standalone="no"?>
<!-- Created with Inkscape (http://www.inkscape.org/) -->

<svg
   xmlns:dc="http://purl.org/dc/elements/1.1/"
   xmlns:cc="http://creativecommons.org/ns#"
   xmlns:rdf="http://www.w3.org/1999/02/22-rdf-syntax-ns#"
   xmlns:svg="http://www.w3.org/2000/svg"
   xmlns="http://www.w3.org/2000/svg"
   xmlns:sodipodi="http://sodipodi.sourceforge.net/DTD/sodipodi-0.dtd"
   xmlns:inkscape="http://www.inkscape.org/namespaces/inkscape"
   width="1000"
   height="1000"
   viewBox="0 0 1000 1000"
   id="svg4289"
   version="1.1"
   inkscape:version="0.91 r13725"
   sodipodi:docname="K.svg">
  <defs
     id="defs4291" />
  <sodipodi:namedview
     id="base"
     pagecolor="#ffffff"
     bordercolor="#666666"
     borderopacity="1.0"
     inkscape:pageopacity="0.0"
     inkscape:pageshadow="2"
     inkscape:zoom="0.35"
     inkscape:cx="180.9579"
     inkscape:cy="731.23106"
     inkscape:document-units="px"
     inkscape:current-layer="layer1"
     showgrid="true"
     units="px"
     inkscape:window-width="1280"
     inkscape:window-height="748"
     inkscape:window-x="-8"
     inkscape:window-y="-8"
     inkscape:window-maximized="1"
     showguides="true"
     inkscape:guide-bbox="true">
    <sodipodi:guide
       position="0,200"
       orientation="0,1"
       id="guide4889"
       inkscape:label="Baseline"
       inkscape:color="rgb(0,0,255)" />
    <inkscape:grid
       type="xygrid"
       id="grid4150" />
  </sodipodi:namedview>
  <metadata
     id="metadata4294">
    <rdf:RDF>
      <cc:Work
         rdf:about="">
        <dc:format>image/svg+xml</dc:format>
        <dc:type
           rdf:resource="http://purl.org/dc/dcmitype/StillImage" />
        <dc:title></dc:title>
      </cc:Work>
    </rdf:RDF>
  </metadata>
  <g
     inkscape:label="Layer 1"
     inkscape:groupmode="layer"
     id="layer1"
     transform="translate(0,-52.36222)">
    <g
       id="g9306"
       transform="translate(10.640523,-9.2986085)">
      <path
         sodipodi:nodetypes="ccccscccscscc"
         style="font-style:normal;font-variant:normal;font-weight:900;font-stretch:normal;font-size:445.64938354px;line-height:125%;font-family:'Source Han Serif KR';-inkscape-font-specification:'Source Han Serif KR Heavy';letter-spacing:0px;word-spacing:0px;fill:#000000;fill-opacity:1;stroke:none;stroke-width:1px;stroke-linecap:butt;stroke-linejoin:miter;stroke-opacity:1"
         d="m 763.40949,24.865013 -35.09375,16.04297 c -45.122,3.00813 -463.5609,9.02615 -506.67746,8.02344 -27.0732,0 -73.19694,-3.00913 -107.28904,-9.02539 l -8.0215,16.04297 c -2.0054,4.01084 -2.005,9.02431 2.0058,13.03515 22.0597,26.07049 56.1508,55.150417 89.24034,73.199217 20.0542,-5.01355 58.1579,-12.03244 79.21476,-13.03516 37.10032,-3.00813 438.49124,-8.02343 475.59155,-8.02343 24.06507,0 78.21097,4.3e-4 96.25977,2.00586 11.02982,-7.01898 25.06836,-33.088157 25.06836,-61.164067 0,-9.0244 -5.01347,-18.05046 -13.03516,-21.05859 -19.05151,-7.01898 -65.17692,-14.03755 -97.26367,-16.04297 z"
         id="path8235"
         inkscape:connector-curvature="0" />
      <path
         sodipodi:nodetypes="ccccsccccccccccccscc"
         inkscape:connector-curvature="0"
         id="path8525"
         d="m 344.96555,128.42529 c -24.8812,76.205 -58.9067,148.5645 -88.1933,190.9219 -11.3062,17.0407 -27.8183,23.67325 -44.3887,30.18545 -13.8644,86.585 64.4717,84.326 130.0547,89.3614 7.873,-0.6384 28.6241,-13.987 59.959,-15.4375 88.8687,-4.114 163.2483,-10.0271 206.049,-9.4129 30.981,-1.5163 29.3565,5.2052 21.8532,29.0056 -35.432,112.3611 -79.3068,241.5227 -162.876,290.8533 -23.9343,13.7957 -59.5579,22.249 -122.2743,20.3274 -38.5158,18.0651 -26.4795,53.2769 74.7051,75.9531 50.0626,9.4657 30.0632,129.4659 109.0391,74.8028 11.0044,-10.1492 28.6526,-29.1652 48.4941,-53.2754 112.922,-156.3766 194.5011,-305.9132 198.6738,-500.2012 0,-9.0244 -5.0134,-18.05045 -13.0351,-21.05855 -19.0515,-7.019 -65.1769,-14.0375 -97.2637,-16.043 l -35.0937,16.043 c -20.3185,1.3546 -172.7618,4.0022 -210.8379,4.9785 39.726,-83.8989 63.1028,-138.8225 89.9863,-185.2226 3.0704,-5.2994 14.4428,-14.2714 24.1484,-22.7188 24.17239,-96.221755 -111.80453,-70.063396 -189,0.9375 z"
         style="font-style:normal;font-variant:normal;font-weight:900;font-stretch:normal;font-size:445.64938354px;line-height:125%;font-family:'Source Han Serif KR';-inkscape-font-specification:'Source Han Serif KR Heavy';letter-spacing:0px;word-spacing:0px;fill:#000000;fill-opacity:1;stroke:none;stroke-width:1px;stroke-linecap:butt;stroke-linejoin:miter;stroke-opacity:1" />
    </g>
  </g>
</svg>
