<?xml version="1.0" encoding="UTF-8" standalone="no"?>
<!-- Created with Inkscape (http://www.inkscape.org/) -->

<svg
   xmlns:dc="http://purl.org/dc/elements/1.1/"
   xmlns:cc="http://creativecommons.org/ns#"
   xmlns:rdf="http://www.w3.org/1999/02/22-rdf-syntax-ns#"
   xmlns:svg="http://www.w3.org/2000/svg"
   xmlns="http://www.w3.org/2000/svg"
   xmlns:sodipodi="http://sodipodi.sourceforge.net/DTD/sodipodi-0.dtd"
   xmlns:inkscape="http://www.inkscape.org/namespaces/inkscape"
   width="1000"
   height="1000"
   viewBox="0 0 1000 1000"
   id="svg4289"
   version="1.1"
   inkscape:version="0.91 r13725"
   sodipodi:docname="N.svg">
  <defs
     id="defs4291" />
  <sodipodi:namedview
     id="base"
     pagecolor="#ffffff"
     bordercolor="#666666"
     borderopacity="1.0"
     inkscape:pageopacity="0.0"
     inkscape:pageshadow="2"
     inkscape:zoom="0.35"
     inkscape:cx="180.9579"
     inkscape:cy="731.23106"
     inkscape:document-units="px"
     inkscape:current-layer="layer1"
     showgrid="true"
     units="px"
     inkscape:window-width="1280"
     inkscape:window-height="748"
     inkscape:window-x="-8"
     inkscape:window-y="-8"
     inkscape:window-maximized="1"
     showguides="true"
     inkscape:guide-bbox="true">
    <sodipodi:guide
       position="0,200"
       orientation="0,1"
       id="guide4889"
       inkscape:label="Baseline"
       inkscape:color="rgb(0,0,255)" />
    <inkscape:grid
       type="xygrid"
       id="grid4150" />
  </sodipodi:namedview>
  <metadata
     id="metadata4294">
    <rdf:RDF>
      <cc:Work
         rdf:about="">
        <dc:format>image/svg+xml</dc:format>
        <dc:type
           rdf:resource="http://purl.org/dc/dcmitype/StillImage" />
        <dc:title></dc:title>
      </cc:Work>
    </rdf:RDF>
  </metadata>
  <g
     inkscape:label="Layer 1"
     inkscape:groupmode="layer"
     id="layer1"
     transform="translate(0,-52.36222)">
    <path
       style="font-style:normal;font-variant:normal;font-weight:900;font-stretch:normal;font-size:445.64938354px;line-height:125%;font-family:'Source Han Serif KR';-inkscape-font-specification:'Source Han Serif KR Heavy';letter-spacing:0px;word-spacing:0px;fill:#000000;fill-opacity:1;stroke:none;stroke-width:1px;stroke-linecap:butt;stroke-linejoin:miter;stroke-opacity:1"
       d="m 577.38511,10.614956 -35.09375,16.042969 c -45.122,3.00813 -234.34438,9.026147 -277.46094,8.023437 -27.0732,0 -73.19696,-3.00913 -107.28906,-9.02539 l -8.02149,16.042968 c -2.0054,4.01084 -2.00494,9.024317 2.00586,13.035157 22.0597,26.070489 56.1507,55.150423 89.24024,73.199223 20.0542,-5.01355 58.15798,-12.03243 79.21484,-13.03515 21.12982,-1.71323 85.86993,-4.05346 144.7207,-5.77149 -24.88123,76.205 -102.9067,148.56451 -132.19336,190.92188 -11.3062,17.0407 -27.81827,23.67334 -44.38867,30.18554 -13.8644,86.58494 64.47166,84.32593 130.05469,89.36133 7.873,-0.63834 28.62408,-13.98693 59.95898,-15.4375 88.86875,-4.11396 163.24836,-10.02702 206.04901,-9.41282 30.98105,-1.51634 29.35648,5.20519 21.85318,29.00553 -35.43197,112.36108 -79.30673,241.52277 -162.87593,290.85329 -23.93431,13.79571 -59.55798,22.24899 -122.2743,20.32744 -38.5158,18.0651 -26.47953,53.27692 74.70507,75.95312 50.0626,9.4657 30.06317,129.46584 109.03907,74.80274 11.0044,-10.14917 28.65264,-29.16512 48.49414,-53.27539 112.92202,-156.37661 194.50112,-305.91322 198.67383,-500.20117 0,-9.0244 -5.01347,-18.0505 -13.03516,-21.0586 -19.05151,-7.019 -65.17692,-14.03747 -97.26367,-16.04297 l -35.09375,16.04297 c -20.31847,1.3546 -172.76179,4.00222 -210.83789,4.97852 39.72607,-83.89895 107.10279,-138.82248 133.98632,-185.22266 3.07039,-5.2994 14.44277,-14.27133 24.14844,-22.71875 24.8401,1.09572 33.7205,-46.219834 33.98242,-60.472661 0,-9.0244 -5.01346,-18.050464 -13.03515,-21.058594 -19.05151,-7.01898 -65.17692,-14.037549 -97.26367,-16.042969 z"
       id="path8525"
       inkscape:connector-curvature="0"
       sodipodi:nodetypes="ccccscccccccsccccccccccccscccc" />
  </g>
</svg>
