<?xml version="1.0" encoding="UTF-8" standalone="no"?>
<!-- Created with Inkscape (http://www.inkscape.org/) -->

<svg
   xmlns:dc="http://purl.org/dc/elements/1.1/"
   xmlns:cc="http://creativecommons.org/ns#"
   xmlns:rdf="http://www.w3.org/1999/02/22-rdf-syntax-ns#"
   xmlns:svg="http://www.w3.org/2000/svg"
   xmlns="http://www.w3.org/2000/svg"
   xmlns:sodipodi="http://sodipodi.sourceforge.net/DTD/sodipodi-0.dtd"
   xmlns:inkscape="http://www.inkscape.org/namespaces/inkscape"
   width="1000"
   height="1000"
   viewBox="0 0 1000 1000"
   id="svg4289"
   version="1.1"
   inkscape:version="0.91 r13725"
   sodipodi:docname="O.svg">
  <defs
     id="defs4291" />
  <sodipodi:namedview
     id="base"
     pagecolor="#ffffff"
     bordercolor="#666666"
     borderopacity="1.0"
     inkscape:pageopacity="0.0"
     inkscape:pageshadow="2"
     inkscape:zoom="0.35"
     inkscape:cx="-338.57143"
     inkscape:cy="616.94534"
     inkscape:document-units="px"
     inkscape:current-layer="layer1"
     showgrid="true"
     units="px"
     inkscape:window-width="1280"
     inkscape:window-height="748"
     inkscape:window-x="-8"
     inkscape:window-y="-8"
     inkscape:window-maximized="1"
     showguides="true"
     inkscape:guide-bbox="true">
    <sodipodi:guide
       position="0,200"
       orientation="0,1"
       id="guide4889"
       inkscape:label="Baseline"
       inkscape:color="rgb(0,0,255)" />
    <inkscape:grid
       type="xygrid"
       id="grid4150" />
  </sodipodi:namedview>
  <metadata
     id="metadata4294">
    <rdf:RDF>
      <cc:Work
         rdf:about="">
        <dc:format>image/svg+xml</dc:format>
        <dc:type
           rdf:resource="http://purl.org/dc/dcmitype/StillImage" />
        <dc:title />
      </cc:Work>
    </rdf:RDF>
  </metadata>
  <g
     inkscape:label="Layer 1"
     inkscape:groupmode="layer"
     id="layer1"
     transform="translate(0,-52.36222)">
    <g
       transform="translate(-9.2382468,-13.829365)"
       id="g10908">
      <path
         style="font-style:normal;font-variant:normal;font-weight:900;font-stretch:normal;font-size:445.64938354px;line-height:125%;font-family:'Source Han Serif KR';-inkscape-font-specification:'Source Han Serif KR Heavy';letter-spacing:0px;word-spacing:0px;fill:#000000;fill-opacity:1;stroke:none;stroke-width:1px;stroke-linecap:butt;stroke-linejoin:miter;stroke-opacity:1"
         d="m 437.92578,59.134766 c -27.95456,0.446542 -26.55466,14.968231 -30.75195,23.023437 -9.1236,17.5096 32.50586,60.676367 32.50586,107.789067 -0.0935,28.64491 -0.50444,54.75684 -0.15625,79.78906 -158.58497,22.82102 -278.80664,117.56909 -278.80664,257.72851 0,165.03923 160.13566,267.98438 354.58789,267.98438 145.92837,0 272.20362,-58.96433 324.98943,-159.18461 85.22683,-180.74853 -121.90852,-132.77815 -152.55954,-36.4122 -26.98771,65.72691 -92.11801,102.41712 -172.42989,102.41712 -106.21036,0 -185.86524,-64.1689 -185.86524,-174.80469 0,-85.17152 47.21758,-142.78933 117.40625,-164.80664 34.77782,50.43696 38.46266,40.96848 86.08594,41.19141 47.74133,-101.66146 46.125,-115.20715 46.125,-221.56641 l 4.01172,-63.17187 c 1.0027,-15.0406 -4.01122,-25.06648 -15.04102,-30.08008 -23.9328,-10.7067 -65.2711,-21.019378 -105.6289,-27.705078 -10.00723,-1.648406 -18.02161,-2.294455 -24.47266,-2.191406 z"
         transform="translate(0,52.36222)"
         id="path10904"
         inkscape:connector-curvature="0"
         sodipodi:nodetypes="ssccssccssccccccs" />
      <path
         inkscape:connector-curvature="0"
         id="path10906"
         d="m 787.3288,44.571731 -35.0937,16.04297 c -45.122,3.00813 -471.6421,9.02615 -514.7587,8.02344 -27.0732,0 -73.1969,-3.00913 -107.289,-9.02539 l -8.0215,16.04297 c -2.0054,4.01084 -2.005,9.02431 2.0058,13.03515 22.0597,26.070489 56.1508,55.150419 89.2403,73.199219 20.0542,-5.01355 58.1579,-12.03244 79.2148,-13.03516 37.1003,-3.00813 446.5724,-8.02343 483.6727,-8.02343 24.0651,0 78.211,4.3e-4 96.2598,2.00586 11.0298,-7.01898 25.0684,-33.08816 25.0684,-61.164069 0,-9.0244 -5.0135,-18.05046 -13.0352,-21.05859 -19.0515,-7.01898 -65.1769,-14.03755 -97.2637,-16.04297 z"
         style="font-style:normal;font-variant:normal;font-weight:900;font-stretch:normal;font-size:445.64938354px;line-height:125%;font-family:'Source Han Serif KR';-inkscape-font-specification:'Source Han Serif KR Heavy';letter-spacing:0px;word-spacing:0px;fill:#000000;fill-opacity:1;stroke:none;stroke-width:1px;stroke-linecap:butt;stroke-linejoin:miter;stroke-opacity:1"
         sodipodi:nodetypes="ccccscccscscc" />
    </g>
  </g>
</svg>
