<?xml version="1.0" encoding="UTF-8" standalone="no"?>
<!-- Created with Inkscape (http://www.inkscape.org/) -->

<svg
   xmlns:dc="http://purl.org/dc/elements/1.1/"
   xmlns:cc="http://creativecommons.org/ns#"
   xmlns:rdf="http://www.w3.org/1999/02/22-rdf-syntax-ns#"
   xmlns:svg="http://www.w3.org/2000/svg"
   xmlns="http://www.w3.org/2000/svg"
   xmlns:sodipodi="http://sodipodi.sourceforge.net/DTD/sodipodi-0.dtd"
   xmlns:inkscape="http://www.inkscape.org/namespaces/inkscape"
   width="1000"
   height="1000"
   viewBox="0 0 1000 1000"
   id="svg4289"
   version="1.1"
   inkscape:version="0.91 r13725"
   sodipodi:docname="Ou.svg">
  <defs
     id="defs4291" />
  <sodipodi:namedview
     id="base"
     pagecolor="#ffffff"
     bordercolor="#666666"
     borderopacity="1.0"
     inkscape:pageopacity="0.0"
     inkscape:pageshadow="2"
     inkscape:zoom="0.35"
     inkscape:cx="82.857143"
     inkscape:cy="616.94534"
     inkscape:document-units="px"
     inkscape:current-layer="layer1"
     showgrid="true"
     units="px"
     inkscape:window-width="1280"
     inkscape:window-height="748"
     inkscape:window-x="-8"
     inkscape:window-y="-8"
     inkscape:window-maximized="1"
     showguides="true"
     inkscape:guide-bbox="true">
    <sodipodi:guide
       position="0,200"
       orientation="0,1"
       id="guide4889"
       inkscape:label="Baseline"
       inkscape:color="rgb(0,0,255)" />
    <inkscape:grid
       type="xygrid"
       id="grid4150" />
  </sodipodi:namedview>
  <metadata
     id="metadata4294">
    <rdf:RDF>
      <cc:Work
         rdf:about="">
        <dc:format>image/svg+xml</dc:format>
        <dc:type
           rdf:resource="http://purl.org/dc/dcmitype/StillImage" />
        <dc:title></dc:title>
      </cc:Work>
    </rdf:RDF>
  </metadata>
  <g
     inkscape:label="Layer 1"
     inkscape:groupmode="layer"
     id="layer1"
     transform="translate(0,-52.36222)">
    <g
       id="g4280"
       transform="translate(-39.633323,-36.316314)">
      <path
         sodipodi:nodetypes="csccscc"
         inkscape:connector-curvature="0"
         id="path11040"
         d="m 226.69092,347.8421 c 89.469,87.73619 134.84307,91.11218 338.13744,267.08836 127.31603,110.20762 155.01272,182.43573 241.47242,240.18083 93.7494,76.1656 143.1107,-0.4213 117.2425,-101.2216 C 895.31198,711.74169 801.70553,640.46198 616.31566,501.13575 390.91186,331.73781 336.70555,321.79947 254.93112,298.85201 c -39.102,-7.0165 -39.648,11.9645 -28.2402,48.99009 z"
         style="font-style:normal;font-variant:normal;font-weight:900;font-stretch:normal;font-size:445.64938354px;line-height:125%;font-family:'Source Han Serif KR';-inkscape-font-specification:'Source Han Serif KR Heavy';letter-spacing:0px;word-spacing:0px;fill:#000000;fill-opacity:1;stroke:none;stroke-width:1px;stroke-linecap:butt;stroke-linejoin:miter;stroke-opacity:1" />
      <path
         style="font-style:normal;font-variant:normal;font-weight:900;font-stretch:normal;font-size:445.64938354px;line-height:125%;font-family:'Source Han Serif KR';-inkscape-font-specification:'Source Han Serif KR Heavy';letter-spacing:0px;word-spacing:0px;fill:#000000;fill-opacity:1;stroke:none;stroke-width:1px;stroke-linecap:butt;stroke-linejoin:miter;stroke-opacity:1"
         d="m 763.7851,51.369206 -35.0938,16.0429 c -45.122,3.0081 -420.06063,9.0262 -463.17713,8.0235 -27.0732,0 -73.197,-3.0092 -107.2891,-9.0254 l -8.0215,16.0429 c -2.00545,4.010877 -2.0049,9.024397 2.0059,13.035197 22.0597,26.070507 56.1507,55.150407 89.2402,73.199207 20.0542,-5.0135 58.158,-12.03239 79.2149,-13.03509 28.1628,-2.28351 189.41389,-1.64391 277.11439,-3.16381 23.9792,-1.885 59.86319,9.44243 54.80469,39.80923 -2.5468,95.53868 -74.99953,190.43609 -125.7143,263.60432 -30.27407,43.67762 -145.41076,179.84226 -349.66937,325.51401 -61.57619,64.92052 14.07774,77.06031 54.34985,54.28571 C 355.63236,800.42645 511.54,680.05072 597.67483,605.36821 715.38674,481.75052 814.58824,351.40177 849.1034,197.53071 c 0,0 11.9667,-55.0892 9.9708,-85.6903 -0.7915,-12.134204 -2.1132,-39.093204 -15.1683,-44.428304 -19.0515,-7.019 -48.0341,-14.0375 -80.1208,-16.0429 z"
         id="path11042"
         inkscape:connector-curvature="0"
         sodipodi:nodetypes="ccccscccccsccccscc" />
    </g>
  </g>
</svg>
