<?xml version="1.0" encoding="UTF-8" standalone="no"?>
<!-- Created with Inkscape (http://www.inkscape.org/) -->

<svg
   xmlns:dc="http://purl.org/dc/elements/1.1/"
   xmlns:cc="http://creativecommons.org/ns#"
   xmlns:rdf="http://www.w3.org/1999/02/22-rdf-syntax-ns#"
   xmlns:svg="http://www.w3.org/2000/svg"
   xmlns="http://www.w3.org/2000/svg"
   xmlns:sodipodi="http://sodipodi.sourceforge.net/DTD/sodipodi-0.dtd"
   xmlns:inkscape="http://www.inkscape.org/namespaces/inkscape"
   width="1000"
   height="1000"
   viewBox="0 0 1000 1000"
   id="svg4289"
   version="1.1"
   inkscape:version="0.91 r13725"
   sodipodi:docname="P.svg">
  <defs
     id="defs4291" />
  <sodipodi:namedview
     id="base"
     pagecolor="#ffffff"
     bordercolor="#666666"
     borderopacity="1.0"
     inkscape:pageopacity="0.0"
     inkscape:pageshadow="2"
     inkscape:zoom="0.24748737"
     inkscape:cx="-711.24947"
     inkscape:cy="522.86268"
     inkscape:document-units="px"
     inkscape:current-layer="layer1"
     showgrid="false"
     units="px"
     inkscape:window-width="1280"
     inkscape:window-height="748"
     inkscape:window-x="-8"
     inkscape:window-y="-8"
     inkscape:window-maximized="1"
     showguides="true"
     inkscape:guide-bbox="true">
    <sodipodi:guide
       position="0,200"
       orientation="0,1"
       id="guide4889"
       inkscape:label="Baseline"
       inkscape:color="rgb(0,0,255)" />
    <inkscape:grid
       type="xygrid"
       id="grid4150" />
  </sodipodi:namedview>
  <metadata
     id="metadata4294">
    <rdf:RDF>
      <cc:Work
         rdf:about="">
        <dc:format>image/svg+xml</dc:format>
        <dc:type
           rdf:resource="http://purl.org/dc/dcmitype/StillImage" />
        <dc:title />
      </cc:Work>
    </rdf:RDF>
  </metadata>
  <g
     inkscape:label="Layer 1"
     inkscape:groupmode="layer"
     id="layer1"
     transform="translate(0,-52.36222)">
    <path
       style="font-style:normal;font-variant:normal;font-weight:900;font-stretch:normal;font-size:445.64938354px;line-height:125%;font-family:'Source Han Serif KR';-inkscape-font-specification:'Source Han Serif KR Heavy';letter-spacing:0px;word-spacing:0px;fill:#000000;fill-opacity:1;stroke:none;stroke-width:1px;stroke-linecap:butt;stroke-linejoin:miter;stroke-opacity:1"
       d="m 306.85052,-47.665718 c -7.41972,0.0267 -12.67153,3.28324 -16.81055,11.57813 -6.4849,12.99629 10.40307,32.02597 -3.83203,76.51757 -15.8772,83.530798 -71.33638,159.555508 -103.23828,205.695308 -11.3062,17.0407 -27.81827,23.67335 -44.38867,30.18555 -13.86364,86.58384 64.47257,84.32584 130.05469,89.36133 7.87295,-0.63835 28.62408,-13.98693 59.95898,-15.4375 116.32706,-5.38507 353.31501,-6.72657 353.31501,-6.72657 -38.52072,95.81349 -102.88224,176.67557 -177.25838,256.06863 -89.2601,95.28097 -192.94407,183.41435 -283.69628,225.33864 -24.2974,21.39655 -67.00553,51.02365 -69.22917,62.77175 -6.06561,32.0464 132.39522,10.0607 180.68222,-15.787 164.7348,-79.5379 248.73151,-142.86421 306.44811,-200.90833 73.02067,-73.43502 148.72347,-183.89383 190.04078,-279.3419 10.44392,-24.12675 20.10597,-32.33234 28.57633,-55.35942 4.43306,-12.05149 -2.27874,-46.18085 -10.82393,-69.73549 -4.45859,-12.28999 -10.02845,-23.06218 -24.06641,-26.07031 -19.05151,-4.01085 -62.16672,-6.01639 -92.24805,-5.01368 l -31.72851,21.8125 c -27.10465,1.36956 -320.7072,3.96206 -358.29297,4.92578 47.84567,-101.0471 84.37317,-154.35245 93.38672,-207.068348 -10.39596,-30.190799 -3.85268,-56.13047 -101.41602,-96.57617 -10.65156,-3.76359 -18.88678,-6.25405 -25.43359,-6.23047 z"
       id="path4765"
       inkscape:connector-curvature="0"
       sodipodi:nodetypes="ssccccscscscssssccccccs" />
    <path
       sodipodi:nodetypes="csccscc"
       inkscape:connector-curvature="0"
       id="path11040-4"
       d="m 264.28728,470.54306 c 89.469,87.73619 165.44058,128.47593 277.52828,234.76349 70.08905,66.46219 106.5254,109.70468 192.9851,167.44978 93.7494,76.1656 143.1107,-0.4213 117.2425,-101.2216 C 823.81186,729.38677 694.07139,664.68044 593.30286,591.51182 475.83157,506.21523 374.30191,444.50044 292.52748,421.55298 c -39.102,-7.0165 -39.648,11.9645 -28.2402,48.99008 z"
       style="font-style:normal;font-variant:normal;font-weight:900;font-stretch:normal;font-size:445.64938354px;line-height:125%;font-family:'Source Han Serif KR';-inkscape-font-specification:'Source Han Serif KR Heavy';letter-spacing:0px;word-spacing:0px;fill:#000000;fill-opacity:1;stroke:none;stroke-width:1px;stroke-linecap:butt;stroke-linejoin:miter;stroke-opacity:1" />
  </g>
</svg>
