<?xml version="1.0" encoding="UTF-8" standalone="no"?>
<!-- Created with Inkscape (http://www.inkscape.org/) -->

<svg
   xmlns:dc="http://purl.org/dc/elements/1.1/"
   xmlns:cc="http://creativecommons.org/ns#"
   xmlns:rdf="http://www.w3.org/1999/02/22-rdf-syntax-ns#"
   xmlns:svg="http://www.w3.org/2000/svg"
   xmlns="http://www.w3.org/2000/svg"
   xmlns:sodipodi="http://sodipodi.sourceforge.net/DTD/sodipodi-0.dtd"
   xmlns:inkscape="http://www.inkscape.org/namespaces/inkscape"
   width="1000"
   height="1000"
   viewBox="0 0 1000 1000"
   id="svg4289"
   version="1.1"
   inkscape:version="0.91 r13725"
   sodipodi:docname="Rz.svg">
  <defs
     id="defs4291" />
  <sodipodi:namedview
     id="base"
     pagecolor="#ffffff"
     bordercolor="#666666"
     borderopacity="1.0"
     inkscape:pageopacity="0.0"
     inkscape:pageshadow="2"
     inkscape:zoom="0.35"
     inkscape:cx="182.27867"
     inkscape:cy="731.23106"
     inkscape:document-units="px"
     inkscape:current-layer="layer1"
     showgrid="true"
     units="px"
     inkscape:window-width="1280"
     inkscape:window-height="748"
     inkscape:window-x="-8"
     inkscape:window-y="-8"
     inkscape:window-maximized="1"
     showguides="true"
     inkscape:guide-bbox="true">
    <sodipodi:guide
       position="0,200"
       orientation="0,1"
       id="guide4889"
       inkscape:label="Baseline"
       inkscape:color="rgb(0,0,255)" />
    <inkscape:grid
       type="xygrid"
       id="grid4150" />
  </sodipodi:namedview>
  <metadata
     id="metadata4294">
    <rdf:RDF>
      <cc:Work
         rdf:about="">
        <dc:format>image/svg+xml</dc:format>
        <dc:type
           rdf:resource="http://purl.org/dc/dcmitype/StillImage" />
        <dc:title></dc:title>
      </cc:Work>
    </rdf:RDF>
  </metadata>
  <g
     inkscape:label="Layer 1"
     inkscape:groupmode="layer"
     id="layer1"
     transform="translate(0,-52.36222)">
    <g
       id="g4150">
      <g
         id="g7568"
         transform="translate(-7.7453506,1.3890127)">
        <path
           inkscape:connector-curvature="0"
           id="path7542"
           d="m 183.46949,191.74926 0,490.14561 c 0,53.14369 6.0178,189.51298 16.0449,226.61328 l 77.2071,0 c 29.0786,-64.1735 46.125,-183.49644 46.125,-265.71874 l 0,-458.70561 4.0117,-63.17187 c 1.0027,-15.04066 -4.0112,-25.066523 -15.041,-30.080083 -23.9328,-10.706759 -65.2716,-21.01825 -105.62932,-27.703949 -53.37191,-8.791495 -50.05773,10.916555 -55.22366,20.830747 -9.12361,17.509575 32.50528,60.677905 32.50528,107.790615 z"
           style="font-style:normal;font-variant:normal;font-weight:900;font-stretch:normal;font-size:445.64938354px;line-height:125%;font-family:'Source Han Serif KR';-inkscape-font-specification:'Source Han Serif KR Heavy';letter-spacing:0px;word-spacing:0px;fill:#000000;fill-opacity:1;stroke:none;stroke-width:1px;stroke-linecap:butt;stroke-linejoin:miter;stroke-opacity:1"
           sodipodi:nodetypes="sscccccccss" />
        <path
           style="font-style:normal;font-variant:normal;font-weight:900;font-stretch:normal;font-size:445.64938354px;line-height:125%;font-family:'Source Han Serif KR';-inkscape-font-specification:'Source Han Serif KR Heavy';letter-spacing:0px;word-spacing:0px;fill:#000000;fill-opacity:1;stroke:none;stroke-width:1px;stroke-linecap:butt;stroke-linejoin:miter;stroke-opacity:1"
           d="m 794.6702,55.09395 -35.09375,16.042969 c -45.122,3.00813 -371.48919,9.026147 -414.60575,8.023437 -27.0732,0 -73.19696,-3.009131 -107.28906,-9.02539 l -8.02148,16.042968 c -2.00541,4.010825 -2.00494,9.024316 2.00586,13.035156 22.0597,26.07049 56.15069,55.15042 89.24023,73.19922 20.0542,-5.01355 58.15798,-12.03244 79.21484,-13.03516 28.16284,-2.28347 203.69959,-1.64382 291.40015,-3.1638 23.97915,-1.88494 54.14893,20.87109 49.09037,51.23782 l 0,474.44425 c 0,53.14369 6.01782,189.51298 16.04492,226.61328 l 77.20703,0 c 29.0786,-64.1735 46.125,-183.49645 46.125,-265.71875 l 0,-441.53441 c 6.07547,-26.72851 11.96663,-55.08921 9.97072,-85.69033 C 889.16785,103.43095 887.84609,76.471978 874.79102,71.136919 855.73951,64.117939 826.75695,57.09937 794.6702,55.09395 Z"
           id="path7563"
           inkscape:connector-curvature="0"
           sodipodi:nodetypes="ccccscccccsccscscc" />
      </g>
      <path
         inkscape:connector-curvature="0"
         id="path9603"
         d="m 733.80954,767.65947 -35.0937,16.04297 c -45.122,3.00813 -357.35639,9.02615 -400.47299,8.02344 -27.0732,0 -73.1969,-3.00913 -107.289,-9.02539 l -8.0215,16.04297 c -2.0054,4.01084 -2.005,9.02431 2.0058,13.03515 22.0597,26.07049 56.1508,55.15042 89.2403,73.19922 20.0542,-5.01355 58.1579,-12.03244 79.2148,-13.03516 37.1003,-3.00813 332.28669,-8.02343 369.38699,-8.02343 24.0651,0 78.211,4.3e-4 96.2598,2.00586 11.0298,-7.01898 25.0684,-33.08816 25.0684,-61.16407 0,-9.0244 -5.0135,-18.05046 -13.0352,-21.05859 -19.0515,-7.01898 -65.1769,-14.03755 -97.2637,-16.04297 z"
         style="font-style:normal;font-variant:normal;font-weight:900;font-stretch:normal;font-size:445.64938354px;line-height:125%;font-family:'Source Han Serif KR';-inkscape-font-specification:'Source Han Serif KR Heavy';letter-spacing:0px;word-spacing:0px;fill:#000000;fill-opacity:1;stroke:none;stroke-width:1px;stroke-linecap:butt;stroke-linejoin:miter;stroke-opacity:1"
         sodipodi:nodetypes="ccccscccscscc" />
      <path
         sodipodi:nodetypes="ccccc"
         inkscape:connector-curvature="0"
         id="path4765-4-9"
         d="m 366.75589,354.65299 c 46.78453,95.43052 113.17064,210.08263 158.48624,251.0072 88.54722,52.66016 140.81404,-34.78276 108.03448,-116.327 -79.55228,-88.76262 -170.71572,-147.88214 -247.37315,-179.23714 -34.34277,-1.17434 -32.82637,14.83447 -19.14757,44.55694 z"
         style="font-style:normal;font-variant:normal;font-weight:900;font-stretch:normal;font-size:445.64938354px;line-height:125%;font-family:'Source Han Serif KR';-inkscape-font-specification:'Source Han Serif KR Heavy';letter-spacing:0px;word-spacing:0px;fill:#000000;fill-opacity:1;stroke:none;stroke-width:1px;stroke-linecap:butt;stroke-linejoin:miter;stroke-opacity:1" />
    </g>
  </g>
</svg>
