<?xml version="1.0" encoding="UTF-8" standalone="no"?>
<!-- Created with Inkscape (http://www.inkscape.org/) -->

<svg
   xmlns:dc="http://purl.org/dc/elements/1.1/"
   xmlns:cc="http://creativecommons.org/ns#"
   xmlns:rdf="http://www.w3.org/1999/02/22-rdf-syntax-ns#"
   xmlns:svg="http://www.w3.org/2000/svg"
   xmlns="http://www.w3.org/2000/svg"
   xmlns:sodipodi="http://sodipodi.sourceforge.net/DTD/sodipodi-0.dtd"
   xmlns:inkscape="http://www.inkscape.org/namespaces/inkscape"
   width="1000"
   height="1000"
   viewBox="0 0 1000 1000"
   id="svg4289"
   version="1.1"
   inkscape:version="0.91 r13725"
   sodipodi:docname="Shz.svg">
  <defs
     id="defs4291" />
  <sodipodi:namedview
     id="base"
     pagecolor="#ffffff"
     bordercolor="#666666"
     borderopacity="1.0"
     inkscape:pageopacity="0.0"
     inkscape:pageshadow="2"
     inkscape:zoom="0.35"
     inkscape:cx="268.33223"
     inkscape:cy="745.09624"
     inkscape:document-units="px"
     inkscape:current-layer="layer1"
     showgrid="true"
     units="px"
     inkscape:window-width="1280"
     inkscape:window-height="748"
     inkscape:window-x="-8"
     inkscape:window-y="-8"
     inkscape:window-maximized="1"
     showguides="true"
     inkscape:guide-bbox="true">
    <sodipodi:guide
       position="0,200"
       orientation="0,1"
       id="guide4889"
       inkscape:label="Baseline"
       inkscape:color="rgb(0,0,255)" />
    <inkscape:grid
       type="xygrid"
       id="grid4150" />
  </sodipodi:namedview>
  <metadata
     id="metadata4294">
    <rdf:RDF>
      <cc:Work
         rdf:about="">
        <dc:format>image/svg+xml</dc:format>
        <dc:type
           rdf:resource="http://purl.org/dc/dcmitype/StillImage" />
        <dc:title></dc:title>
      </cc:Work>
    </rdf:RDF>
  </metadata>
  <g
     inkscape:label="Layer 1"
     inkscape:groupmode="layer"
     id="layer1"
     transform="translate(0,-52.36222)">
    <g
       id="g9969"
       transform="translate(-478.05763,130.56246)">
      <path
         sodipodi:nodetypes="ccccscccccsccscscc"
         inkscape:connector-curvature="0"
         id="path7563"
         d="m 1243.7851,-128.63078 -35.0938,16.0429 c -45.122,3.0081 -371.48916,9.0262 -414.60566,8.0235 -27.0732,0 -73.197,-3.0092 -107.2891,-9.0254 l -8.0215,16.0429 c -2.0054,4.0109 -2.0049,9.0244 2.0059,13.0352 22.0597,26.0705 56.1507,55.1504 89.2402,73.1992 20.0542,-5.0135 58.158,-12.0324 79.2149,-13.0351 28.1628,-2.2835 203.69956,-1.6439 291.40006,-3.1638 23.9792,-1.885 54.1489,20.871 49.0904,51.2378 l 0,135.03291 c 0,53.1437 6.0178,136.98507 16.0449,174.08537 l 77.207,0 c 29.0786,-64.1735 46.125,-130.96847 46.125,-213.19077 l 0,-102.12321 c 6.0755,-26.7285 11.9667,-55.0892 9.9708,-85.6903 -0.7915,-12.1342 -2.1132,-39.0932 -15.1683,-44.4283 -19.0515,-7.019 -48.0341,-14.0375 -80.1208,-16.0429 z"
         style="font-style:normal;font-variant:normal;font-weight:900;font-stretch:normal;font-size:445.64938354px;line-height:125%;font-family:'Source Han Serif KR';-inkscape-font-specification:'Source Han Serif KR Heavy';letter-spacing:0px;word-spacing:0px;fill:#000000;fill-opacity:1;stroke:none;stroke-width:1px;stroke-linecap:butt;stroke-linejoin:miter;stroke-opacity:1" />
      <path
         sodipodi:nodetypes="ccccscccscscc"
         style="font-style:normal;font-variant:normal;font-weight:900;font-stretch:normal;font-size:445.64938354px;line-height:125%;font-family:'Source Han Serif KR';-inkscape-font-specification:'Source Han Serif KR Heavy';letter-spacing:0px;word-spacing:0px;fill:#000000;fill-opacity:1;stroke:none;stroke-width:1px;stroke-linecap:butt;stroke-linejoin:miter;stroke-opacity:1"
         d="m 1225.2381,193.37378 -35.0937,16.04297 c -45.122,3.00813 -225.92782,9.02615 -269.04442,8.02344 -27.0732,0 -73.1969,-3.00913 -107.289,-9.02539 l -8.0215,16.04297 c -2.00541,4.01083 -2.005,9.02431 2.0058,13.03515 22.0597,26.07049 56.1508,55.15042 89.2403,73.19922 20.0542,-5.01355 58.1579,-12.03244 79.2148,-13.03516 37.10032,-3.00813 200.85812,-8.02343 237.95842,-8.02343 24.0651,0 49.6396,4.3e-4 67.6884,2.00586 11.0298,-7.01898 25.0684,-33.08816 25.0684,-61.16407 0,-9.0244 -5.0135,-18.05046 -13.0352,-21.05859 -19.0515,-7.01898 -36.6055,-14.03755 -68.6923,-16.04297 z"
         id="path9944"
         inkscape:connector-curvature="0" />
      <path
         inkscape:connector-curvature="0"
         id="path9946"
         d="m 871.65326,511.44862 c 29.29338,-107.89636 47.13112,-181.49474 46.71543,-234.97405 -15.55267,-27.8868 -13.68187,-54.57383 -116.8451,-77.1968 -23.78247,-3.89971 -35.72204,-4.03587 -40.6402,12.7065 -4.09359,13.93558 15.88179,29.69256 9.7085,75.99625 -14.54509,75.69514 -14.98834,163.06001 -43.89149,240.01099 -17.69867,47.12056 -35.27951,90.58043 -63.75301,144.10157 -12.42587,28.75327 -62.53336,92.18146 -40.98755,105.48242 41.5648,9.09028 95.70027,-18.38037 122.51304,-51.49688 66.90309,-68.41059 97.06344,-138.61947 127.18038,-214.63 z"
         style="font-style:normal;font-variant:normal;font-weight:900;font-stretch:normal;font-size:445.64938354px;line-height:125%;font-family:'Source Han Serif KR';-inkscape-font-specification:'Source Han Serif KR Heavy';letter-spacing:0px;word-spacing:0px;fill:#000000;fill-opacity:1;stroke:none;stroke-width:1px;stroke-linecap:butt;stroke-linejoin:miter;stroke-opacity:1"
         sodipodi:nodetypes="cccscscccc" />
    </g>
  </g>
</svg>
