<?xml version="1.0" encoding="UTF-8" standalone="no"?>
<!-- Created with Inkscape (http://www.inkscape.org/) -->

<svg
   xmlns:dc="http://purl.org/dc/elements/1.1/"
   xmlns:cc="http://creativecommons.org/ns#"
   xmlns:rdf="http://www.w3.org/1999/02/22-rdf-syntax-ns#"
   xmlns:svg="http://www.w3.org/2000/svg"
   xmlns="http://www.w3.org/2000/svg"
   xmlns:sodipodi="http://sodipodi.sourceforge.net/DTD/sodipodi-0.dtd"
   xmlns:inkscape="http://www.inkscape.org/namespaces/inkscape"
   width="1000"
   height="1000"
   viewBox="0 0 264.58333 264.58334"
   version="1.1"
   id="svg228"
   inkscape:version="0.92.3 (2405546, 2018-03-11)"
   sodipodi:docname="ㄉ.svg">
  <defs
     id="defs222" />
  <sodipodi:namedview
     id="base"
     pagecolor="#ffffff"
     bordercolor="#666666"
     borderopacity="1.0"
     inkscape:pageopacity="0.0"
     inkscape:pageshadow="2"
     inkscape:zoom="0.35"
     inkscape:cx="130"
     inkscape:cy="560"
     inkscape:document-units="px"
     inkscape:current-layer="layer1"
     showgrid="false"
     units="px"
     inkscape:window-width="1280"
     inkscape:window-height="747"
     inkscape:window-x="-8"
     inkscape:window-y="-8"
     inkscape:window-maximized="1" />
  <metadata
     id="metadata225">
    <rdf:RDF>
      <cc:Work
         rdf:about="">
        <dc:format>image/svg+xml</dc:format>
        <dc:type
           rdf:resource="http://purl.org/dc/dcmitype/StillImage" />
        <dc:title></dc:title>
      </cc:Work>
    </rdf:RDF>
  </metadata>
  <g
     inkscape:label="圖層 1"
     inkscape:groupmode="layer"
     id="layer1"
     transform="translate(0,-32.41665)">
    <path
       style="display:inline;fill:#000000;fill-opacity:1;stroke:none;stroke-width:0.28905824"
       d="M 79.39257,39.228222 C 71.71143,67.500896 53.987831,98.621213 41.77264,116.31447 l 7.00785,26.52862 c 20.0054,-3.28748 42.720839,-6.6112 65.80373,-9.63353 -13.4791,53.73169 -37.277879,94.29555 -71.99457,146.18694 2.889512,8.34398 15.292321,8.8687 22.990331,7.98091 36.357059,-55.45977 59.194859,-97.64876 73.674049,-157.26275 25.57852,-3.0623 50.60179,-5.59974 71.87932,-7.12721 -0.40248,49.69388 -3.57014,104.20186 -19.94916,137.73009 -14.5282,-1.62063 -29.05623,-10.50237 -43.58443,-20.05304 -12.00043,5.38681 -18.60748,14.49498 -17.54775,19.99258 27.8753,17.81182 52.76411,26.66423 74.59182,26.33327 C 227.9403,256.86304 236.43719,173.70672 233.73612,100.54696 181.06252,100.45266 118.987,111.16487 67.71266,118.06682 77.950731,100.90699 92.55263,77.226503 101.30234,51.136537 96.0919,46.984095 93.41133,43.310895 79.39257,39.228222 Z"
       id="path913-7-2-7-0"
       inkscape:connector-curvature="0" />
    <path
       style="display:inline;fill:#000000;fill-opacity:1;stroke:none;stroke-width:0.28905824"
       d="M 79.39257,39.228221 C 71.711427,67.500896 53.987826,98.621213 41.772645,116.31447 l 7.007839,26.52862 c 20.005408,-3.28748 42.720845,-6.6112 65.803736,-9.63353 -13.4791,53.73169 -37.277882,94.29555 -71.99457,146.18694 2.889506,8.34398 15.292316,8.8687 22.990326,7.98091 36.357064,-55.45977 59.194864,-97.64876 73.674054,-157.26275 25.57852,-3.0623 50.60179,-5.59974 71.87933,-7.12721 -0.40248,49.69388 -3.57014,104.20186 -19.94917,137.73009 -14.52819,-1.62063 -29.05622,-10.50237 -43.58442,-20.05304 -12.00044,5.38681 -18.60749,14.49498 -17.54776,19.99258 27.87531,17.81182 52.76412,26.66423 74.59183,26.33327 C 227.9403,256.86304 236.4372,173.70672 233.73612,100.54696 181.06252,100.45266 118.987,111.16487 67.712663,118.06682 77.950726,100.90699 92.552633,77.226493 101.30234,51.136537 96.0919,46.984094 93.411335,43.310894 79.39257,39.228221 Z"
       id="path913-7-2-7"
       inkscape:connector-curvature="0" />
  </g>
</svg>
