<?xml version="1.0" encoding="UTF-8" standalone="no"?>
<!-- Created with Inkscape (http://www.inkscape.org/) -->

<svg
   xmlns:dc="http://purl.org/dc/elements/1.1/"
   xmlns:cc="http://creativecommons.org/ns#"
   xmlns:rdf="http://www.w3.org/1999/02/22-rdf-syntax-ns#"
   xmlns:svg="http://www.w3.org/2000/svg"
   xmlns="http://www.w3.org/2000/svg"
   xmlns:sodipodi="http://sodipodi.sourceforge.net/DTD/sodipodi-0.dtd"
   xmlns:inkscape="http://www.inkscape.org/namespaces/inkscape"
   width="1000"
   height="1000"
   viewBox="0 0 264.58333 264.58334"
   version="1.1"
   id="svg228"
   inkscape:version="0.92.3 (2405546, 2018-03-11)"
   sodipodi:docname="ㄉㄞ.svg">
  <defs
     id="defs222" />
  <sodipodi:namedview
     id="base"
     pagecolor="#ffffff"
     bordercolor="#666666"
     borderopacity="1.0"
     inkscape:pageopacity="0.0"
     inkscape:pageshadow="2"
     inkscape:zoom="0.35"
     inkscape:cx="193.00161"
     inkscape:cy="560"
     inkscape:document-units="px"
     inkscape:current-layer="layer1"
     showgrid="false"
     units="px"
     inkscape:window-width="1280"
     inkscape:window-height="747"
     inkscape:window-x="-8"
     inkscape:window-y="-8"
     inkscape:window-maximized="1" />
  <metadata
     id="metadata225">
    <rdf:RDF>
      <cc:Work
         rdf:about="">
        <dc:format>image/svg+xml</dc:format>
        <dc:type
           rdf:resource="http://purl.org/dc/dcmitype/StillImage" />
        <dc:title></dc:title>
      </cc:Work>
    </rdf:RDF>
  </metadata>
  <g
     inkscape:label="圖層 1"
     inkscape:groupmode="layer"
     id="layer1"
     transform="translate(0,-32.41665)">
    <path
       style="display:inline;fill:#000000;fill-opacity:1;stroke:none;stroke-width:1.09250355"
       d="M 183.31055 44.197266 C 154.27947 151.05461 87.292647 268.67471 41.125 335.54688 L 67.611328 435.8125 C 106.86323 427.712 149.36241 420.77831 191.10938 414.94922 C 192.1788 574.47657 176.60535 705.8512 47.070312 869.0625 C 68.139572 897.00659 95.216863 924.27508 119.67773 924.94141 C 250.16815 758.04862 267.1025 601.50256 279.15039 404.01367 C 326.06844 398.83725 367.65443 395.21413 396.50977 393.09375 C 420.70286 549.48463 404.77436 707.92302 358 814.12109 C 360.31047 821.05252 293.82595 778.68406 266.81641 748.95898 C 265.03792 747.18053 231.33835 789.44093 223.35156 836.52148 C 282.74045 886.12011 355.2825 928.18272 410.87109 927.13477 C 506.95099 753.72509 491.11229 505.50778 483.9375 308.2793 C 369.53152 304.37285 216.25498 331.65804 139.16602 342.16992 C 177.86108 277.31387 233.04937 187.8128 266.11914 89.205078 C 246.42614 73.510805 236.29487 59.627837 183.31055 44.197266 z M 946.01367 89.326172 C 813.42305 92.009372 637.57627 95.380547 502.41602 99.263672 C 494.26883 141.52624 488.3165 176.32424 508.2207 190.80859 C 528.16501 189.92204 545.58603 189.12409 561.98047 188.36328 C 553.34697 298.43475 544.01728 425.52477 508.83984 498.4043 L 535.32617 598.66992 C 582.22422 588.99147 636.22694 581.00254 688.53906 574.55078 C 642.99598 706.08065 570.90817 832.88469 515.35547 915.91992 C 536.42471 943.86397 583.50202 939.70277 607.96289 940.36914 C 670.77938 838.7889 744.51699 711.81201 784.9707 564.00781 C 823.00158 560.34002 856.16335 557.65612 879.36523 555.95117 C 885.22736 714.98859 857.27591 762.32091 780.88867 928.45703 C 794.54074 938.01085 806.21997 947.84647 871.72852 949.99219 C 959.23697 756.58254 971.96776 668.36516 964.79297 471.13672 C 916.95599 469.5033 860.0314 473.33075 804.33984 479.09766 C 824.44311 372.36623 830.31465 265.1361 834.47461 179.61719 C 864.9017 179.60748 902.07638 179.74406 951.49219 179.97852 C 966.43262 169.2161 956.20335 94.127381 946.01367 89.326172 z M 747.92578 180.39648 C 747.37248 265.35159 741.30987 378.03002 713.67578 490.01953 C 671.29222 495.70534 633.64462 501.37782 606.88086 505.02734 C 639.83282 418.167 641.23975 292.72708 650.76562 184.1543 C 690.41276 182.27044 717.74352 181.07864 747.92578 180.39648 z "
       transform="matrix(0.26458333,0,0,0.26458333,0,32.41665)"
       id="path913-7-2-7-0-2" />
  </g>
</svg>
